<?xml version="1.0" standalone="no"?>
<!DOCTYPE svg PUBLIC "-//W3C//DTD SVG 1.1//EN" "http://www.w3.org/Graphics/SVG/1.1/DTD/svg11.dtd" >
<svg xmlns="http://www.w3.org/2000/svg" xmlns:xlink="http://www.w3.org/1999/xlink" version="1.1">
<metadata>
Created by FontForge 20161013 at Tue Mar 31 03:35:00 2015
 By ,,,
(c) Lauren Thompson, 2009, 2010. All rights reserved.
</metadata>
<defs>
<font id="Champagne&#38;Limousines-BoldItalic" horiz-adv-x="956" >
  <font-face 
    font-family="Champagne &#38; Limousines"
    font-weight="700"
    font-style="italic"
    font-stretch="normal"
    units-per-em="2048"
    panose-1="2 11 7 2 2 2 2 9 5 4"
    ascent="1638"
    descent="-410"
    x-height="902"
    cap-height="1439"
    bbox="-400 -379 2210 1838"
    underline-thickness="150"
    underline-position="-442"
    slope="-10"
    unicode-range="U+0020-FF9F"
  />
<missing-glyph horiz-adv-x="1088" 
d="M522 616q0 -6 5.5 -18.5t50.5 -23.5q-45 -14 -120 -60q-24 -15 -47 -15q-51 0 -99 72q28 14 39 21t11 13v252q0 30 -47 44q123 59 176 96q25 -3 31 -73v-3q20 8 36 17l163 59q11 -59 25 -107q14 -47 28 -138q2 -17 2 -34q0 -75 -51 -155q-63 -98 -178 -199q73 134 73 250
q0 32 -5 62q-26 141 -43 178q-50 -37 -50 -76v-162zM76 1412v-1409h936v1409h-936zM1044 1447v-1480h-1000v1480h1000z" />
    <glyph glyph-name=".notdef" horiz-adv-x="1088" 
d="M522 616q0 -6 5.5 -18.5t50.5 -23.5q-45 -14 -120 -60q-24 -15 -47 -15q-51 0 -99 72q28 14 39 21t11 13v252q0 30 -47 44q123 59 176 96q25 -3 31 -73v-3q20 8 36 17l163 59q11 -59 25 -107q14 -47 28 -138q2 -17 2 -34q0 -75 -51 -155q-63 -98 -178 -199q73 134 73 250
q0 32 -5 62q-26 141 -43 178q-50 -37 -50 -76v-162zM76 1412v-1409h936v1409h-936zM1044 1447v-1480h-1000v1480h1000z" />
    <glyph glyph-name=".null" horiz-adv-x="0" 
 />
    <glyph glyph-name="nonmarkingreturn" horiz-adv-x="508" 
 />
    <glyph glyph-name="space" unicode=" " horiz-adv-x="508" 
 />
    <glyph glyph-name="space" unicode="&#xa0;" horiz-adv-x="508" 
 />
    <glyph glyph-name="exclam" unicode="!" horiz-adv-x="367" 
d="M307.5 184.5q30.5 -35.5 22.5 -80.5t-51 -80.5t-98 -35.5q-57 0 -86.5 35.5t-21.5 80.5t50 80.5t99 35.5q55 0 85.5 -35.5zM525 1439l-194 -1104h-181l194 1104h181z" />
    <glyph glyph-name="quotedbl" unicode="&#x22;" horiz-adv-x="540" 
d="M204 847l104 589h181l-104 -589h-181zM454 847l104 589h180l-104 -589h-180z" />
    <glyph glyph-name="numbersign" unicode="#" horiz-adv-x="1026" 
d="M567 429h-111l-140 -333h-178l141 333h-223l108 157h182l96 227h-206l109 157h162l145 344h178l-146 -344h111l145 344h178l-146 -344h204l-109 -157h-160l-96 -227h185l-109 -157h-143l-140 -333h-178zM523 586h111l96 227h-111z" />
    <glyph glyph-name="dollar" unicode="$" horiz-adv-x="1149" 
d="M715 254q132 41 164 222q17 100 -39 169l-47 57zM696 1172q-46 -40 -56 -100q-11 -60 22 -95zM627 778q-65 31 -117 94q-69 83 -48 200q20 114 119 198q87 76 147 83l16 91h181l-17 -96q51 -9 107 -76q39 -46 52 -136l-171 -65q3 65 -16 116l-55 -314q90 -38 165 -129
q93 -112 66 -268q-28 -157 -160 -269q-116 -99 -208 -110l-18 -101h-181l17 98q-95 8 -181 113q-74 90 -71 239l183 64q-22 -205 97 -261z" />
    <glyph glyph-name="percent" unicode="%" horiz-adv-x="1136" 
d="M1259 1165l-1038 -1185l-124 98l1038 1185zM675 1041q58 -71 42 -166q-17 -93 -100 -164.5t-190 -71.5t-165 71.5t-41 164.5q16 95 99 166t190 71t165 -71zM483 958q-26 0 -52 -22.5t-32 -60.5q-7 -38 11 -60t44 -22q25 0 51.5 22.5t33.5 59.5q6 38 -12.5 60.5
t-43.5 22.5zM1093.5 531.5q58.5 -70.5 41.5 -165.5t-100 -165.5t-189 -70.5q-107 0 -165 70.5t-41 165.5t99.5 165.5t189.5 70.5q106 0 164.5 -70.5zM902 449q-26 0 -52 -22.5t-32 -60.5q-7 -38 11 -60t44 -22q25 0 52 22t34 60q6 38 -13 60.5t-44 22.5z" />
    <glyph glyph-name="ampersand" unicode="&#x26;" horiz-adv-x="1231" 
d="M1039 715q59 -1 110 -32q75 -47 83 -136q3 -29 -2 -57q-10 -54 -46 -104q-62 -82 -182 -117q-33 -70 -129 -150q-156 -135 -348 -135q-191 0 -299.5 131.5t-76.5 311.5q31 179 181 314q105 94 171 101q-118 155 -94 287q22 130 137 228.5t259 98.5q145 0 227 -101
q45 -52 58 -146l-171 -63q-17 81 -40 109q-38 46 -101 46q-62 0 -119 -48.5t-70 -123.5q-14 -75 27.5 -129.5t79 -69.5t153.5 -16l-27 -151l-106 -2q-168 -30 -266.5 -120.5t-119.5 -213.5q-22 -122 45.5 -204.5t178.5 -82.5q110 0 209 84q53 45 70 78q-34 24 -87 91
q-29 33 -39 39q-5 3 -9 3t-6 -1q-7 -2 -15 -12q-8 -12 -10 -22q-1 -7 -1 -14q2 -15 8 -19q2 -1 10 -1l-27 -154h-10q-49 0 -92 25q-61 39 -68 114q-2 25 2 49q8 45 39 88q55 70 139 93q31 8 59 8q55 0 97 -28q36 -22 85 -84q37 -40 53 -50q11 -7 21 -7q6 0 14 3q24 6 42 29
q13 19 17 38q2 10 0 22q-3 29 -23 42q-8 4 -19 5z" />
    <glyph glyph-name="quotesingle" unicode="'" horiz-adv-x="291" 
d="M204 847l104 589h181l-104 -589h-181z" />
    <glyph glyph-name="parenleft" unicode="(" horiz-adv-x="736" 
d="M946 1506q-210 -115 -325 -240q-170 -187 -229 -520l-15 -87q-59 -334 45 -521q71 -125 241 -240h-255q-82 65 -135 143q-168 244 -94 661q73 417 327 660q81 79 185 144h255z" />
    <glyph glyph-name="parenright" unicode=")" horiz-adv-x="736" 
d="M576 1506q81 -65 134 -144q168 -243 95 -660q-74 -417 -328 -661q-81 -78 -185 -143h-255q210 115 325 240q171 187 230 521l16 87q58 333 -47 520q-71 125 -240 240h255z" />
    <glyph glyph-name="asterisk" unicode="*" horiz-adv-x="841" 
d="M738 1291l177 86l70 -133l-207 -102l171 -102l-117 -134l-146 86l-26 -145h-180l26 146l-179 -87l-69 134l207 102l-171 102l117 134l147 -87l26 145h180z" />
    <glyph glyph-name="plus" unicode="+" horiz-adv-x="1138" 
d="M479 609h-394v156h394v395h180v-395h394v-156h-394v-395h-180v395z" />
    <glyph glyph-name="comma" unicode="," horiz-adv-x="464" 
d="M406 221l-268 -407h-171l181 407h258z" />
    <glyph glyph-name="hyphen" unicode="-" horiz-adv-x="680" 
d="M158 621h584l-28 -157h-584z" />
    <glyph glyph-name="hyphen" unicode="&#xad;" horiz-adv-x="680" 
d="M158 621h584l-28 -157h-584z" />
    <glyph glyph-name="period" unicode="." horiz-adv-x="367" 
d="M307.5 184.5q30.5 -35.5 22.5 -80.5t-51 -80.5t-98 -35.5q-57 0 -86.5 35.5t-21.5 80.5t50 80.5t99 35.5q55 0 85.5 -35.5z" />
    <glyph glyph-name="slash" unicode="/" horiz-adv-x="744" 
d="M853 1439h197l-906 -1439h-196z" />
    <glyph glyph-name="zero" unicode="0" horiz-adv-x="1135" 
d="M1026 708q49 279 -28 424.5t-205 145.5q-129 0 -256.5 -145.5t-176.5 -424.5q-50 -280 26.5 -425t205.5 -145q128 0 256 145t178 425zM1210 708q-59 -332 -241.5 -532t-404.5 -200q-223 0 -335.5 200t-53.5 532q58 331 241 531t406 200q222 0 334 -200t54 -531z" />
    <glyph glyph-name="one" unicode="1" horiz-adv-x="1146" 
d="M514 157l177 1004l-101 -59l-116 96l455 294l-235 -1335h295l-28 -157h-776l28 157h301z" />
    <glyph glyph-name="two" unicode="2" horiz-adv-x="1177" 
d="M170 0q724 871 774.5 939t60.5 127q5 29 4 60q-4 91 -70 137q-45 30 -97 30q-24 0 -48 -5q-85 -19 -144 -93q-36 -44 -62 -130l-175 27q28 107 86 178q112 137 275 172q50 12 97 12q112 0 199 -62q120 -85 128 -235q3 -53 -6 -102q-15 -87 -78.5 -173.5t-595.5 -724.5
h516l-28 -157h-836z" />
    <glyph glyph-name="three" unicode="3" horiz-adv-x="1144" 
d="M653 759l-108 3l28 154q118 1 160 16.5t101.5 69t72.5 127.5q13 75 -26 122t-100 47t-115 -45q-32 -28 -78 -111l-153 65q47 98 110 150q119 101 264 101q146 0 226.5 -99t57.5 -230q-23 -133 -186 -279q54 -11 126 -107q102 -136 70 -316q-32 -181 -187 -313t-348 -132
q-192 0 -303 135q-85 104 -81 271l190 64q-10 -159 49 -231q65 -79 173 -79q111 0 207 81.5t117 203.5q22 123 -44.5 212t-222.5 120z" />
    <glyph glyph-name="four" unicode="4" horiz-adv-x="1171" 
d="M1194 1639l-199 -1133h130l-28 -156h-130l-62 -350h-181l62 350h-588zM901 1003l-382 -497h295z" />
    <glyph glyph-name="five" unicode="5" horiz-adv-x="1147" 
d="M553 1041q62 11 119 11q105 0 194 -33q197 -72 266 -264q42 -116 20 -238q-13 -77 -50 -153q-100 -205 -310 -310q-133 -64 -262 -64q-82 0 -161 26q-161 53 -245 205l146 134q76 -152 188 -187q49 -17 98 -17q79 0 163 41q142 69 211 213q29 58 38 113q16 87 -14 171
q-46 131 -178 180q-56 20 -126 20q-99 0 -264 -49l-87 91l240 445l11 63h528l-28 -157h-373z" />
    <glyph glyph-name="six" unicode="6" horiz-adv-x="1143" 
d="M398 399q-20 -110 40.5 -183t158.5 -73q97 0 183 73t106 183q19 110 -41.5 183.5t-157.5 73.5q-98 0 -184 -73.5t-105 -183.5zM544 765q52 52 172 52q182 0 283.5 -124t71.5 -294q-30 -169 -175.5 -293.5t-327.5 -124.5q-180 0 -282.5 124.5t-72.5 293.5
q49 226 210 468.5t440 571.5h219q-346 -402 -538 -674z" />
    <glyph glyph-name="seven" unicode="7" horiz-adv-x="1142" 
d="M993 905q-213 -242 -364 -473q-149 -229 -195 -432h-183q54 251 217 496q161 240 355 466q186 219 225 320h-704l28 157h905q-54 -271 -284 -534z" />
    <glyph glyph-name="eight" unicode="8" horiz-adv-x="1137" 
d="M596 144q161 7 247.5 83.5t108.5 199.5q21 123 -46 213q-64 86 -203 115q-153 -29 -247 -115q-98 -90 -119 -213q-22 -123 37.5 -199.5t221.5 -83.5zM568 -9q-248 0 -347.5 128t-67.5 308q31 180 181 316q107 96 171 96q-118 157 -94 290q23 132 137.5 228t281.5 97
q157 -1 238 -97t58 -228q-24 -133 -199 -290q65 0 137 -96q102 -136 71 -316q-32 -180 -176 -308t-391 -128zM652 1247.5q-43 -42.5 -56 -118.5q-14 -74 26.5 -127t110.5 -76q76 23 134.5 76t72.5 127q13 76 -14.5 118.5t-128.5 49.5q-102 -7 -145 -49.5z" />
    <glyph glyph-name="nine" unicode="9" horiz-adv-x="1143" 
d="M995 1021q19 110 -41.5 183t-158.5 73q-97 0 -183 -73t-105 -183t41 -183.5t157 -73.5q98 0 184.5 73.5t105.5 183.5zM848 655q-51 -52 -172 -52q-181 0 -282.5 124t-71.5 294q30 169 175.5 293.5t326.5 124.5t283.5 -124.5t72.5 -293.5q-49 -226 -210.5 -468.5
t-440.5 -571.5h-218q345 402 537 674z" />
    <glyph glyph-name="colon" unicode=":" horiz-adv-x="367" 
d="M307.5 184.5q30.5 -35.5 22.5 -80.5t-51 -80.5t-98 -35.5q-57 0 -86.5 35.5t-21.5 80.5t50 80.5t99 35.5q55 0 85.5 -35.5zM412.5 778q30.5 -35 22.5 -80t-51 -80.5t-98 -35.5q-57 0 -86.5 35.5t-21.5 80.5t50 80t99 35q55 0 85.5 -35z" />
    <glyph glyph-name="semicolon" unicode=";" horiz-adv-x="421" 
d="M406 221l-268 -407h-171l181 407h258zM445 778q30 -35 22 -80t-50.5 -80.5t-98.5 -35.5t-86 35.5t-22 80.5t50.5 80t98.5 35t86 -35z" />
    <glyph glyph-name="semicolon" unicode="&#x37e;" horiz-adv-x="421" 
d="M406 221l-268 -407h-171l181 407h258zM445 778q30 -35 22 -80t-50.5 -80.5t-98.5 -35.5t-86 35.5t-22 80.5t50.5 80t98.5 35t86 -35z" />
    <glyph glyph-name="less" unicode="&#x3c;" horiz-adv-x="1184" 
d="M449 782l646 -299v-182l-1006 481l1006 481v-182z" />
    <glyph glyph-name="equal" unicode="=" horiz-adv-x="1138" 
d="M85 902h968v-157h-968v157zM89 630h960v-157h-960v157z" />
    <glyph glyph-name="greater" unicode="&#x3e;" horiz-adv-x="1184" 
d="M89 1081v182l1006 -481l-1006 -481v182l646 299z" />
    <glyph glyph-name="question" unicode="?" horiz-adv-x="832" 
d="M459 104q-8 -45 -50.5 -80.5t-98.5 -35.5t-86 35.5t-22 80.5t50.5 80.5t98.5 35.5t86 -35.5t22 -80.5zM241 1076q20 102 43 141q82 139 225 192q72 26 140 26q69 0 131 -26q121 -55 146 -175q12 -63 2 -120q-10 -59 -45 -119q-59 -103 -248 -296q-155 -157 -180 -299
q-3 -17 -8 -78h-181q7 52 9 66q35 200 218 385q199 202 236 284q13 31 18 59q8 42 -5 77q-20 56 -78 79q-26 9 -51 9q-31 0 -64 -14q-66 -29 -102 -95q-13 -24 -29 -96h-177z" />
    <glyph glyph-name="at" unicode="@" horiz-adv-x="1593" 
d="M1126 630l29 125q0 63 -36 112q-51 66 -142 66q-92 0 -177 -69.5t-112 -190.5q-17 -92 34 -157q49 -66 140 -66q92 0 175 67q60 49 89 113zM826 286q-177 0 -272 125q-86 110 -60 259q45 187 192 307.5t323 120.5q178 0 212 -47l8 33h188l-163 -561q-3 -39 21 -39
q25 0 78 42q102 81 150 296q30 172 -78 303q-112 136 -373 136q-229 0 -433.5 -167t-266.5 -443q-38 -215 81 -370q124 -162 350 -162q156 0 278 67l90 -127q-196 -101 -401 -101q-311 0 -480 220q-154 197 -106 468q78 343 344.5 559.5t576.5 216.5q346 0 502 -191
q142 -176 103 -396q-59 -264 -197 -391q-136 -126 -288 -126q-144 16 -126 119q-76 -151 -253 -151z" />
    <glyph glyph-name="A" unicode="A" horiz-adv-x="1208" 
d="M876 754l-71 382l-206 -382h277zM938 1439l267 -1439h-188l-112 598h-391l-326 -598h-189l782 1439h157z" />
    <glyph glyph-name="B" unicode="B" horiz-adv-x="1102" 
d="M583 157q125 0 235 93.5t134 232.5q25 139 -52 233t-202 94h-262l-115 -653h262zM519 1283l-55 -316h290q60 6 97 39q52 43 65 115q12 70 -26 116t-96 46h-275zM1055 821q115 -140 80 -338q-34 -196 -205 -341q-138 -118 -321 -142h-497l254 1439h457q141 0 219 -95
t56 -223q-23 -129 -132 -221q31 -8 89 -79z" />
    <glyph glyph-name="C" unicode="C" horiz-adv-x="1419" 
d="M1286 317l107 -112q-282 -221 -574 -221q-314 0 -492.5 216.5t-125.5 519.5q53 300 308 518t569 218q292 0 496 -222l-146 -112q-167 175 -378 175q-230 0 -427 -167.5t-240 -409.5q-43 -244 95.5 -411t368.5 -167q211 0 439 175z" />
    <glyph glyph-name="D" unicode="D" horiz-adv-x="1252" 
d="M670 1439q359 -2 524 -203q176 -216 123 -516q-53 -303 -310 -522q-231 -196 -591 -198h-304l254 1439h304zM519 1279l-198 -1120h122q268 0 447 148q199 169 242 413q43 242 -96 413q-127 146 -395 146h-122z" />
    <glyph glyph-name="E" unicode="E" horiz-adv-x="1007" 
d="M1149 1439l-28 -157h-602l-85 -484h602l-28 -157h-602l-85 -484h602l-28 -157h-783l254 1439h783z" />
    <glyph glyph-name="F" unicode="F" horiz-adv-x="862" 
d="M1064 1439l-28 -157h-517l-85 -484h517l-28 -157h-517l-113 -641h-181l254 1439h698z" />
    <glyph glyph-name="G" unicode="G" horiz-adv-x="1431" 
d="M1370 196q-258 -212 -551 -212q-314 0 -492.5 216.5t-125.5 519.5q53 300 308 518t569 218q292 0 496 -222l-146 -112q-167 175 -378 175q-230 0 -427 -167.5t-240 -409.5q-43 -244 95.5 -411t368.5 -167q197 0 353 110l77 438h180z" />
    <glyph glyph-name="H" unicode="H" horiz-adv-x="1141" 
d="M388 641l-113 -641h-181l254 1439h181l-113 -641h591l113 641h181l-254 -1439h-181l113 641h-591z" />
    <glyph glyph-name="I" unicode="I" horiz-adv-x="425" 
d="M557 1439l-254 -1439h-181l254 1439h181z" />
    <glyph glyph-name="J" unicode="J" horiz-adv-x="400" 
d="M288 14q-21 -117 -119 -197.5t-277 -80.5l26 150q97 0 136 32q42 36 55 106l249 1415h181z" />
    <glyph glyph-name="K" unicode="K" horiz-adv-x="1102" 
d="M1128 1439l-477 -550l465 -889h-211l-387 741l-118 -135l-107 -606h-181l254 1439h181l-94 -532l465 532h210z" />
    <glyph glyph-name="L" unicode="L" horiz-adv-x="862" 
d="M112 0l254 1439h181l-226 -1282h517l-28 -157h-698z" />
    <glyph glyph-name="M" unicode="M" horiz-adv-x="1496" 
d="M1657 1439l-254 -1439h-181l206 1170l-582 -621l-365 621l-206 -1170h-181l254 1439h193l355 -605l568 605h193z" />
    <glyph glyph-name="N" unicode="N" horiz-adv-x="1398" 
d="M542 1439l617 -1150l203 1150h181l-254 -1439h-200l-601 1121l-198 -1121h-181l254 1439h179z" />
    <glyph glyph-name="O" unicode="O" horiz-adv-x="1621" 
d="M1560.5 1241q179.5 -218 125.5 -519q-53 -303 -309 -520.5t-570 -217.5q-313 0 -492 217.5t-126 520.5q54 301 309.5 519t568.5 218q314 0 493.5 -218zM1040 1301q-230 0 -428 -168.5t-241 -410.5q-43 -244 95.5 -412t368.5 -168q231 0 428.5 168t240.5 412
q43 242 -95 410.5t-369 168.5z" />
    <glyph glyph-name="P" unicode="P" horiz-adv-x="1032" 
d="M376 471l-83 -471h-181l254 1439h412q176 -24 275 -146q116 -141 82 -337q-35 -197 -203.5 -341t-377.5 -144h-178zM519 1281l-115 -652h178q126 0 236.5 93.5t135.5 233.5q24 139 -53.5 232t-203.5 93h-178z" />
    <glyph glyph-name="Q" unicode="Q" horiz-adv-x="1621" 
d="M1040 1301q-230 0 -428 -168.5t-241 -410.5q-43 -244 95.5 -412t368.5 -168q231 0 428.5 168t240.5 412q43 242 -95 410.5t-369 168.5zM313 204q-177 215 -124 518q54 301 309.5 519t568.5 218q314 0 493.5 -218t125.5 -519q-53 -303 -311 -522q-181 -155 -331 -165
q179 -81 237 -89q50 1 80 115h183q-75 -242 -271 -257q-142 0 -249 72q-97 56 -147 59q-40 -2 -63.5 -20.5t-38.5 -52t-28 -77.5h-183q54 149 178 237q-283 5 -429 182z" />
    <glyph glyph-name="R" unicode="R" horiz-adv-x="1041" 
d="M519 1281l-115 -652h178q126 0 236.5 93.5t135.5 233.5q24 139 -53.5 232t-203.5 93h-178zM545 471h-169l-83 -471h-181l254 1439h412q176 -24 275 -146q116 -141 82 -337q-35 -197 -206 -342q-113 -97 -190 -115l235 -499h-209z" />
    <glyph glyph-name="S" unicode="S" horiz-adv-x="1017" 
d="M644 757q-146 51 -223.5 145t-53.5 227q23 130 138 228.5t260 98.5q143 0 227 -101q44 -52 57 -146l-173 -63q-16 81 -36 105q-40 50 -103 50q-62 0 -119 -48.5t-70 -123.5q-13 -74 28 -126q43 -50 125 -92q163 -56 258 -172q110 -132 78 -312t-186.5 -311.5
t-345.5 -131.5q-192 0 -301 135q-86 103 -81 267l185 63q-12 -157 49 -229q66 -80 176 -80q111 0 208 82.5t118 204.5q22 122 -45 203q-68 81 -170 127z" />
    <glyph glyph-name="T" unicode="T" horiz-adv-x="931" 
d="M782 1282l-226 -1282h-180l226 1282h-344l28 157h867l-28 -157h-343z" />
    <glyph glyph-name="U" unicode="U" horiz-adv-x="1214" 
d="M1174 1439h181l-179 -1018q-53 -169 -197 -291q-166 -142 -374 -142q-210 0 -327.5 143.5t-82.5 340.5l170 967h181l-170 -967q-25 -138 52.5 -232.5t204.5 -94.5q126 0 236 94.5t135 232.5z" />
    <glyph glyph-name="V" unicode="V" horiz-adv-x="1158" 
d="M1224 1439h189l-771 -1439h-126l-262 1439h188l197 -1108z" />
    <glyph glyph-name="W" unicode="W" horiz-adv-x="1665" 
d="M1084 1079l158 -751l494 1111h183l-640 -1439h-158l-154 758l-423 -758h-158l-132 1439h184l103 -1111l422 751h121z" />
    <glyph glyph-name="X" unicode="X" horiz-adv-x="1137" 
d="M15 0l592 787l-261 652h200l191 -479l361 479h201l-492 -652l316 -787h-201l-246 613l-462 -613h-199z" />
    <glyph glyph-name="Y" unicode="Y" horiz-adv-x="1233" 
d="M629 582l-343 857h200l268 -666l501 666h200l-645 -857l-103 -582h-181z" />
    <glyph glyph-name="Z" unicode="Z" horiz-adv-x="1168" 
d="M1049 1282h-615l28 157h906l-966 -1282h780l-28 -157h-1070z" />
    <glyph glyph-name="bracketleft" unicode="[" horiz-adv-x="477" 
d="M244 42h186l-28 -156h-367l296 1680h367l-27 -156h-186z" />
    <glyph glyph-name="backslash" unicode="\" horiz-adv-x="744" 
d="M796 0h-196l-398 1439h197z" />
    <glyph glyph-name="bracketright" unicode="]" horiz-adv-x="477" 
d="M490 1410h-186l27 156h367l-296 -1680h-367l28 156h186z" />
    <glyph glyph-name="asciicircum" unicode="^" horiz-adv-x="967" 
d="M816 1439l213 -533h-202l-127 317l-240 -317h-202l402 533h156z" />
    <glyph glyph-name="underscore" unicode="_" horiz-adv-x="863" 
d="M-35 54h953l-28 -156h-953z" />
    <glyph glyph-name="grave" unicode="`" horiz-adv-x="651" 
d="M593 1273l166 -239h-190l-270 239h294z" />
    <glyph glyph-name="a" unicode="a" horiz-adv-x="1188" 
d="M1099 0h-181l28 160q-139 -184 -358 -184q-217 0 -341 150.5t-88 355.5q37 207 214 357t394 150q219 0 293 -182l19 107h181zM990 410l26 146q-1 99 -61 171q-83 102 -217 102q-135 0 -251.5 -100t-142.5 -247q-26 -146 55.5 -245t216.5 -99q134 0 253 101q85 72 121 171
z" />
    <glyph glyph-name="b" unicode="b" horiz-adv-x="1197" 
d="M353 1439h181l-111 -630q138 180 356 180t341.5 -150t87.5 -357q-36 -205 -212.5 -355.5t-394.5 -150.5t-293 181l-28 -157h-181zM379 559l-28 -154q1 -96 63 -170q81 -97 215 -97t251 99t143 245q26 147 -56 247t-216 100t-254 -102q-83 -71 -118 -168z" />
    <glyph glyph-name="c" unicode="c" horiz-adv-x="1074" 
d="M902 292l161 -63q-64 -69 -99 -100q-179 -153 -398 -153q-217 0 -341 150.5t-88 356.5q37 206 214 356t394 150q219 0 340 -148q28 -34 67 -103l-183 -64q-28 45 -39 59q-80 96 -214 96t-250.5 -99.5t-142.5 -246.5q-25 -146 56 -245.5t215 -99.5t253 101q11 9 55 53z
" />
    <glyph glyph-name="d" unicode="d" horiz-adv-x="1188" 
d="M1099 0h-181l28 160q-139 -184 -358 -184q-217 0 -341 150.5t-88 355.5q37 207 214 357t394 150q219 0 293 -182l112 632h181zM990 410l26 146q-1 99 -61 171q-83 102 -217 102q-135 0 -251.5 -100t-142.5 -247q-26 -146 55.5 -245t216.5 -99q134 0 253 101
q85 72 121 171z" />
    <glyph glyph-name="e" unicode="e" horiz-adv-x="1108" 
d="M383 643h599q-32 186 -266 186q-235 0 -333 -186zM323 485l-1 -3q-26 -146 55.5 -245t216.5 -99q134 0 253 101q17 14 65 63l160 -60q-49 -64 -108 -113q-179 -153 -398 -153q-217 0 -341 150.5t-88 355.5q37 207 214 357t394 150q219 0 344 -152q107 -132 69 -352h-835z
" />
    <glyph glyph-name="f" unicode="f" horiz-adv-x="480" 
d="M421 758l-134 -758h-181l134 758h-84l27 156h84l33 187q26 107 117 186q101 80 215 80q88 0 156 -36l-80 -150q-55 35 -96 35q-36 0 -78 -33q-42 -36 -54 -89l-32 -180h170l-27 -156h-170z" />
    <glyph glyph-name="g" unicode="g" horiz-adv-x="1149" 
d="M994 559q-3 97 -64 172q-80 98 -214 98q-135 0 -251.5 -100t-142.5 -247q-26 -146 55.5 -245.5t216.5 -99.5q134 0 253 101q82 70 119 166zM910 155q-125 -179 -344 -179q-217 0 -341 150.5t-88 355.5q37 207 213.5 356.5t393.5 149.5q218 0 294 -181l19 107h181
l-121 -688q-35 -201 -206 -345q-179 -153 -397 -153t-341 149q-27 35 -67 104l184 63q27 -44 39 -56q80 -98 214 -98q283 0 367 265z" />
    <glyph glyph-name="h" unicode="h" horiz-adv-x="936" 
d="M348 1439h181l-93 -525q55 50 199 50q173 0 260.5 -106t62.5 -259l-106 -599h-180l104 591q17 93 -35.5 154.5t-133.5 61.5q-80 0 -151 -58q-41 -35 -61 -67l-120 -682h-181z" />
    <glyph glyph-name="i" unicode="i" horiz-adv-x="415" 
d="M458 914l-161 -914h-180l161 914h180zM506.5 1174.5q30.5 -35.5 22.5 -79.5q-8 -46 -51 -81.5t-98 -35.5q-57 0 -86.5 35.5t-21.5 81.5q8 44 50 79.5t99 35.5q55 0 85.5 -35.5z" />
    <glyph glyph-name="j" unicode="j" horiz-adv-x="379" 
d="M-19 -43q105 12 117 81l155 876h180l-154 -874q-37 -208 -324 -231zM481 1174.5q30 -35.5 22 -79.5q-8 -46 -50.5 -81.5t-98.5 -35.5t-86 35.5t-22 81.5q8 44 50.5 79.5t98.5 35.5t86 -35.5z" />
    <glyph glyph-name="k" unicode="k" horiz-adv-x="744" 
d="M811 914l-292 -298l239 -616h-207l-175 472l-16 -17l-80 -455h-181l224 1269h181l-96 -541l184 186h219z" />
    <glyph glyph-name="l" unicode="l" horiz-adv-x="401" 
d="M545 1439l-254 -1439h-181l254 1439h181z" />
    <glyph glyph-name="m" unicode="m" horiz-adv-x="1214" 
d="M413 753l-133 -753h-181l161 914h113q83 49 193 49q128 0 200 -64q92 64 220 64t200 -88q65 -81 50 -190l-121 -685h-181l128 724q2 83 -104 83q-88 0 -134 -78l-129 -729h-181l128 724h-1q3 83 -103 83q-74 0 -125 -54z" />
    <glyph glyph-name="n" unicode="n" 
d="M400 682l-120 -682h-181l161 914h181q55 50 199 50q173 0 260.5 -106t62.5 -259l-106 -599h-180l104 591q17 93 -35.5 154.5t-133.5 61.5q-80 0 -151 -58q-41 -35 -61 -67z" />
    <glyph glyph-name="o" unicode="o" horiz-adv-x="1179" 
d="M765 989q219 0 341.5 -150t85.5 -357q-36 -205 -211.5 -355.5t-394.5 -150.5q-217 0 -341 150.5t-88 355.5q37 207 214 357t394 150zM484.5 729q-116.5 -100 -142.5 -247q-26 -146 55.5 -245t216.5 -99q134 0 251 99t143 245q26 147 -56 247t-216 100q-135 0 -251.5 -100
z" />
    <glyph glyph-name="p" unicode="p" horiz-adv-x="1176" 
d="M253 914h181l-18 -105q138 179 356 179t342 -149.5t87 -356.5q-36 -205 -212.5 -355.5t-394.5 -150.5t-293 181l-84 -475h-181zM372 559l-28 -154q1 -97 63 -171q81 -97 215 -97t251 99.5t143 245.5q26 147 -56 247t-216 100t-254 -102q-83 -71 -118 -168z" />
    <glyph glyph-name="q" unicode="q" horiz-adv-x="1173" 
d="M1029 -318h-181l84 478q-139 -184 -358 -184q-217 0 -341 150.5t-88 355.5q37 207 213.5 356.5t393.5 149.5q218 0 294 -181l19 107h181zM976 410l26 146q-1 99 -61 171q-83 102 -217 102q-135 0 -251.5 -100t-142.5 -247q-26 -146 55.5 -245.5t216.5 -99.5
q134 0 253 101q85 72 121 172z" />
    <glyph glyph-name="r" unicode="r" horiz-adv-x="570" 
d="M655 778q-127 -19 -209 -98.5t-103 -199.5l-85 -480h-181l161 914h181l-23 -130q59 107 199 149z" />
    <glyph glyph-name="s" unicode="s" horiz-adv-x="727" 
d="M414 456q-92 56 -123 94q-61 74 -44 170q17 95 101.5 168t192.5 73t162 -67q56 -68 42 -149l-5 -28l-173 -66q5 113 -11 133t-42 20t-53 -23t-34 -61t15 -64q13 -18 68 -57q103 -62 146 -113q67 -84 47 -198q-21 -117 -121 -203t-228 -86t-198.5 86t-47.5 215l188 45
q-21 -116 9.5 -153t75.5 -37t89 37t55 96q10 57 -23 96q-20 23 -88 72z" />
    <glyph glyph-name="t" unicode="t" horiz-adv-x="584" 
d="M364 914l62 355h180l-62 -355h170l-28 -156h-170l-134 -758h-180l134 758h-170l28 156h170z" />
    <glyph glyph-name="u" unicode="u" 
d="M481 -12q-182 0 -269 106t-63 260l99 561h181l-98 -554q-16 -92 38 -156q50 -61 138 -61q80 0 154 62.5t90 154.5l98 554h181l-99 -561q-30 -154 -156 -262q-122 -104 -294 -104z" />
    <glyph glyph-name="v" unicode="v" horiz-adv-x="926" 
d="M1087 914l-569 -914h-114l-243 914h199l155 -609l373 609h199z" />
    <glyph glyph-name="w" unicode="w" horiz-adv-x="1184" 
d="M1346 914l-472 -914h-127l-79 433l-230 -433h-129l-148 914h195l83 -568l229 426h122l78 -426l282 568h196z" />
    <glyph glyph-name="x" unicode="x" horiz-adv-x="800" 
d="M383 481l-193 433h204l120 -269l214 269h204l-346 -433l214 -481h-203l-141 317l-253 -317h-203z" />
    <glyph glyph-name="y" unicode="y" horiz-adv-x="896" 
d="M251 -317h-195l328 512l-208 719h195l149 -505l327 505h195z" />
    <glyph glyph-name="z" unicode="z" horiz-adv-x="850" 
d="M624 746h-402l27 156h693l-562 -745h436l-28 -157h-726z" />
    <glyph glyph-name="braceleft" unicode="{" horiz-adv-x="605" 
d="M225 767q140 27 185 281l5 31q81 460 412 496l-23 -132q-157 -40 -217 -379l-7 -41q-41 -234 -122 -293q60 -59 19 -293l-7 -40q-60 -340 83 -379l-24 -133q-318 37 -237 496l5 31q45 254 -85 282z" />
    <glyph glyph-name="bar" unicode="|" horiz-adv-x="581" 
d="M635 1439l-275 -1560h-181l275 1560h181z" />
    <glyph glyph-name="braceright" unicode="}" horiz-adv-x="605" 
d="M638 694q-140 -28 -185 -282l-6 -31q-80 -459 -412 -496l23 133q157 39 217 379l7 40q42 234 122 293q-60 59 -18 293l7 41q60 339 -83 379l23 132q319 -36 238 -496l-6 -31q-45 -254 86 -281z" />
    <glyph glyph-name="asciitilde" unicode="~" horiz-adv-x="1129" 
d="M735 804q131 -86 187 -86q3 0 4 1q44 12 71 58q14 27 28 104l179 -29q-20 -79 -46 -126q-67 -113 -190 -151q-33 -10 -68 -10q-106 0 -251 92q-132 84 -187 84h-7q-40 -12 -66 -58q-17 -28 -30 -104l-177 30q18 78 44 125q67 112 191 151q31 10 67 10q106 0 251 -91z" />
    <glyph glyph-name="exclamdown" unicode="&#xa1;" horiz-adv-x="367" 
d="M306 1254.5q-30 35.5 -22 80.5t50.5 80.5t98.5 35.5t86 -35.5t22 -80.5t-50.5 -80.5t-98.5 -35.5t-86 35.5zM88 0l195 1105h181l-195 -1105h-181z" />
    <glyph glyph-name="cent" unicode="&#xa2;" horiz-adv-x="1166" 
d="M596 642l86 484q-3 -4 -59 -51q-91 -78 -111 -191q-20 -112 44 -189q39 -49 40 -53zM773 622q44 1 134 77l49 49l155 -61q-63 -68 -92 -94q-147 -125 -274 -127l-23 -131h-180l26 144q-86 17 -165 114q-101 121 -71 291t179 296q108 93 199 109l26 145h180l-23 -132
q126 0 228 -126q21 -25 60 -93l-177 -62q-28 45 -35 55q-59 70 -104 71z" />
    <glyph glyph-name="sterling" unicode="&#xa3;" horiz-adv-x="966" 
d="M379 157h545l-28 -157h-794l23 128q197 165 220 297q7 42 7 46h-199l28 157h165q-4 30 -30 105q-69 159 -51 338q23 130 128 235q134 121 303 128q12 1 27 1q151 0 256 -102l-99 -160q-91 106 -180 106h-14q-97 -4 -160 -67q-63 -62 -77 -138q-11 -116 24 -230
q54 -120 60 -216h176l-28 -157h-148l-7 -39q-28 -158 -147 -275z" />
    <glyph glyph-name="currency" unicode="&#xa4;" horiz-adv-x="1168" 
d="M559 1055q76 54 221 54t200 -54l144 122l98 -120l-141 -120q52 -78 28 -213q-24 -134 -103 -213l99 -120l-141 -119l-99 122q-76 -55 -221 -55t-201 55l-143 -122l-99 119l141 120q-51 79 -27 213q24 135 102 213l-99 120l142 120zM870 910q-48 43 -118 43
q-71 0 -132 -43q-15 -9 -32 -23q-9 -8 -21 -22q-57 -60 -71 -141q-15 -81 21 -140q7 -13 18 -25q10 -12 20 -22q46 -41 117 -41q70 0 131 42q15 9 33 25q9 7 20 20q57 60 72 141q14 81 -22 142q-8 14 -16 25q-8 10 -20 19z" />
    <glyph glyph-name="yen" unicode="&#xa5;" horiz-adv-x="1187" 
d="M602 565h-300l28 156h220l-288 718h201l266 -668l502 668h200l-541 -718h222l-28 -156h-301l-12 -72h301l-28 -157h-301l-59 -336h-181l59 336h-300l28 157h300z" />
    <glyph glyph-name="brokenbar" unicode="&#xa6;" horiz-adv-x="581" 
d="M635 1439l-126 -716h-181l126 716h181zM485 590l-126 -716h-181l126 716h181z" />
    <glyph glyph-name="section" unicode="&#xa7;" horiz-adv-x="1140" 
d="M896 317q10 1 32 125q21 121 -49 206q-64 77 -166 122q-146 53 -218 141l-28 15q-13 0 -34 -121q-22 -122 45 -203q65 -81 168 -126q146 -53 223 -145zM431 1108q0 5 5 35q23 131 137.5 223.5t258.5 92.5q141 0 227 -88q45 -53 59 -147l-173 -66q-16 83 -39 111
q-38 45 -100 45q-63 0 -119.5 -48t-69.5 -123t28 -125q42 -51 125 -93q163 -56 262 -176q105 -128 74 -307q-32 -181 -138 -272q-37 -31 -40 -32q0 -5 -5 -35q-23 -130 -137 -223t-258 -93q-142 0 -227 89q-46 52 -58 148l171 63q16 -81 39 -110q38 -45 101 -45t119.5 48
t69.5 123t-29 125q-42 52 -125 93q-162 56 -261 177q-106 128 -74 307q31 181 133 266q41 36 44 37z" />
    <glyph glyph-name="dieresis" unicode="&#xa8;" horiz-adv-x="691" 
d="M513.5 1235.5q30.5 -35.5 22.5 -79.5q-8 -46 -51 -81.5t-98 -35.5q-57 0 -86.5 35.5t-21.5 81.5q8 44 50 79.5t99 35.5q55 0 85.5 -35.5zM798 1235.5q30 -35.5 22 -79.5q-8 -46 -50.5 -81.5t-98.5 -35.5t-86 35.5t-22 81.5q8 44 50.5 79.5t98.5 35.5t86 -35.5z" />
    <glyph glyph-name="copyright" unicode="&#xa9;" horiz-adv-x="1276" 
d="M815 488l161 -62q-52 -69 -70 -88q-101 -102 -245 -102t-242 98.5t-98 230.5t98 229.5t242 97.5t245 -100q19 -21 70 -90l-160 -59q-38 43 -45 51q-47 46 -110 46q-65 0 -114.5 -49.5t-49.5 -125.5t50 -126t114 -50q63 0 115 51q2 3 39 48zM1056 970q170 -171 170 -406
t-170.5 -405.5t-417.5 -170.5t-417.5 170.5t-170.5 405.5t170.5 406t417.5 171q248 0 418 -171zM638 988q-166 0 -288.5 -122.5t-122.5 -301.5t122.5 -301t288.5 -122q167 0 289 122t122 301t-122 301.5t-289 122.5z" />
    <glyph glyph-name="ordfeminine" unicode="&#xaa;" horiz-adv-x="639" 
d="M765 905h-162l12 71q-26 -83 -145 -83t-185 80.5t-47 186.5q19 107 113 187t213 80t116 -83l8 46h162zM622 1130l11 60q-1 36 -23 64q-28 33 -71 33q-44 0 -85.5 -35.5t-51.5 -91.5t18.5 -91t73.5 -35q43 0 83 33q32 28 45 63z" />
    <glyph glyph-name="guillemotleft" unicode="&#xab;" horiz-adv-x="903" 
d="M426 449l595 531l-43 -244l-318 -287l216 -287l-43 -245zM134 449l590 532l-43 -245l-319 -287l217 -287l-43 -246z" />
    <glyph glyph-name="logicalnot" unicode="&#xac;" horiz-adv-x="1142" 
d="M1011 281h-181v326h-691v156h872v-482z" />
    <glyph glyph-name="registered" unicode="&#xae;" horiz-adv-x="1236" 
d="M611 1003v-105h14q70 0 73 60q0 45 -63 45h-24zM611 671v-108h-188v586h195q250 -2 264 -195q0 -145 -134 -176q72 -122 142 -122q8 0 16 2q77 16 102 209q0 168 -115.5 284.5t-274.5 116.5q-158 0 -274 -116.5t-116 -286.5q0 -80 26 -149q29 -77 90 -138
q110 -110 350 -116h25q18 0 38 3q1 1 177 -100l-12 -6q-13 -6 -27 -11q-26 -10 -51 -18q-13 -4 -26 -7q-29 -8 -58 -11h-3q-26 -4 -53 -4h-16q-313 4 -473 165q-104 103 -142 232q-23 76 -23 160q0 228 165 387.5t403 159.5t403 -159.5t165 -389.5q-32 -314 -266 -343
q-23 -3 -46 -3q-162 0 -263 154z" />
    <glyph glyph-name="macron" unicode="&#xaf;" horiz-adv-x="754" 
d="M268 1092h604l-28 -157h-604z" />
    <glyph glyph-name="degree" unicode="&#xb0;" horiz-adv-x="474" 
d="M609.5 1329q44.5 -55 32.5 -126q-13 -72 -77 -126.5t-148 -54.5t-129 54.5t-32 126.5q12 71 76.5 126t148.5 55t128.5 -55zM462 1276q-33 0 -59 -22.5t-31 -50.5t13 -50t51 -22q34 0 59.5 22t30.5 50t-12.5 50.5t-51.5 22.5z" />
    <glyph glyph-name="plusminus" unicode="&#xb1;" horiz-adv-x="1138" 
d="M479 221v388h-394v156h394v395h180v-395h394v-156h-394v-388h-180zM85 0v157h968v-157h-968z" />
    <glyph glyph-name="uni00B2" unicode="&#xb2;" horiz-adv-x="879" 
d="M233 566q510 495 531 615q14 95 -66 96q-54 -3 -105 -75l-157 70q122 146 287 153q273 -6 232 -240q-29 -164 -357 -473h274l-26 -146h-613z" />
    <glyph glyph-name="uni00B3" unicode="&#xb3;" horiz-adv-x="836" 
d="M559 993h-99l26 144q101 1 118 7t44 28t32 53q6 31 -9.5 47t-35.5 16t-37 -13q-14 -11 -58 -83l-154 60q42 83 88 118q83 65 187 65q105 0 163 -64t43 -146q-21 -122 -91 -130l54 -65q69 -83 50 -190q-19 -110 -123 -193t-237 -83t-210 86q-59 64 -58 185l192 62
q-6 -121 22 -153q31 -31 80 -31t93 34.5t54 92.5q10 57 -23 97.5t-111 55.5z" />
    <glyph glyph-name="acute" unicode="&#xb4;" horiz-adv-x="652" 
d="M801 1273l-355 -239h-189l250 239h294z" />
    <glyph glyph-name="mu" unicode="&#xb5;" horiz-adv-x="893" 
d="M650 77q-40 -85 -212 -85q-161 0 -177 19l-58 -329h-181l217 1232h181l-115 -654q7 -25 30 -53q49 -58 130 -58q80 0 153 60q48 41 71 90l108 615h179l-161 -914h-179z" />
    <glyph glyph-name="paragraph" unicode="&#xb6;" horiz-adv-x="1236" 
d="M1056 1284l-271 -1535h-180l127 723h-77q-209 0 -326.5 143.5t-82.5 340.5q34 197 205 342q138 117 321 141h21v1h620l-27 -156h-74l-271 -1535h-181l271 1535h-75z" />
    <glyph glyph-name="periodcentered" unicode="&#xb7;" horiz-adv-x="344" 
d="M396 792q27 -32 20 -72q-7 -41 -45.5 -73t-89.5 -32t-78.5 32t-20.5 73q7 40 46 72t90 32t78 -32z" />
    <glyph glyph-name="periodcentered" unicode="&#x2219;" horiz-adv-x="344" 
d="M396 792q27 -32 20 -72q-7 -41 -45.5 -73t-89.5 -32t-78.5 32t-20.5 73q7 40 46 72t90 32t78 -32z" />
    <glyph glyph-name="cedilla" unicode="&#xb8;" horiz-adv-x="494" 
d="M147 -127l62 172h109l-40 -70q58 -4 81 -81q10 -34 4 -66q-5 -30 -24 -57q-43 -64 -132 -78q-28 -4 -53 -4q-46 0 -78 15q-12 6 -26 14l70 84q13 -8 33 -8q25 0 45.5 12t23.5 29q2 16 -13.5 28t-40.5 12q-11 0 -21 -2z" />
    <glyph glyph-name="uni00B9" unicode="&#xb9;" horiz-adv-x="836" 
d="M449 692l81 463l-18 -10l-121 91l378 226l-135 -770h177l-26 -145h-542l26 145h180z" />
    <glyph glyph-name="ordmasculine" unicode="&#xba;" horiz-adv-x="649" 
d="M539 1287q-44 0 -85.5 -35.5t-51.5 -91.5t18.5 -91t73.5 -35h25q44 0 86 35t52 91t-19.5 91.5t-73.5 35.5h-25zM470 893q-119 0 -185 80.5t-47 186.5q19 107 113 187t213 80h25q118 0 184 -80t47 -187q-19 -106 -113 -186.5t-212 -80.5h-25z" />
    <glyph glyph-name="guillemotright" unicode="&#xbb;" horiz-adv-x="903" 
d="M40 -83l43 245l317 287l-216 287l43 244l409 -531zM338 -84l43 246l318 287l-217 287l44 245l401 -532z" />
    <glyph glyph-name="onequarter" unicode="&#xbc;" horiz-adv-x="1998" 
d="M449 692l81 463l-18 -10l-121 91l378 226l-135 -770h177l-26 -145h-542l26 145h180zM1937 1439l-1285 -1439h-216l1283 1439h218zM1992 1054l-126 -716h78l-25 -145h-78l-34 -193h-185l34 193h-376zM1702 457l-98 -119h77z" />
    <glyph glyph-name="onehalf" unicode="&#xbd;" horiz-adv-x="2012" 
d="M449 692l81 463l-18 -10l-121 91l378 226l-135 -770h177l-26 -145h-542l26 145h180zM1937 1439l-1285 -1439h-216l1283 1439h218zM1266 0q510 495 531 615q14 95 -66 96q-55 -3 -105 -75l-157 70q122 146 287 153q273 -6 232 -240q-29 -164 -358 -473h274l-25 -146h-613z
" />
    <glyph glyph-name="threequarters" unicode="&#xbe;" horiz-adv-x="1998" 
d="M559 993h-99l26 144q101 1 118 7t44 28t32 53q6 31 -9.5 47t-35.5 16t-37 -13q-14 -11 -58 -83l-154 60q42 83 88 118q83 65 187 65q105 0 163 -64t43 -146q-21 -122 -91 -130l54 -65q69 -83 50 -190q-19 -110 -123 -193t-237 -83t-210 86q-59 64 -58 185l192 62
q-6 -121 22 -153q31 -31 80 -31t93 34.5t54 92.5q10 57 -23 97.5t-111 55.5zM1938 1439l-1286 -1439h-216l1284 1439h218zM1993 1054l-126 -716h78l-26 -145h-78l-34 -193h-185l34 193h-376zM1703 457l-98 -119h77z" />
    <glyph glyph-name="questiondown" unicode="&#xbf;" horiz-adv-x="832" 
d="M623 1238.5q-42 -35.5 -98 -35.5t-86.5 35.5t-22.5 80.5t51 80.5t99 35.5t85.5 -35.5t21.5 -80.5t-50 -80.5zM290 347q-10 -72 -5 -96q12 -66 68 -95q29 -14 60 -14q25 0 53 9q66 23 106 79q26 35 33 77q5 28 2 59q-8 82 -136 284q-117 185 -82 385q3 14 15 66h181
q-17 -61 -20 -78q-25 -142 74 -299q121 -193 144 -296q14 -60 3 -119q-10 -57 -44 -120q-67 -120 -208 -175q-71 -26 -140 -26q-68 0 -131 26q-124 53 -157 192q-9 39 7 141h177z" />
    <glyph glyph-name="Agrave" unicode="&#xc0;" horiz-adv-x="1208" 
d="M876 754l-71 382l-206 -382h277zM938 1439l267 -1439h-188l-112 598h-391l-326 -598h-189l782 1439h157zM879 1798l166 -239h-190l-270 239h294z" />
    <glyph glyph-name="Aacute" unicode="&#xc1;" horiz-adv-x="1208" 
d="M876 754l-71 382l-206 -382h277zM938 1439l267 -1439h-188l-112 598h-391l-326 -598h-189l782 1439h157zM1254 1798l-355 -239h-189l250 239h294z" />
    <glyph glyph-name="Acircumflex" unicode="&#xc2;" horiz-adv-x="1208" 
d="M876 754l-71 382l-206 -382h277zM938 1439l267 -1439h-188l-112 598h-391l-326 -598h-189l782 1439h157zM1221 1560h-231l-102 87l-125 -87h-230l387 278z" />
    <glyph glyph-name="Atilde" unicode="&#xc3;" horiz-adv-x="1208" 
d="M876 754l-71 382l-206 -382h277zM938 1439l267 -1439h-188l-112 598h-391l-326 -598h-189l782 1439h157zM822 1631q-6 -22 -16 -77l-161 36q15 71 29 98q35 70 103 96q23 10 50 10q59 0 126 -55q12 -10 20 -16q5 22 14 75l163 -33q-16 -72 -30 -99q-35 -70 -105 -98
q-25 -8 -48 -8q-59 0 -126 55q-11 10 -19 16z" />
    <glyph glyph-name="Adieresis" unicode="&#xc4;" horiz-adv-x="1208" 
d="M876 754l-71 382l-206 -382h277zM938 1439l267 -1439h-188l-112 598h-391l-326 -598h-189l782 1439h157zM863 1760.5q30 -35.5 22 -79.5q-8 -46 -50.5 -81.5t-97.5 -35.5q-57 0 -87 35.5t-22 81.5q8 44 50.5 79.5t99.5 35.5q55 0 85 -35.5zM1147.5 1760.5
q29.5 -35.5 21.5 -79.5q-8 -46 -50 -81.5t-98 -35.5t-86.5 35.5t-22.5 81.5q8 44 51 79.5t99 35.5t85.5 -35.5z" />
    <glyph glyph-name="Aring" unicode="&#xc5;" horiz-adv-x="1208" 
d="M876 754l-71 382l-206 -382h277zM875 1549q-21 0 -37 -13.5t-19 -31.5q-3 -17 8 -30.5t32 -13.5t37 13.5t19 30.5q3 18 -8 31.5t-32 13.5zM948 1388l257 -1388h-188l-112 598h-391l-326 -598h-189l752 1384q-10 8 -17 17q-37 45 -27 103t63 103.5t123 45.5t107.5 -45.5
t27.5 -103.5t-63 -103q-9 -7 -17 -13z" />
    <glyph glyph-name="AE" unicode="&#xc6;" horiz-adv-x="1514" 
d="M1543 798l-28 -157h-602l-85 -484h602l-28 -157h-782l92 521h-199l-323 -521h-191l879 1439h778l-28 -157h-602l-85 -484h602zM739 677l56 317l-192 -317h136z" />
    <glyph glyph-name="Ccedilla" unicode="&#xc7;" horiz-adv-x="1419" 
d="M661 -1q-204 43 -334 202q-179 216 -126 519q53 300 308 518t569 218q292 0 496 -222l-146 -112q-167 175 -378 175q-230 0 -427 -167.5t-240 -409.5q-43 -244 95.5 -411t368.5 -167q211 0 439 175l107 -112q-282 -221 -574 -221q-33 0 -66 2l-6 -11q57 -4 81 -81
q10 -34 4 -66q-5 -30 -24 -57q-43 -64 -133 -78q-27 -4 -52 -4q-46 0 -79 15q-12 6 -25 14l70 84q13 -8 33 -8q25 0 45 12t23 29q3 16 -13 28t-41 12q-11 0 -20 -2z" />
    <glyph glyph-name="Egrave" unicode="&#xc8;" horiz-adv-x="1007" 
d="M1149 1439l-28 -157h-602l-85 -484h602l-28 -157h-602l-85 -484h602l-28 -157h-783l254 1439h783zM780 1798l166 -239h-190l-270 239h294z" />
    <glyph glyph-name="Eacute" unicode="&#xc9;" horiz-adv-x="1007" 
d="M1149 1439l-28 -157h-602l-85 -484h602l-28 -157h-602l-85 -484h602l-28 -157h-783l254 1439h783zM1155 1798l-355 -239h-189l250 239h294z" />
    <glyph glyph-name="Ecircumflex" unicode="&#xca;" horiz-adv-x="1007" 
d="M1149 1439l-28 -157h-602l-85 -484h602l-28 -157h-602l-85 -484h602l-28 -157h-783l254 1439h783zM1122 1560h-231l-102 87l-125 -87h-230l387 278z" />
    <glyph glyph-name="Edieresis" unicode="&#xcb;" horiz-adv-x="1007" 
d="M1149 1439l-28 -157h-602l-85 -484h602l-28 -157h-602l-85 -484h602l-28 -157h-783l254 1439h783zM764 1760.5q30 -35.5 22 -79.5q-8 -46 -50.5 -81.5t-97.5 -35.5q-57 0 -87 35.5t-22 81.5q8 44 50.5 79.5t99.5 35.5q55 0 85 -35.5zM1048.5 1760.5
q29.5 -35.5 21.5 -79.5q-8 -46 -50 -81.5t-98 -35.5t-86.5 35.5t-22.5 81.5q8 44 51 79.5t99 35.5t85.5 -35.5z" />
    <glyph glyph-name="Igrave" unicode="&#xcc;" horiz-adv-x="425" 
d="M557 1439l-254 -1439h-181l254 1439h181zM489 1798l166 -239h-190l-270 239h294z" />
    <glyph glyph-name="Iacute" unicode="&#xcd;" horiz-adv-x="425" 
d="M557 1439l-254 -1439h-181l254 1439h181zM864 1798l-355 -239h-189l250 239h294z" />
    <glyph glyph-name="Icircumflex" unicode="&#xce;" horiz-adv-x="425" 
d="M557 1439l-254 -1439h-181l254 1439h181zM831 1560h-231l-102 87l-125 -87h-230l387 278z" />
    <glyph glyph-name="Idieresis" unicode="&#xcf;" horiz-adv-x="425" 
d="M557 1439l-254 -1439h-181l254 1439h181zM473 1760.5q30 -35.5 22 -79.5q-8 -46 -50.5 -81.5t-97.5 -35.5q-57 0 -87 35.5t-22 81.5q8 44 50.5 79.5t99.5 35.5q55 0 85 -35.5zM757.5 1760.5q29.5 -35.5 21.5 -79.5q-8 -46 -50 -81.5t-98 -35.5t-86.5 35.5t-22.5 81.5
q8 44 51 79.5t99 35.5t85.5 -35.5z" />
    <glyph glyph-name="Eth" unicode="&#xd0;" horiz-adv-x="1298" 
d="M437 641l-85 -482h121q269 0 447 148q200 169 243 413q43 242 -97 413q-127 146 -396 146h-121l-84 -481h472l-28 -157h-472zM284 798l113 641h304q359 -2 524 -203q176 -216 123 -516q-53 -303 -310 -522q-231 -196 -591 -198h-304l113 641h-123l28 157h123z" />
    <glyph glyph-name="Ntilde" unicode="&#xd1;" horiz-adv-x="1398" 
d="M542 1439l617 -1150l203 1150h181l-254 -1439h-200l-601 1121l-198 -1121h-181l254 1439h179zM919 1631q-6 -22 -16 -77l-161 36q15 71 29 98q35 70 103 96q23 10 50 10q59 0 126 -55q12 -10 20 -16q5 22 14 75l163 -33q-16 -72 -30 -99q-35 -70 -105 -98q-25 -8 -48 -8
q-59 0 -126 55q-11 10 -19 16z" />
    <glyph glyph-name="Ograve" unicode="&#xd2;" horiz-adv-x="1621" 
d="M1560.5 1241q179.5 -218 125.5 -519q-53 -303 -309 -520.5t-570 -217.5q-313 0 -492 217.5t-126 520.5q54 301 309.5 519t568.5 218q314 0 493.5 -218zM1040 1301q-230 0 -428 -168.5t-241 -410.5q-43 -244 95.5 -412t368.5 -168q231 0 428.5 168t240.5 412
q43 242 -95 410.5t-369 168.5zM1087 1798l166 -239h-190l-270 239h294z" />
    <glyph glyph-name="Oacute" unicode="&#xd3;" horiz-adv-x="1621" 
d="M1560.5 1241q179.5 -218 125.5 -519q-53 -303 -309 -520.5t-570 -217.5q-313 0 -492 217.5t-126 520.5q54 301 309.5 519t568.5 218q314 0 493.5 -218zM1040 1301q-230 0 -428 -168.5t-241 -410.5q-43 -244 95.5 -412t368.5 -168q231 0 428.5 168t240.5 412
q43 242 -95 410.5t-369 168.5zM1462 1798l-355 -239h-189l250 239h294z" />
    <glyph glyph-name="Ocircumflex" unicode="&#xd4;" horiz-adv-x="1621" 
d="M1560.5 1241q179.5 -218 125.5 -519q-53 -303 -309 -520.5t-570 -217.5q-313 0 -492 217.5t-126 520.5q54 301 309.5 519t568.5 218q314 0 493.5 -218zM1040 1301q-230 0 -428 -168.5t-241 -410.5q-43 -244 95.5 -412t368.5 -168q231 0 428.5 168t240.5 412
q43 242 -95 410.5t-369 168.5zM1429 1560h-231l-101 87l-126 -87h-230l387 278z" />
    <glyph glyph-name="Otilde" unicode="&#xd5;" horiz-adv-x="1621" 
d="M1560.5 1241q179.5 -218 125.5 -519q-53 -303 -309 -520.5t-570 -217.5q-313 0 -492 217.5t-126 520.5q54 301 309.5 519t568.5 218q314 0 493.5 -218zM1040 1301q-230 0 -428 -168.5t-241 -410.5q-43 -244 95.5 -412t368.5 -168q231 0 428.5 168t240.5 412
q43 242 -95 410.5t-369 168.5zM1030 1631q-6 -22 -16 -77l-161 36q15 71 29 98q35 70 103 96q23 10 50 10q59 0 126 -55q12 -10 20 -16q5 22 14 75l163 -33q-16 -72 -30 -99q-34 -70 -104 -98q-26 -8 -49 -8q-59 0 -126 55q-11 10 -19 16z" />
    <glyph glyph-name="Odieresis" unicode="&#xd6;" horiz-adv-x="1621" 
d="M1560.5 1241q179.5 -218 125.5 -519q-53 -303 -309 -520.5t-570 -217.5q-313 0 -492 217.5t-126 520.5q54 301 309.5 519t568.5 218q314 0 493.5 -218zM1040 1301q-230 0 -428 -168.5t-241 -410.5q-43 -244 95.5 -412t368.5 -168q231 0 428.5 168t240.5 412
q43 242 -95 410.5t-369 168.5zM1071 1760.5q30 -35.5 23 -79.5q-9 -46 -51.5 -81.5t-97.5 -35.5q-57 0 -87 35.5t-21 81.5q7 44 49.5 79.5t99.5 35.5q55 0 85 -35.5zM1355.5 1760.5q29.5 -35.5 22.5 -79.5q-9 -46 -51 -81.5t-98 -35.5t-86.5 35.5t-21.5 81.5q7 44 50 79.5
t99 35.5t85.5 -35.5z" />
    <glyph glyph-name="multiply" unicode="&#xd7;" horiz-adv-x="1172" 
d="M585 567l-277 -277l-120 118l279 279l-279 279l120 118l277 -277l279 277l120 -118l-279 -279l279 -279l-120 -118z" />
    <glyph glyph-name="Oslash" unicode="&#xd8;" horiz-adv-x="1693" 
d="M1235 1280q-48 21 -159 21q-230 0 -428 -168.5t-241 -410.5q-43 -244 94 -411q54 -64 66 -73zM712 162q49 -20 159 -20q231 0 428.5 168t240.5 412q43 242 -97 414q-50 60 -63 68zM1476 1353q55 -33 123 -114q177 -216 123 -517q-53 -303 -309 -520.5t-570 -217.5
q-152 0 -225 32l-102 -160l-146 76l102 158q-56 33 -123 114q-177 215 -124 518q54 301 309.5 519t568.5 218q152 0 227 -32l102 158l146 -73z" />
    <glyph glyph-name="Ugrave" unicode="&#xd9;" horiz-adv-x="1214" 
d="M1174 1439h181l-179 -1018q-53 -169 -197 -291q-166 -142 -374 -142q-210 0 -327.5 143.5t-82.5 340.5l170 967h181l-170 -967q-25 -138 52.5 -232.5t204.5 -94.5q126 0 236 94.5t135 232.5zM884 1798l165 -239h-190l-269 239h294z" />
    <glyph glyph-name="Uacute" unicode="&#xda;" horiz-adv-x="1214" 
d="M1174 1439h181l-179 -1018q-53 -169 -197 -291q-166 -142 -374 -142q-210 0 -327.5 143.5t-82.5 340.5l170 967h181l-170 -967q-25 -138 52.5 -232.5t204.5 -94.5q126 0 236 94.5t135 232.5zM1259 1798l-356 -239h-189l251 239h294z" />
    <glyph glyph-name="Ucircumflex" unicode="&#xdb;" horiz-adv-x="1214" 
d="M1174 1439h181l-179 -1018q-53 -169 -197 -291q-166 -142 -374 -142q-210 0 -327.5 143.5t-82.5 340.5l170 967h181l-170 -967q-25 -138 52.5 -232.5t204.5 -94.5q126 0 236 94.5t135 232.5zM1226 1560h-231l-102 87l-125 -87h-230l387 278z" />
    <glyph glyph-name="Udieresis" unicode="&#xdc;" horiz-adv-x="1214" 
d="M1174 1439h181l-179 -1018q-53 -169 -197 -291q-166 -142 -374 -142q-210 0 -327.5 143.5t-82.5 340.5l170 967h181l-170 -967q-25 -138 52.5 -232.5t204.5 -94.5q126 0 236 94.5t135 232.5zM867.5 1760.5q30.5 -35.5 22.5 -79.5q-8 -46 -51 -81.5t-98 -35.5
q-57 0 -86.5 35.5t-21.5 81.5q8 44 50 79.5t99 35.5q55 0 85.5 -35.5zM1152 1760.5q30 -35.5 22 -79.5q-8 -46 -50.5 -81.5t-98.5 -35.5t-86 35.5t-22 81.5q8 44 50.5 79.5t98.5 35.5t86 -35.5z" />
    <glyph glyph-name="Yacute" unicode="&#xdd;" horiz-adv-x="1233" 
d="M629 582l-343 857h200l268 -666l501 666h200l-645 -857l-103 -582h-181zM1268 1798l-355 -239h-189l250 239h294z" />
    <glyph glyph-name="Thorn" unicode="&#xde;" horiz-adv-x="1019" 
d="M491 1204h231q176 -25 272 -142q120 -145 85 -341q-35 -198 -203 -341.5t-377 -143.5h-178l-42 -236h-181l254 1439h181zM348 393h178q126 0 237 94.5t135 233.5q24 138 -53 232t-203 94h-178z" />
    <glyph glyph-name="germandbls" unicode="&#xdf;" horiz-adv-x="1061" 
d="M745 1216q-80 0 -122.5 -34.5t-54.5 -87.5l-193 -1094h-181l134 758h-84l27 156h84l33 187q26 108 121.5 187t260.5 79q287 -16 244 -267q-22 -123 -153 -215q-102 -71 -111 -122q-5 -44 149 -124q196 -104 161 -304q-29 -166 -144 -254q-118 -93 -244 -93
q-167 0 -259 114l142 118q61 -76 144 -76q47 0 105 43q59 43 77 147q14 125 -130 193q-200 95 -181 230q23 127 160 216q92 59 105 131q16 99 -90 112z" />
    <glyph glyph-name="agrave" unicode="&#xe0;" horiz-adv-x="1188" 
d="M1099 0h-181l28 160q-139 -184 -358 -184q-217 0 -341 150.5t-88 355.5q37 207 214 357t394 150q219 0 293 -182l19 107h181zM990 410l26 146q-1 99 -61 171q-83 102 -217 102q-135 0 -251.5 -100t-142.5 -247q-26 -146 55.5 -245t216.5 -99q134 0 253 101q85 72 121 171
zM771 1273l165 -239h-190l-269 239h294z" />
    <glyph glyph-name="aacute" unicode="&#xe1;" horiz-adv-x="1188" 
d="M1099 0h-181l28 160q-139 -184 -358 -184q-217 0 -341 150.5t-88 355.5q37 207 214 357t394 150q219 0 293 -182l19 107h181zM990 410l26 146q-1 99 -61 171q-83 102 -217 102q-135 0 -251.5 -100t-142.5 -247q-26 -146 55.5 -245t216.5 -99q134 0 253 101q85 72 121 171
zM1146 1273l-356 -239h-189l251 239h294z" />
    <glyph glyph-name="acircumflex" unicode="&#xe2;" horiz-adv-x="1188" 
d="M1099 0h-181l28 160q-139 -184 -358 -184q-217 0 -341 150.5t-88 355.5q37 207 214 357t394 150q219 0 293 -182l19 107h181zM990 410l26 146q-1 99 -61 171q-83 102 -217 102q-135 0 -251.5 -100t-142.5 -247q-26 -146 55.5 -245t216.5 -99q134 0 253 101q85 72 121 171
zM1113 1035h-231l-102 87l-125 -87h-230l387 278z" />
    <glyph glyph-name="atilde" unicode="&#xe3;" horiz-adv-x="1188" 
d="M1099 0h-181l28 160q-139 -184 -358 -184q-217 0 -341 150.5t-88 355.5q37 207 214 357t394 150q219 0 293 -182l19 107h181zM990 410l26 146q-1 99 -61 171q-83 102 -217 102q-135 0 -251.5 -100t-142.5 -247q-26 -146 55.5 -245t216.5 -99q134 0 253 101q85 72 121 171
zM713 1106q-6 -22 -15 -77l-161 36q14 71 28 98q36 70 103 96q24 10 51 10q59 0 125 -55q12 -10 20 -16q5 22 15 75l163 -33q-17 -72 -31 -99q-34 -70 -104 -98q-25 -8 -48 -8q-59 0 -127 55q-11 10 -19 16z" />
    <glyph glyph-name="adieresis" unicode="&#xe4;" horiz-adv-x="1188" 
d="M1099 0h-181l28 160q-139 -184 -358 -184q-217 0 -341 150.5t-88 355.5q37 207 214 357t394 150q219 0 293 -182l19 107h181zM990 410l26 146q-1 99 -61 171q-83 102 -217 102q-135 0 -251.5 -100t-142.5 -247q-26 -146 55.5 -245t216.5 -99q134 0 253 101q85 72 121 171
zM754.5 1235.5q30.5 -35.5 22.5 -79.5q-8 -46 -51 -81.5t-98 -35.5q-57 0 -86.5 35.5t-21.5 81.5q8 44 50 79.5t99 35.5q55 0 85.5 -35.5zM1039 1235.5q30 -35.5 22 -79.5q-8 -46 -50.5 -81.5t-98.5 -35.5t-86 35.5t-22 81.5q8 44 50.5 79.5t98.5 35.5t86 -35.5z" />
    <glyph glyph-name="aring" unicode="&#xe5;" horiz-adv-x="1188" 
d="M990 410l26 146q-1 99 -61 171q-83 102 -217 102q-135 0 -251.5 -100t-142.5 -247q-26 -146 55.5 -245t216.5 -99q134 0 253 101q85 72 121 171zM784 1124q-21 0 -36.5 -13.5t-19.5 -31.5q-3 -17 8.5 -30.5t32.5 -13.5t36.5 13.5t18.5 30.5q4 18 -7.5 31.5t-32.5 13.5z
M1060 807l19 107h181l-161 -914h-181l28 160q-139 -184 -358 -184q-217 0 -341 150.5t-88 355.5q37 207 214 357q125 106 270 137q-37 45 -27 103q11 58 64 103.5t123 45.5q71 0 108 -45.5t26 -103.5q-10 -58 -63 -103q132 -36 186 -169z" />
    <glyph glyph-name="ae" unicode="&#xe6;" horiz-adv-x="1908" 
d="M998 653q-16 42 -43 74q-83 102 -217 102q-135 0 -251.5 -100t-142.5 -247q-26 -146 55.5 -245t216.5 -99q134 0 253 101q38 32 69 74q34 46 52 97l26 146q0 51 -18 97zM1772 643q-5 31 -53 88q-79 98 -213 98q-135 0 -254 -102q-19 -16 -30 -29l-9 -55h559zM1146 267
q6 -12 24 -32q79 -97 214 -97q134 0 249 97q21 18 68 68l160 -61q-49 -64 -108 -113q-179 -153 -397 -153q-206 0 -252 52l-5 -28h-181l28 160q-139 -184 -358 -184q-217 0 -341 150.5t-88 355.5q37 207 214 357t394 150q219 0 293 -182l19 107h181q69 75 275 75
q218 0 339 -148q111 -136 80 -356l-769 1z" />
    <glyph glyph-name="ccedilla" unicode="&#xe7;" horiz-adv-x="1074" 
d="M477 -17q-154 25 -251 144q-125 150 -89 356q37 206 214 356t394 150q219 0 340 -148q28 -34 67 -103l-183 -64q-28 45 -39 59q-80 96 -214 96t-250.5 -99.5t-142.5 -246.5q-25 -146 56 -245.5t215 -99.5t253 101q11 9 55 53l161 -63q-64 -69 -99 -100
q-178 -152 -395 -153v-1q57 -4 80 -81q10 -34 5 -66q-5 -30 -24 -57q-44 -64 -133 -78q-28 -4 -53 -4q-46 0 -78 15q-12 6 -26 14l70 84q14 -8 34 -8q25 0 45 12t23 29q3 16 -13 28t-41 12q-11 0 -20 -2z" />
    <glyph glyph-name="egrave" unicode="&#xe8;" horiz-adv-x="1108" 
d="M383 643h599q-32 186 -266 186q-235 0 -333 -186zM323 485l-1 -3q-26 -146 55.5 -245t216.5 -99q134 0 253 101q17 14 65 63l160 -60q-49 -64 -108 -113q-179 -153 -398 -153q-217 0 -341 150.5t-88 355.5q37 207 214 357t394 150q219 0 344 -152q107 -132 69 -352h-835z
M747 1273l165 -239h-190l-269 239h294z" />
    <glyph glyph-name="eacute" unicode="&#xe9;" horiz-adv-x="1108" 
d="M383 643h599q-32 186 -266 186q-235 0 -333 -186zM323 485l-1 -3q-26 -146 55.5 -245t216.5 -99q134 0 253 101q17 14 65 63l160 -60q-49 -64 -108 -113q-179 -153 -398 -153q-217 0 -341 150.5t-88 355.5q37 207 214 357t394 150q219 0 344 -152q107 -132 69 -352h-835z
M1122 1273l-356 -239h-189l251 239h294z" />
    <glyph glyph-name="ecircumflex" unicode="&#xea;" horiz-adv-x="1108" 
d="M383 643h599q-32 186 -266 186q-235 0 -333 -186zM323 485l-1 -3q-26 -146 55.5 -245t216.5 -99q134 0 253 101q17 14 65 63l160 -60q-49 -64 -108 -113q-179 -153 -398 -153q-217 0 -341 150.5t-88 355.5q37 207 214 357t394 150q219 0 344 -152q107 -132 69 -352h-835z
M1089 1035h-231l-102 87l-125 -87h-230l387 278z" />
    <glyph glyph-name="edieresis" unicode="&#xeb;" horiz-adv-x="1108" 
d="M383 643h599q-32 186 -266 186q-235 0 -333 -186zM323 485l-1 -3q-26 -146 55.5 -245t216.5 -99q134 0 253 101q17 14 65 63l160 -60q-49 -64 -108 -113q-179 -153 -398 -153q-217 0 -341 150.5t-88 355.5q37 207 214 357t394 150q219 0 344 -152q107 -132 69 -352h-835z
M729.5 1235.5q30.5 -35.5 22.5 -79.5q-8 -46 -51 -81.5t-98 -35.5q-57 0 -86.5 35.5t-21.5 81.5q8 44 50 79.5t99 35.5q55 0 85.5 -35.5zM1014 1235.5q30 -35.5 22 -79.5q-8 -46 -50.5 -81.5t-98.5 -35.5t-86 35.5t-22 81.5q8 44 50.5 79.5t98.5 35.5t86 -35.5z" />
    <glyph glyph-name="igrave" unicode="&#xec;" horiz-adv-x="418" 
d="M460 914l-161 -914h-180l161 914h180zM392 1273l166 -239h-190l-270 239h294z" />
    <glyph glyph-name="iacute" unicode="&#xed;" horiz-adv-x="418" 
d="M460 914l-161 -914h-180l161 914h180zM768 1273l-355 -239h-189l250 239h294z" />
    <glyph glyph-name="icircumflex" unicode="&#xee;" horiz-adv-x="418" 
d="M460 914l-161 -914h-180l161 914h180zM735 1035h-231l-102 87l-125 -87h-230l387 278z" />
    <glyph glyph-name="idieresis" unicode="&#xef;" horiz-adv-x="418" 
d="M460 914l-161 -914h-180l161 914h180zM376.5 1235.5q30.5 -35.5 22.5 -79.5q-8 -46 -51 -81.5t-98 -35.5q-57 0 -86.5 35.5t-21.5 81.5q8 44 50 79.5t99 35.5q55 0 85.5 -35.5zM661 1235.5q30 -35.5 22 -79.5q-8 -46 -50.5 -81.5t-98.5 -35.5t-86 35.5t-22 81.5
q8 44 50.5 79.5t98.5 35.5t86 -35.5z" />
    <glyph glyph-name="eth" unicode="&#xf0;" horiz-adv-x="1179" 
d="M342 482q-26 -146 55.5 -245t216.5 -99q134 0 251 99t143 245q26 147 -56 247t-216 100q-135 0 -251.5 -100t-142.5 -247zM819 1168q253 -288 290 -331q120 -148 83 -355q-36 -205 -211.5 -355.5t-394.5 -150.5q-217 0 -341 150.5t-88 355.5q37 207 214 357t361 157
l-51 55l-56 -48l-182 49l137 117l-190 228h238l91 -110l72 61l166 -63z" />
    <glyph glyph-name="ntilde" unicode="&#xf1;" 
d="M400 682l-120 -682h-181l161 914h181q55 50 199 50q173 0 260.5 -106t62.5 -259l-106 -599h-180l104 591q17 93 -35.5 154.5t-133.5 61.5q-80 0 -151 -58q-41 -35 -61 -67zM605 1106q-6 -22 -16 -77l-160 36q14 71 28 98q35 70 103 96q24 10 51 10q59 0 125 -55
q12 -10 20 -16q5 22 14 75l164 -33q-17 -72 -31 -99q-34 -70 -104 -98q-26 -8 -49 -8q-59 0 -126 55q-11 10 -19 16z" />
    <glyph glyph-name="ograve" unicode="&#xf2;" horiz-adv-x="1179" 
d="M765 989q219 0 341.5 -150t85.5 -357q-36 -205 -211.5 -355.5t-394.5 -150.5q-217 0 -341 150.5t-88 355.5q37 207 214 357t394 150zM484.5 729q-116.5 -100 -142.5 -247q-26 -146 55.5 -245t216.5 -99q134 0 251 99t143 245q26 147 -56 247t-216 100q-135 0 -251.5 -100
zM774 1273l165 -239h-190l-269 239h294z" />
    <glyph glyph-name="oacute" unicode="&#xf3;" horiz-adv-x="1179" 
d="M765 989q219 0 341.5 -150t85.5 -357q-36 -205 -211.5 -355.5t-394.5 -150.5q-217 0 -341 150.5t-88 355.5q37 207 214 357t394 150zM484.5 729q-116.5 -100 -142.5 -247q-26 -146 55.5 -245t216.5 -99q134 0 251 99t143 245q26 147 -56 247t-216 100q-135 0 -251.5 -100
zM1149 1273l-356 -239h-189l251 239h294z" />
    <glyph glyph-name="ocircumflex" unicode="&#xf4;" horiz-adv-x="1179" 
d="M765 989q219 0 341.5 -150t85.5 -357q-36 -205 -211.5 -355.5t-394.5 -150.5q-217 0 -341 150.5t-88 355.5q37 207 214 357t394 150zM484.5 729q-116.5 -100 -142.5 -247q-26 -146 55.5 -245t216.5 -99q134 0 251 99t143 245q26 147 -56 247t-216 100q-135 0 -251.5 -100
zM1116 1035h-231l-102 87l-125 -87h-230l387 278z" />
    <glyph glyph-name="otilde" unicode="&#xf5;" horiz-adv-x="1179" 
d="M765 989q219 0 341.5 -150t85.5 -357q-36 -205 -211.5 -355.5t-394.5 -150.5q-217 0 -341 150.5t-88 355.5q37 207 214 357t394 150zM484.5 729q-116.5 -100 -142.5 -247q-26 -146 55.5 -245t216.5 -99q134 0 251 99t143 245q26 147 -56 247t-216 100q-135 0 -251.5 -100
zM717 1106q-6 -22 -15 -77l-161 36q14 71 28 98q36 70 103 96q24 10 51 10q59 0 125 -55q12 -10 20 -16q5 22 15 75l163 -33q-17 -72 -31 -99q-34 -70 -104 -98q-25 -8 -48 -8q-59 0 -127 55q-11 10 -19 16z" />
    <glyph glyph-name="odieresis" unicode="&#xf6;" horiz-adv-x="1179" 
d="M765 989q219 0 341.5 -150t85.5 -357q-36 -205 -211.5 -355.5t-394.5 -150.5q-217 0 -341 150.5t-88 355.5q37 207 214 357t394 150zM484.5 729q-116.5 -100 -142.5 -247q-26 -146 55.5 -245t216.5 -99q134 0 251 99t143 245q26 147 -56 247t-216 100q-135 0 -251.5 -100
zM757.5 1235.5q30.5 -35.5 22.5 -79.5q-8 -46 -51 -81.5t-98 -35.5q-57 0 -86.5 35.5t-21.5 81.5q8 44 50 79.5t99 35.5q55 0 85.5 -35.5zM1042 1235.5q30 -35.5 22 -79.5q-8 -46 -50.5 -81.5t-98.5 -35.5t-86 35.5t-22 81.5q8 44 50.5 79.5t98.5 35.5t86 -35.5z" />
    <glyph glyph-name="divide" unicode="&#xf7;" horiz-adv-x="1138" 
d="M85 609v156h968v-156h-968zM661.5 471.5q36.5 -35.5 36.5 -80.5t-36.5 -80.5t-91.5 -35.5q-56 0 -92.5 35.5t-36.5 80.5t36.5 80.5t92.5 35.5q55 0 91.5 -35.5zM661.5 1064.5q36.5 -35.5 36.5 -80.5t-36.5 -80.5t-91.5 -35.5q-56 0 -92.5 35.5t-36.5 80.5t36.5 80.5
t92.5 35.5q55 0 91.5 -35.5z" />
    <glyph glyph-name="oslash" unicode="&#xf8;" horiz-adv-x="1145" 
d="M810 819q-18 10 -91 10q-135 0 -251.5 -99.5t-142.5 -246.5q-26 -146 54 -244zM945 730l-440 -582q19 -9 92 -9q134 0 251 99t143 245q26 147 -46 247zM262 90q-9 7 -37 39q-121 149 -85 354q37 207 214 357t394 150q123 0 173 -26l136 183l140 -82l-141 -187
q8 -7 36 -40q120 -148 83 -355q-36 -205 -211.5 -355.5t-394.5 -150.5q-124 0 -172 26l-136 -180l-143 73z" />
    <glyph glyph-name="ugrave" unicode="&#xf9;" 
d="M481 -12q-182 0 -269 106t-63 260l99 561h181l-98 -554q-16 -92 38 -156q50 -61 138 -61q80 0 154 62.5t90 154.5l98 554h181l-99 -561q-30 -154 -156 -262q-122 -104 -294 -104zM661 1273l166 -239h-190l-270 239h294z" />
    <glyph glyph-name="uacute" unicode="&#xfa;" 
d="M481 -12q-182 0 -269 106t-63 260l99 561h181l-98 -554q-16 -92 38 -156q50 -61 138 -61q80 0 154 62.5t90 154.5l98 554h181l-99 -561q-30 -154 -156 -262q-122 -104 -294 -104zM1036 1273l-355 -239h-189l250 239h294z" />
    <glyph glyph-name="ucircumflex" unicode="&#xfb;" 
d="M481 -12q-182 0 -269 106t-63 260l99 561h181l-98 -554q-16 -92 38 -156q50 -61 138 -61q80 0 154 62.5t90 154.5l98 554h181l-99 -561q-30 -154 -156 -262q-122 -104 -294 -104zM1004 1035h-231l-101 87l-126 -87h-230l387 278z" />
    <glyph glyph-name="udieresis" unicode="&#xfc;" 
d="M481 -12q-182 0 -269 106t-63 260l99 561h181l-98 -554q-16 -92 38 -156q50 -61 138 -61q80 0 154 62.5t90 154.5l98 554h181l-99 -561q-30 -154 -156 -262q-122 -104 -294 -104zM645 1235.5q30 -35.5 23 -79.5q-9 -46 -51.5 -81.5t-97.5 -35.5q-57 0 -87 35.5t-21 81.5
q7 44 49.5 79.5t99.5 35.5q55 0 85 -35.5zM929.5 1235.5q29.5 -35.5 22.5 -79.5q-9 -46 -51 -81.5t-98 -35.5t-86.5 35.5t-21.5 81.5q7 44 50 79.5t99 35.5t85.5 -35.5z" />
    <glyph glyph-name="yacute" unicode="&#xfd;" horiz-adv-x="896" 
d="M251 -317h-195l328 512l-208 719h195l149 -505l327 505h195zM1007 1273l-355 -239h-189l250 239h294z" />
    <glyph glyph-name="thorn" unicode="&#xfe;" horiz-adv-x="1270" 
d="M409 574l-33 -184q6 -87 64 -156q79 -97 213 -97q135 0 251.5 99.5t142.5 245.5q26 147 -56 247t-216 100t-248 -98q-82 -69 -118 -157zM457 850q129 138 346 138q219 0 342 -149.5t87 -356.5q-37 -205 -213 -355.5t-395 -150.5q-217 0 -298 129l-72 -409h-181l277 1573
h181z" />
    <glyph glyph-name="ydieresis" unicode="&#xff;" horiz-adv-x="896" 
d="M251 -317h-195l328 512l-208 719h195l149 -505l327 505h195zM616 1235.5q30 -35.5 23 -79.5q-8 -46 -51 -81.5t-98 -35.5q-57 0 -86.5 35.5t-21.5 81.5q7 44 49.5 79.5t99.5 35.5q55 0 85 -35.5zM900.5 1235.5q29.5 -35.5 22.5 -79.5q-8 -46 -50.5 -81.5t-98.5 -35.5
t-86 35.5t-22 81.5q7 44 50 79.5t99 35.5t85.5 -35.5z" />
    <glyph glyph-name="Amacron" unicode="&#x100;" horiz-adv-x="1208" 
d="M876 754l-71 382l-206 -382h277zM938 1439l267 -1439h-188l-112 598h-391l-326 -598h-189l782 1439h157zM600 1699h604l-25 -140h-604z" />
    <glyph glyph-name="amacron" unicode="&#x101;" horiz-adv-x="1188" 
d="M1099 0h-181l28 160q-139 -184 -358 -184q-217 0 -341 150.5t-88 355.5q37 207 214 357t394 150q219 0 293 -182l19 107h181zM990 410l26 146q-1 99 -61 171q-83 102 -217 102q-135 0 -251.5 -100t-142.5 -247q-26 -146 55.5 -245t216.5 -99q134 0 253 101q85 72 121 171
zM491 1174h604l-25 -140h-604z" />
    <glyph glyph-name="Abreve" unicode="&#x102;" horiz-adv-x="1208" 
d="M876 754l-71 382l-206 -382h277zM938 1439l267 -1439h-188l-112 598h-391l-326 -598h-189l782 1439h157zM1176 1800q-48 -101 -99 -144q-86 -75 -194 -75q-110 0 -170 75q-36 45 -51 144h168q14 -40 24 -52q21 -25 54 -25q31 0 60 26q15 11 41 51h167z" />
    <glyph glyph-name="abreve" unicode="&#x103;" horiz-adv-x="1188" 
d="M1099 0h-181l28 160q-139 -184 -358 -184q-217 0 -341 150.5t-88 355.5q37 207 214 357t394 150q219 0 293 -182l19 107h181zM990 410l26 146q-1 99 -61 171q-83 102 -217 102q-135 0 -251.5 -100t-142.5 -247q-26 -146 55.5 -245t216.5 -99q134 0 253 101q85 72 121 171
zM1068 1275q-49 -101 -99 -144q-87 -75 -195 -75q-110 0 -169 75q-36 45 -51 144h168q14 -40 24 -52q20 -25 53 -25q31 0 61 26q15 11 41 51h167z" />
    <glyph glyph-name="Aogonek" unicode="&#x104;" horiz-adv-x="1208" 
d="M876 754l-71 382l-206 -382h277zM1028 0h-11l-112 598h-391l-326 -598h-189l782 1439h157l267 -1439h-26q-30 -17 -46 -30.5t-19 -31.5q-3 -17 8 -30.5t32 -13.5q11 0 20 3l-6 -105q-15 -2 -32 -2q-70 0 -107 45t-27 103q6 33 26 62z" />
    <glyph glyph-name="aogonek" unicode="&#x105;" horiz-adv-x="1188" 
d="M990 410l26 146q-1 99 -61 171q-83 102 -217 102q-135 0 -251.5 -100t-142.5 -247q-26 -146 55.5 -245t216.5 -99q134 0 253 101q85 72 121 171zM922 0h-4l28 160q-139 -184 -358 -184q-217 0 -341 150.5t-88 355.5q37 207 214 357t394 150q219 0 293 -182l19 107h181
l-161 -914h-26q-30 -17 -46 -30.5t-19 -31.5q-3 -17 8 -30.5t32 -13.5q10 0 20 3l-6 -105q-16 -2 -32 -2q-70 0 -107 45t-27 103q6 33 26 62z" />
    <glyph glyph-name="Cacute" unicode="&#x106;" horiz-adv-x="1419" 
d="M1286 317l107 -112q-282 -221 -574 -221q-314 0 -492.5 216.5t-125.5 519.5q53 300 308 518t569 218q292 0 496 -222l-146 -112q-167 175 -378 175q-230 0 -427 -167.5t-240 -409.5q-43 -244 95.5 -411t368.5 -167q211 0 439 175zM1368 1798l-356 -239h-189l251 239h294z
" />
    <glyph glyph-name="cacute" unicode="&#x107;" horiz-adv-x="1074" 
d="M902 292l161 -63q-64 -69 -99 -100q-179 -153 -398 -153q-217 0 -341 150.5t-88 356.5q37 206 214 356t394 150q219 0 340 -148q28 -34 67 -103l-183 -64q-28 45 -39 59q-80 96 -214 96t-250.5 -99.5t-142.5 -246.5q-25 -146 56 -245.5t215 -99.5t253 101q11 9 55 53z
M1097 1273l-356 -239h-189l251 239h294z" />
    <glyph glyph-name="Ccircumflex" unicode="&#x108;" horiz-adv-x="1419" 
d="M1286 317l107 -112q-282 -221 -574 -221q-314 0 -492.5 216.5t-125.5 519.5q53 300 308 518t569 218q292 0 496 -222l-146 -112q-167 175 -378 175q-230 0 -427 -167.5t-240 -409.5q-43 -244 95.5 -411t368.5 -167q211 0 439 175zM1335 1560h-231l-102 87l-125 -87h-230
l387 278z" />
    <glyph glyph-name="ccircumflex" unicode="&#x109;" horiz-adv-x="1074" 
d="M902 292l161 -63q-64 -69 -99 -100q-179 -153 -398 -153q-217 0 -341 150.5t-88 356.5q37 206 214 356t394 150q219 0 340 -148q28 -34 67 -103l-183 -64q-28 45 -39 59q-80 96 -214 96t-250.5 -99.5t-142.5 -246.5q-25 -146 56 -245.5t215 -99.5t253 101q11 9 55 53z
M1064 1035h-231l-102 87l-125 -87h-230l387 278z" />
    <glyph glyph-name="Cdotaccent" unicode="&#x10a;" horiz-adv-x="1419" 
d="M1286 317l107 -112q-282 -221 -574 -221q-314 0 -492.5 216.5t-125.5 519.5q53 300 308 518t569 218q292 0 496 -222l-146 -112q-167 175 -378 175q-230 0 -427 -167.5t-240 -409.5q-43 -244 95.5 -411t368.5 -167q211 0 439 175zM1111.5 1770q27.5 -32 20.5 -73
q-7 -40 -46 -72t-90 -32t-78 32t-20 72q7 41 45.5 73t89.5 32t78.5 -32z" />
    <glyph glyph-name="cdotaccent" unicode="&#x10b;" horiz-adv-x="1074" 
d="M902 292l161 -63q-64 -69 -99 -100q-179 -153 -398 -153q-217 0 -341 150.5t-88 356.5q37 206 214 356t394 150q219 0 340 -148q28 -34 67 -103l-183 -64q-28 45 -39 59q-80 96 -214 96t-250.5 -99.5t-142.5 -246.5q-25 -146 56 -245.5t215 -99.5t253 101q11 9 55 53z
M840.5 1245q27.5 -32 20.5 -73q-7 -40 -46 -72t-90 -32t-78 32t-20 72q7 41 45.5 73t89.5 32t78.5 -32z" />
    <glyph glyph-name="Ccaron" unicode="&#x10c;" horiz-adv-x="1419" 
d="M1286 317l107 -112q-282 -221 -574 -221q-314 0 -492.5 216.5t-125.5 519.5q53 300 308 518t569 218q292 0 496 -222l-146 -112q-167 175 -378 175q-230 0 -427 -167.5t-240 -409.5q-43 -244 95.5 -411t368.5 -167q211 0 439 175zM976 1514l-289 277h230l95 -86l132 86
h231z" />
    <glyph glyph-name="ccaron" unicode="&#x10d;" horiz-adv-x="1074" 
d="M902 292l161 -63q-64 -69 -99 -100q-179 -153 -398 -153q-217 0 -341 150.5t-88 356.5q37 206 214 356t394 150q219 0 340 -148q28 -34 67 -103l-183 -64q-28 45 -39 59q-80 96 -214 96t-250.5 -99.5t-142.5 -246.5q-25 -146 56 -245.5t215 -99.5t253 101q11 9 55 53z
M706 989l-290 277h230l95 -86l132 86h231z" />
    <glyph glyph-name="Dcaron" unicode="&#x10e;" horiz-adv-x="1252" 
d="M670 1439q359 -2 524 -203q176 -216 123 -516q-53 -303 -310 -522q-231 -196 -591 -198h-304l254 1439h304zM519 1279l-198 -1120h122q268 0 447 148q199 169 242 413q43 242 -96 413q-127 146 -395 146h-122zM912 1514l-289 277h230l95 -86l132 86h231z" />
    <glyph glyph-name="dcaron" unicode="&#x10f;" horiz-adv-x="1418" 
d="M1099 0h-181l20 110q-131 -134 -350 -134q-217 0 -341 150.5t-88 355.5q37 207 214 357t394 150q219 0 302 -132l103 582h181zM990 410l26 146q-1 99 -61 171q-83 102 -217 102q-135 0 -251.5 -100t-142.5 -247q-26 -146 55.5 -245t216.5 -99q134 0 253 101
q85 72 121 171zM1410 1231l-7 23q-27 33 -19 79q8 45 50 80t98 35q55 0 85.5 -35t22.5 -80q-4 -24 -16 -46l-132 -196h-159z" />
    <glyph glyph-name="Dcroat" unicode="&#x110;" horiz-adv-x="1319" 
d="M437 641l-85 -482h121q269 0 447 148q200 169 243 413q43 242 -97 413q-127 146 -396 146h-121l-84 -481h472l-28 -157h-472zM284 798l113 641h304q359 -2 524 -203q176 -216 123 -516q-53 -303 -310 -522q-231 -196 -591 -198h-304l113 641h-123l28 157h123z" />
    <glyph glyph-name="dcroat" unicode="&#x111;" horiz-adv-x="1206" 
d="M990 410l26 146q-1 99 -61 171q-83 102 -217 102q-135 0 -251.5 -100t-142.5 -247q-26 -146 55.5 -245t216.5 -99q134 0 253 101q85 72 121 171zM1291 1090l-192 -1090h-181l16 90q-127 -114 -346 -114q-217 0 -341 150.5t-88 355.5q37 207 214 357t394 150
q219 0 302 -132l41 233h-294l28 156h294l34 193h181l-34 -193h109l-28 -156h-109z" />
    <glyph glyph-name="Emacron" unicode="&#x112;" horiz-adv-x="1007" 
d="M1149 1439l-28 -157h-602l-85 -484h602l-28 -157h-602l-85 -484h602l-28 -157h-783l254 1439h783zM501 1699h604l-25 -140h-604z" />
    <glyph glyph-name="emacron" unicode="&#x113;" horiz-adv-x="1108" 
d="M383 643h599q-32 186 -266 186q-235 0 -333 -186zM323 485l-1 -3q-26 -146 55.5 -245t216.5 -99q134 0 253 101q17 14 65 63l160 -60q-49 -64 -108 -113q-179 -153 -398 -153q-217 0 -341 150.5t-88 355.5q37 207 214 357t394 150q219 0 344 -152q107 -132 69 -352h-835z
M467 1174h604l-25 -140h-604z" />
    <glyph glyph-name="Ebreve" unicode="&#x114;" horiz-adv-x="1007" 
d="M1149 1439l-28 -157h-602l-85 -484h602l-28 -157h-602l-85 -484h602l-28 -157h-783l254 1439h783zM1078 1800q-48 -101 -99 -144q-86 -75 -194 -75q-110 0 -170 75q-36 45 -51 144h168q14 -40 24 -52q21 -25 54 -25q31 0 60 26q15 11 41 51h167z" />
    <glyph glyph-name="ebreve" unicode="&#x115;" horiz-adv-x="1108" 
d="M383 643h599q-32 186 -266 186q-235 0 -333 -186zM323 485l-1 -3q-26 -146 55.5 -245t216.5 -99q134 0 253 101q17 14 65 63l160 -60q-49 -64 -108 -113q-179 -153 -398 -153q-217 0 -341 150.5t-88 355.5q37 207 214 357t394 150q219 0 344 -152q107 -132 69 -352h-835z
M1044 1275q-49 -101 -99 -144q-87 -75 -195 -75q-110 0 -169 75q-36 45 -51 144h168q14 -40 24 -52q20 -25 53 -25q31 0 61 26q15 11 41 51h167z" />
    <glyph glyph-name="Edotaccent" unicode="&#x116;" horiz-adv-x="1007" 
d="M1149 1439l-28 -157h-602l-85 -484h602l-28 -157h-602l-85 -484h602l-28 -157h-783l254 1439h783zM900 1770q27 -32 20 -73q-7 -40 -45.5 -72t-89.5 -32t-78.5 32t-20.5 72q7 41 46 73t90 32t78 -32z" />
    <glyph glyph-name="edotaccent" unicode="&#x117;" horiz-adv-x="1108" 
d="M383 643h599q-32 186 -266 186q-235 0 -333 -186zM323 485l-1 -3q-26 -146 55.5 -245t216.5 -99q134 0 253 101q17 14 65 63l160 -60q-49 -64 -108 -113q-179 -153 -398 -153q-217 0 -341 150.5t-88 355.5q37 207 214 357t394 150q219 0 344 -152q107 -132 69 -352h-835z
M865.5 1245q27.5 -32 20.5 -73q-7 -40 -46 -72t-90 -32t-78 32t-20 72q7 41 45.5 73t89.5 32t78.5 -32z" />
    <glyph glyph-name="Eogonek" unicode="&#x118;" horiz-adv-x="1007" 
d="M718 0h-606l254 1439h783l-28 -157h-602l-85 -484h602l-28 -157h-602l-85 -484h602l-28 -157h-26q-30 -17 -46 -30.5t-19 -31.5q-3 -17 8 -30.5t32 -13.5q10 0 20 3l-6 -105q-16 -2 -32 -2q-70 0 -107 45t-27 103q6 33 26 62z" />
    <glyph glyph-name="eogonek" unicode="&#x119;" horiz-adv-x="1108" 
d="M383 643h599q-32 186 -266 186q-235 0 -333 -186zM700 -9q-65 -15 -134 -15q-217 0 -341 150.5t-88 355.5q37 207 214 357t394 150q219 0 344 -152q107 -132 69 -352h-835l-1 -3q-26 -146 55.5 -245t216.5 -99q134 0 253 101q17 14 65 63l160 -60q-49 -64 -108 -113
q-42 -36 -86 -63q-30 -15 -46 -28.5t-19 -31.5q-3 -17 8 -30.5t32 -13.5q10 0 20 3l-6 -105q-15 -2 -32 -2q-70 0 -107 45q-32 39 -28 88z" />
    <glyph glyph-name="Ecaron" unicode="&#x11a;" horiz-adv-x="1007" 
d="M1149 1439l-28 -157h-602l-85 -484h602l-28 -157h-602l-85 -484h602l-28 -157h-783l254 1439h783zM764 1514l-289 277h230l95 -86l132 86h231z" />
    <glyph glyph-name="ecaron" unicode="&#x11b;" horiz-adv-x="1108" 
d="M383 643h599q-32 186 -266 186q-235 0 -333 -186zM323 485l-1 -3q-26 -146 55.5 -245t216.5 -99q134 0 253 101q17 14 65 63l160 -60q-49 -64 -108 -113q-179 -153 -398 -153q-217 0 -341 150.5t-88 355.5q37 207 214 357t394 150q219 0 344 -152q107 -132 69 -352h-835z
M731 989l-290 277h230l95 -86l132 86h231z" />
    <glyph glyph-name="Gcircumflex" unicode="&#x11c;" horiz-adv-x="1431" 
d="M1370 196q-258 -212 -551 -212q-314 0 -492.5 216.5t-125.5 519.5q53 300 308 518t569 218q292 0 496 -222l-146 -112q-167 175 -378 175q-230 0 -427 -167.5t-240 -409.5q-43 -244 95.5 -411t368.5 -167q197 0 353 110l77 438h180zM1335 1560h-231l-102 87l-125 -87
h-230l387 278z" />
    <glyph glyph-name="gcircumflex" unicode="&#x11d;" horiz-adv-x="1149" 
d="M994 559q-3 97 -64 172q-80 98 -214 98q-135 0 -251.5 -100t-142.5 -247q-26 -146 55.5 -245.5t216.5 -99.5q134 0 253 101q82 70 119 166zM910 155q-125 -179 -344 -179q-217 0 -341 150.5t-88 355.5q37 207 213.5 356.5t393.5 149.5q218 0 294 -181l19 107h181
l-121 -688q-35 -201 -206 -345q-179 -153 -397 -153t-341 149q-27 35 -67 104l184 63q27 -44 39 -56q80 -98 214 -98q283 0 367 265zM1091 1035h-231l-102 87l-125 -87h-230l387 278z" />
    <glyph glyph-name="Gbreve" unicode="&#x11e;" horiz-adv-x="1431" 
d="M1370 196q-258 -212 -551 -212q-314 0 -492.5 216.5t-125.5 519.5q53 300 308 518t569 218q292 0 496 -222l-146 -112q-167 175 -378 175q-230 0 -427 -167.5t-240 -409.5q-43 -244 95.5 -411t368.5 -167q197 0 353 110l77 438h180zM1290 1800q-49 -101 -100 -144
q-86 -75 -194 -75q-110 0 -170 75q-36 45 -50 144h168q14 -40 24 -52q20 -25 53 -25q31 0 61 26q15 11 41 51h167z" />
    <glyph glyph-name="gbreve" unicode="&#x11f;" horiz-adv-x="1149" 
d="M994 559q-3 97 -64 172q-80 98 -214 98q-135 0 -251.5 -100t-142.5 -247q-26 -146 55.5 -245.5t216.5 -99.5q134 0 253 101q82 70 119 166zM910 155q-125 -179 -344 -179q-217 0 -341 150.5t-88 355.5q37 207 213.5 356.5t393.5 149.5q218 0 294 -181l19 107h181
l-121 -688q-35 -201 -206 -345q-179 -153 -397 -153t-341 149q-27 35 -67 104l184 63q27 -44 39 -56q80 -98 214 -98q283 0 367 265zM1046 1275q-49 -101 -99 -144q-87 -75 -195 -75q-110 0 -169 75q-36 45 -51 144h168q14 -40 24 -52q20 -25 53 -25q31 0 61 26q15 11 41 51
h167z" />
    <glyph glyph-name="Gdotaccent" unicode="&#x120;" horiz-adv-x="1431" 
d="M1370 196q-258 -212 -551 -212q-314 0 -492.5 216.5t-125.5 519.5q53 300 308 518t569 218q292 0 496 -222l-146 -112q-167 175 -378 175q-230 0 -427 -167.5t-240 -409.5q-43 -244 95.5 -411t368.5 -167q197 0 353 110l77 438h180zM1111.5 1770q27.5 -32 20.5 -73
q-7 -40 -46 -72t-90 -32t-78 32t-20 72q7 41 45.5 73t89.5 32t78.5 -32z" />
    <glyph glyph-name="gdotaccent" unicode="&#x121;" horiz-adv-x="1149" 
d="M994 559q-3 97 -64 172q-80 98 -214 98q-135 0 -251.5 -100t-142.5 -247q-26 -146 55.5 -245.5t216.5 -99.5q134 0 253 101q82 70 119 166zM910 155q-125 -179 -344 -179q-217 0 -341 150.5t-88 355.5q37 207 213.5 356.5t393.5 149.5q218 0 294 -181l19 107h181
l-121 -688q-35 -201 -206 -345q-179 -153 -397 -153t-341 149q-27 35 -67 104l184 63q27 -44 39 -56q80 -98 214 -98q283 0 367 265zM868.5 1245q27.5 -32 20.5 -73q-7 -40 -46 -72t-90 -32t-78 32t-20 72q7 41 45.5 73t89.5 32t78.5 -32z" />
    <glyph glyph-name="Gcommaaccent" unicode="&#x122;" horiz-adv-x="1431" 
d="M720 -10q-244 29 -393 211q-179 216 -126 519q53 300 308 518t569 218q292 0 496 -222l-146 -112q-167 175 -378 175q-230 0 -427 -167.5t-240 -409.5q-43 -244 95.5 -411t368.5 -167q197 0 353 110l77 438h180l-87 -494q-258 -212 -551 -212h-5l-5 -9q57 -4 81 -81
q10 -34 4 -66q-5 -30 -24 -57q-43 -64 -133 -78q-27 -4 -52 -4q-46 0 -79 15q-12 6 -25 14l70 84q13 -8 33 -8q25 0 45 12t23 29q3 16 -13 28t-41 12q-11 0 -20 -2z" />
    <glyph glyph-name="gcommaaccent" unicode="&#x123;" horiz-adv-x="1149" 
d="M994 559q-3 97 -64 172q-80 98 -214 98q-135 0 -251.5 -100t-142.5 -247q-26 -146 55.5 -245.5t216.5 -99.5q134 0 253 101q82 70 119 166zM910 155q-125 -179 -344 -179q-217 0 -341 150.5t-88 355.5q37 207 213.5 356.5t393.5 149.5q218 0 294 -181l19 107h181
l-121 -688q-35 -201 -206 -345q-179 -153 -397 -153t-341 149q-27 35 -67 104l184 63q27 -44 39 -56q80 -98 214 -98q283 0 367 265zM869 1254l6 -23q28 -33 20 -79q-8 -45 -50.5 -80t-98.5 -35q-55 0 -85.5 35t-22.5 80q5 24 17 46l132 196h159z" />
    <glyph glyph-name="Hcircumflex" unicode="&#x124;" horiz-adv-x="1141" 
d="M388 641l-113 -641h-181l254 1439h181l-113 -641h591l113 641h181l-254 -1439h-181l113 641h-591zM1189 1560h-231l-102 87l-125 -87h-230l387 278z" />
    <glyph glyph-name="hcircumflex" unicode="&#x125;" horiz-adv-x="936" 
d="M348 1439h181l-93 -525q55 50 199 50q173 0 260.5 -106t62.5 -259l-106 -599h-180l104 591q17 93 -35.5 154.5t-133.5 61.5q-80 0 -151 -58q-41 -35 -61 -67l-120 -682h-181zM1071 1441h-231l-102 87l-125 -87h-230l387 278z" />
    <glyph glyph-name="Hbar" unicode="&#x126;" horiz-adv-x="1134" 
d="M1235 1090l-192 -1090h-180l113 641h-592l-113 -641h-180l192 1090h-80l28 156h80l34 193h180l-34 -193h592l34 193h180l-34 -193h80l-28 -156h-80zM463 1090l-51 -292h592l51 292h-592z" />
    <glyph glyph-name="hbar" unicode="&#x127;" horiz-adv-x="912" 
d="M300 1246l34 193h181l-34 -193h186l-28 -156h-186l-34 -194q31 68 192 68q172 0 259.5 -106t63.5 -259l-106 -599h-181l104 591q17 93 -35.5 154.5t-132.5 61.5q-81 0 -151 -58q-34 -28 -48 -52l-123 -697h-181l192 1090h-96l28 156h96z" />
    <glyph glyph-name="Itilde" unicode="&#x128;" horiz-adv-x="425" 
d="M557 1439l-254 -1439h-181l254 1439h181zM432 1631q-6 -22 -16 -77l-161 36q15 71 29 98q35 70 103 96q23 10 50 10q59 0 126 -55q12 -10 20 -16q5 22 14 75l163 -33q-16 -72 -30 -99q-35 -70 -105 -98q-25 -8 -48 -8q-59 0 -126 55q-11 10 -19 16z" />
    <glyph glyph-name="itilde" unicode="&#x129;" horiz-adv-x="418" 
d="M460 914l-161 -914h-180l161 914h180zM336 1106q-6 -22 -16 -77l-160 36q14 71 28 98q35 70 103 96q24 10 51 10q59 0 125 -55q12 -10 20 -16q5 22 14 75l164 -33q-17 -72 -31 -99q-34 -70 -104 -98q-26 -8 -49 -8q-59 0 -126 55q-11 10 -19 16z" />
    <glyph glyph-name="Imacron" unicode="&#x12a;" horiz-adv-x="425" 
d="M557 1439l-254 -1439h-181l254 1439h181zM210 1699h604l-25 -140h-604z" />
    <glyph glyph-name="imacron" unicode="&#x12b;" horiz-adv-x="418" 
d="M460 914l-161 -914h-180l161 914h180zM114 1174h604l-25 -140h-604z" />
    <glyph glyph-name="Ibreve" unicode="&#x12c;" horiz-adv-x="425" 
d="M557 1439l-254 -1439h-181l254 1439h181zM787 1800q-48 -101 -99 -144q-86 -75 -194 -75q-110 0 -170 75q-36 45 -51 144h168q14 -40 24 -52q21 -25 54 -25q31 0 60 26q15 11 41 51h167z" />
    <glyph glyph-name="ibreve" unicode="&#x12d;" horiz-adv-x="418" 
d="M460 914l-161 -914h-180l161 914h180zM691 1275q-49 -101 -100 -144q-86 -75 -194 -75q-110 0 -170 75q-36 45 -50 144h168q14 -40 24 -52q20 -25 53 -25q31 0 61 26q15 11 41 51h167z" />
    <glyph glyph-name="Iogonek" unicode="&#x12e;" horiz-adv-x="425" 
d="M126 0h-4l254 1439h181l-254 -1439h-26q-30 -17 -46 -30.5t-19 -31.5q-3 -17 8 -30.5t32 -13.5q10 0 20 3l-6 -105q-15 -2 -32 -2q-70 0 -107 45t-27 103q6 33 26 62z" />
    <glyph glyph-name="iogonek" unicode="&#x12f;" horiz-adv-x="415" 
d="M506 1174.5q30 -35.5 23 -79.5q-8 -46 -51 -81.5t-98 -35.5q-57 0 -86.5 35.5t-21.5 81.5q7 44 49.5 79.5t99.5 35.5q55 0 85 -35.5zM130 0h-13l161 914h180l-161 -914h-31q-10 -3 -18 -10q-17 -14 -20 -32q-3 -17 8 -30.5t32 -13.5q10 0 20 3l-6 -105q-16 -2 -32 -2
q-70 0 -107 45t-27 103q4 22 14 42z" />
    <glyph glyph-name="Idotaccent" unicode="&#x130;" horiz-adv-x="425" 
d="M557 1439l-254 -1439h-181l254 1439h181zM609 1770q27 -32 20 -73q-7 -40 -45.5 -72t-89.5 -32t-78.5 32t-20.5 72q7 41 46 73t90 32t78 -32z" />
    <glyph glyph-name="dotlessi" unicode="&#x131;" horiz-adv-x="418" 
d="M460 914l-161 -914h-180l161 914h180z" />
    <glyph glyph-name="IJ" unicode="&#x132;" horiz-adv-x="825" 
d="M557 1439l-254 -1439h-181l254 1439h181zM713 14q-20 -117 -118.5 -197.5t-277.5 -80.5l27 150q97 0 136 32q42 36 54 106l250 1415h181z" />
    <glyph glyph-name="ij" unicode="&#x133;" horiz-adv-x="794" 
d="M458 914l-161 -914h-180l161 914h180zM506.5 1174.5q30.5 -35.5 22.5 -79.5q-8 -46 -51 -81.5t-98 -35.5q-57 0 -86.5 35.5t-21.5 81.5q8 44 50 79.5t99 35.5q55 0 85.5 -35.5zM396 -43q106 12 118 81l154 876h180l-154 -874q-37 -208 -324 -231zM896 1174.5
q30 -35.5 22 -79.5q-8 -46 -50.5 -81.5t-98.5 -35.5t-86 35.5t-22 81.5q8 44 50.5 79.5t98.5 35.5t86 -35.5z" />
    <glyph glyph-name="Jcircumflex" unicode="&#x134;" horiz-adv-x="529" 
d="M355 14q-20 -117 -118.5 -201t-278.5 -84l28 157q97 0 135 32q43 36 55 106l250 1415h181zM889 1520h-231l-102 86l-125 -86h-230l387 277z" />
    <glyph glyph-name="jcircumflex" unicode="&#x135;" horiz-adv-x="507" 
d="M45 -43q104 12 117 81l154 876h180l-154 -874q-38 -215 -324 -238zM769 1032h-231l-102 86l-125 -86h-230l387 277z" />
    <glyph glyph-name="Kcommaaccent" unicode="&#x136;" horiz-adv-x="1102" 
d="M1128 1439l-477 -550l465 -889h-211l-387 741l-118 -135l-107 -606h-181l254 1439h181l-94 -532l465 532h210zM427 32q146 0 183 -34q45 -42 35 -99l-2 -10q-17 -64 -97 -116q-70 -36 -139 -36q-38 0 -121 23l68 132q68 -28 82 -28t26 6q9 5 13 17l1 3q0 4 -1 6t-72 3z
" />
    <glyph glyph-name="kcommaaccent" unicode="&#x137;" horiz-adv-x="744" 
d="M811 914l-292 -298l239 -616h-207l-175 472l-16 -17l-80 -455h-181l224 1269h181l-96 -541l184 186h219zM331 32q145 0 182 -34q46 -42 36 -99l-2 -10q-18 -64 -98 -116q-69 -36 -139 -36q-38 0 -120 23l67 132q68 -28 82 -28q15 0 27 6q8 5 13 17l1 3q0 4 -1 6
q-2 2 -72 3z" />
    <glyph glyph-name="kgreenlandic" unicode="&#x138;" horiz-adv-x="744" 
d="M811 914l-292 -298l239 -616h-207l-175 472l-16 -17l-80 -455h-181l161 914h181l-33 -186l184 186h219z" />
    <glyph glyph-name="Lacute" unicode="&#x139;" horiz-adv-x="862" 
d="M112 0l254 1439h181l-226 -1282h517l-28 -157h-698zM1113 1798l-355 -239h-189l250 239h294z" />
    <glyph glyph-name="lacute" unicode="&#x13a;" horiz-adv-x="401" 
d="M545 1439l-254 -1439h-181l254 1439h181zM754 1719l-355 -239h-189l250 239h294z" />
    <glyph glyph-name="Lcommaaccent" unicode="&#x13b;" horiz-adv-x="862" 
d="M112 0l254 1439h181l-226 -1282h517l-28 -157h-698zM324 -8q146 0 183 -34q45 -42 35 -99l-2 -10q-17 -64 -97 -116q-70 -36 -139 -36q-38 0 -121 23l68 132q68 -28 82 -28t26 6q9 5 13 17l1 3q0 4 -1 6t-72 3z" />
    <glyph glyph-name="lcommaaccent" unicode="&#x13c;" horiz-adv-x="379" 
d="M539 1439l-254 -1439h-181l254 1439h181zM112 -18q145 0 182 -34q47 -42 37 -99l-2 -10q-19 -64 -99 -116q-69 -36 -138 -36q-39 0 -121 23l67 132q68 -28 82 -28q15 0 27 6q8 5 13 17l1 3q1 4 -1 6t-71 3z" />
    <glyph glyph-name="Lcaron" unicode="&#x13d;" horiz-adv-x="862" 
d="M112 0l254 1439h181l-226 -1282h517l-28 -157h-698zM774 1231l-6 23q-28 33 -20 79q8 45 50.5 80t98.5 35q55 0 85.5 -35t22.5 -80q-4 -24 -16 -46l-133 -196h-159z" />
    <glyph glyph-name="lcaron" unicode="&#x13e;" horiz-adv-x="636" 
d="M547 1439l-254 -1439h-181l254 1439h181zM634 1231l-6 23q-28 33 -20 79q8 45 50.5 80t98.5 35q55 0 85.5 -35t22.5 -80q-4 -24 -16 -46l-133 -196h-159z" />
    <glyph glyph-name="Ldot" unicode="&#x13f;" horiz-adv-x="862" 
d="M112 0l254 1439h181l-226 -1282h517l-28 -157h-698zM878.5 792q27.5 -32 20.5 -72q-7 -41 -46 -73t-89 -32q-52 0 -79 32t-20 73q7 40 45.5 72t90.5 32q50 0 77.5 -32z" />
    <glyph glyph-name="ldot" unicode="&#x140;" horiz-adv-x="618" 
d="M534 1439l-254 -1439h-181l254 1439h181zM712 792q27 -32 20 -72q-7 -41 -45.5 -73t-89.5 -32t-78 32t-20 73q7 40 45.5 72t89.5 32t78 -32z" />
    <glyph glyph-name="Lslash" unicode="&#x141;" horiz-adv-x="942" 
d="M518 809l442 315l-37 -206l-441 -315l-79 -446h517l-28 -157h-698l81 455l-222 -157l36 205l222 158l137 778h181z" />
    <glyph glyph-name="lslash" unicode="&#x142;" horiz-adv-x="465" 
d="M273 740l123 699h181l-97 -552l163 117l-37 -206l-162 -117l-121 -681h-181l95 534l-163 -117l36 206z" />
    <glyph glyph-name="Nacute" unicode="&#x143;" horiz-adv-x="1398" 
d="M542 1439l617 -1150l203 1150h181l-254 -1439h-200l-601 1121l-198 -1121h-181l254 1439h179zM1351 1798l-355 -239h-189l250 239h294z" />
    <glyph glyph-name="nacute" unicode="&#x144;" 
d="M400 682l-120 -682h-181l161 914h181q55 50 199 50q173 0 260.5 -106t62.5 -259l-106 -599h-180l104 591q17 93 -35.5 154.5t-133.5 61.5q-80 0 -151 -58q-41 -35 -61 -67zM1036 1273l-355 -239h-189l250 239h294z" />
    <glyph glyph-name="Ncommaaccent" unicode="&#x145;" horiz-adv-x="1398" 
d="M542 1439l617 -1150l203 1150h181l-254 -1439h-200l-601 1121l-198 -1121h-181l254 1439h179zM594 32q145 0 183 -34q45 -42 35 -99l-2 -10q-17 -64 -97 -116q-70 -36 -139 -36q-38 0 -121 23l68 132q68 -28 82 -28t26 6q8 5 13 17l1 3q0 4 -1 6t-72 3z" />
    <glyph glyph-name="ncommaaccent" unicode="&#x146;" 
d="M400 682l-120 -682h-181l161 914h181q55 50 199 50q173 0 260.5 -106t62.5 -259l-106 -599h-180l104 591q17 93 -35.5 154.5t-133.5 61.5q-80 0 -151 -58q-41 -35 -61 -67zM409 32q146 0 183 -34q45 -42 35 -99l-2 -10q-17 -64 -97 -116q-70 -36 -139 -36q-38 0 -121 23
l68 132q68 -28 82 -28t26 6q9 5 13 17l1 3q0 4 -1 6t-72 3z" />
    <glyph glyph-name="Ncaron" unicode="&#x147;" horiz-adv-x="1398" 
d="M542 1439l617 -1150l203 1150h181l-254 -1439h-200l-601 1121l-198 -1121h-181l254 1439h179zM960 1514l-289 277h230l95 -86l132 86h231z" />
    <glyph glyph-name="ncaron" unicode="&#x148;" 
d="M400 682l-120 -682h-181l161 914h181q55 50 199 50q173 0 260.5 -106t62.5 -259l-106 -599h-180l104 591q17 93 -35.5 154.5t-133.5 61.5q-80 0 -151 -58q-41 -35 -61 -67zM646 989l-289 277h230l95 -86l132 86h231z" />
    <glyph glyph-name="napostrophe" unicode="&#x149;" horiz-adv-x="1168" 
d="M612 682l-120 -682h-181l161 914h181q55 50 198 50q173 0 260 -106t63 -259l-105 -599h-180l104 591q16 93 -36.5 154.5t-133.5 61.5q-80 0 -150 -58q-42 -35 -61 -67zM281 1231l-6 23q-28 33 -20 79q8 45 50.5 80t98.5 35q55 0 85.5 -35t22.5 -80q-5 -24 -16 -46
l-133 -196h-159z" />
    <glyph glyph-name="Eng" unicode="&#x14a;" horiz-adv-x="1229" 
d="M959 111l-488 913l-181 -1024h-181l278 1576l624 -1166l182 1029h181l-255 -1447q-21 -117 -119.5 -201t-278.5 -84l28 157q98 0 136 32q42 36 54 106z" />
    <glyph glyph-name="eng" unicode="&#x14b;" horiz-adv-x="962" 
d="M784 591q17 93 -35.5 154.5t-133.5 61.5q-80 0 -151 -58q-41 -35 -61 -67l-120 -682h-181l161 914h181q35 50 199 50q173 0 260.5 -106t62.5 -259l-71 -403h1l-36 -204q-21 -117 -119.5 -201t-278.5 -84l28 157q97 0 136 32q42 36 54 106z" />
    <glyph glyph-name="Omacron" unicode="&#x14c;" horiz-adv-x="1621" 
d="M1560.5 1241q179.5 -218 125.5 -519q-53 -303 -309 -520.5t-570 -217.5q-313 0 -492 217.5t-126 520.5q54 301 309.5 519t568.5 218q314 0 493.5 -218zM1040 1301q-230 0 -428 -168.5t-241 -410.5q-43 -244 95.5 -412t368.5 -168q231 0 428.5 168t240.5 412
q43 242 -95 410.5t-369 168.5zM808 1699h604l-25 -140h-604z" />
    <glyph glyph-name="omacron" unicode="&#x14d;" horiz-adv-x="1179" 
d="M765 989q219 0 341.5 -150t85.5 -357q-36 -205 -211.5 -355.5t-394.5 -150.5q-217 0 -341 150.5t-88 355.5q37 207 214 357t394 150zM484.5 729q-116.5 -100 -142.5 -247q-26 -146 55.5 -245t216.5 -99q134 0 251 99t143 245q26 147 -56 247t-216 100q-135 0 -251.5 -100
zM495 1174h604l-25 -140h-604z" />
    <glyph glyph-name="Obreve" unicode="&#x14e;" horiz-adv-x="1621" 
d="M1560.5 1241q179.5 -218 125.5 -519q-53 -303 -309 -520.5t-570 -217.5q-313 0 -492 217.5t-126 520.5q54 301 309.5 519t568.5 218q314 0 493.5 -218zM1040 1301q-230 0 -428 -168.5t-241 -410.5q-43 -244 95.5 -412t368.5 -168q231 0 428.5 168t240.5 412
q43 242 -95 410.5t-369 168.5zM1386 1800q-49 -101 -100 -144q-86 -75 -194 -75q-110 0 -170 75q-36 45 -50 144h168q13 -40 23 -52q21 -25 54 -25q31 0 61 26q14 11 41 51h167z" />
    <glyph glyph-name="obreve" unicode="&#x14f;" horiz-adv-x="1179" 
d="M765 989q219 0 341.5 -150t85.5 -357q-36 -205 -211.5 -355.5t-394.5 -150.5q-217 0 -341 150.5t-88 355.5q37 207 214 357t394 150zM484.5 729q-116.5 -100 -142.5 -247q-26 -146 55.5 -245t216.5 -99q134 0 251 99t143 245q26 147 -56 247t-216 100q-135 0 -251.5 -100
zM1072 1275q-49 -101 -99 -144q-87 -75 -195 -75q-110 0 -169 75q-36 45 -51 144h168q14 -40 24 -52q20 -25 53 -25q31 0 61 26q15 11 41 51h167z" />
    <glyph glyph-name="Ohungarumlaut" unicode="&#x150;" horiz-adv-x="1621" 
d="M1560.5 1241q179.5 -218 125.5 -519q-53 -303 -309 -520.5t-570 -217.5q-313 0 -492 217.5t-126 520.5q54 301 309.5 519t568.5 218q314 0 493.5 -218zM1040 1301q-230 0 -428 -168.5t-241 -410.5q-43 -244 95.5 -412t368.5 -168q231 0 428.5 168t240.5 412
q43 242 -95 410.5t-369 168.5zM1226 1791l-355 -238h-189l250 238h294zM1530 1791l-354 -238h-190l250 238h294z" />
    <glyph glyph-name="ohungarumlaut" unicode="&#x151;" horiz-adv-x="1179" 
d="M765 989q219 0 341.5 -150t85.5 -357q-36 -205 -211.5 -355.5t-394.5 -150.5q-217 0 -341 150.5t-88 355.5q37 207 214 357t394 150zM484.5 729q-116.5 -100 -142.5 -247q-26 -146 55.5 -245t216.5 -99q134 0 251 99t143 245q26 147 -56 247t-216 100q-135 0 -251.5 -100
zM912 1266l-355 -238h-189l250 238h294zM1216 1266l-354 -238h-190l250 238h294z" />
    <glyph glyph-name="OE" unicode="&#x152;" horiz-adv-x="2044" 
d="M1568 1282l21 -43q166 -203 134 -441h374l-28 -157h-374q-54 -237 -294 -441l-33 -43h616l-28 -157h-895q-106 -16 -228 -16q-313 0 -492 217.5t-126 520.5q54 301 309.5 519t568.5 218q123 0 223 -20h894l-28 -157h-614zM1536 757q26 220 -103 379q-50 60 -112 98
q-31 18 -65 32q-83 35 -190 35q-230 0 -428 -168.5t-241 -410.5q-43 -244 95.5 -412t368.5 -168q107 0 204 33q37 14 75 32q74 39 152 104q180 153 231 372q4 18 7 39q3 17 6 35z" />
    <glyph glyph-name="oe" unicode="&#x153;" horiz-adv-x="1862" 
d="M336 482q-26 -146 55.5 -245t216.5 -99q134 0 251 99t143 245q26 147 -56 247t-216 100q-135 0 -251.5 -100t-142.5 -247zM1177 699q12 -33 14 -56h535q-4 31 -48 84q-84 102 -218 102t-248 -98q-27 -23 -35 -32zM1101 266q5 -8 19 -27q84 -101 218 -101t254 101
q16 14 65 63l158 -60q-49 -64 -112 -117q-175 -149 -393 -149t-341 143q-170 -143 -389 -143q-217 0 -341 150.5t-88 355.5q37 207 214 357t394 150q219 0 337 -148q175 148 393 148t344 -152q107 -132 75 -352l-719 1v9q-1 0 -3 -13q-22 -127 -85 -216z" />
    <glyph glyph-name="Racute" unicode="&#x154;" horiz-adv-x="1041" 
d="M519 1281l-115 -652h178q126 0 236.5 93.5t135.5 233.5q24 139 -53.5 232t-203.5 93h-178zM545 471h-169l-83 -471h-181l254 1439h412q176 -24 275 -146q116 -141 82 -337q-35 -197 -206 -342q-113 -97 -190 -115l235 -499h-209zM1195 1798l-355 -239h-189l250 239h294z
" />
    <glyph glyph-name="racute" unicode="&#x155;" horiz-adv-x="570" 
d="M655 778q-127 -19 -209 -98.5t-103 -199.5l-85 -480h-181l161 914h181l-23 -130q59 107 199 149zM856 1273l-355 -239h-189l250 239h294z" />
    <glyph glyph-name="Rcommaaccent" unicode="&#x156;" horiz-adv-x="1041" 
d="M519 1281l-115 -652h178q126 0 236.5 93.5t135.5 233.5q24 139 -53.5 232t-203.5 93h-178zM547 469l-171 2l-83 -471h-181l254 1439h412q176 -24 275 -146q116 -141 82 -337q-35 -197 -206 -342q-113 -97 -190 -115l235 -499h-209zM402 32q146 0 183 -34q45 -42 35 -99
l-2 -10q-17 -64 -97 -116q-70 -36 -139 -36q-38 0 -121 23l68 132q68 -28 82 -28t26 6q9 5 13 17l1 3q0 4 -1 6t-72 3z" />
    <glyph glyph-name="rcommaaccent" unicode="&#x157;" horiz-adv-x="570" 
d="M655 778q-127 -19 -209 -98.5t-104 -199.5l-84 -480h-181l161 914h181l-23 -130q59 107 198 149zM163 -16q145 0 183 -34q46 -42 36 -99l-2 -10q-18 -64 -98 -116q-70 -36 -139 -36q-38 0 -121 23l68 132q68 -28 82 -28t26 6q8 5 13 17l1 3q1 4 -1 6q-1 2 -71 3z" />
    <glyph glyph-name="Rcaron" unicode="&#x158;" horiz-adv-x="1041" 
d="M519 1281l-115 -652h178q126 0 236.5 93.5t135.5 233.5q24 139 -53.5 232t-203.5 93h-178zM545 471h-169l-83 -471h-181l254 1439h412q176 -24 275 -146q116 -141 82 -337q-35 -197 -206 -342q-113 -97 -190 -115l235 -499h-209zM804 1514l-289 277h230l95 -86l132 86
h231z" />
    <glyph glyph-name="rcaron" unicode="&#x159;" horiz-adv-x="570" 
d="M655 778q-127 -19 -209 -98.5t-103 -199.5l-85 -480h-181l161 914h181l-23 -130q59 107 199 149zM465 989l-289 277h230l95 -86l132 86h231z" />
    <glyph glyph-name="Sacute" unicode="&#x15a;" horiz-adv-x="1017" 
d="M644 757q-146 51 -223.5 145t-53.5 227q23 130 138 228.5t260 98.5q143 0 227 -101q44 -52 57 -146l-173 -63q-16 81 -36 105q-40 50 -103 50q-62 0 -119 -48.5t-70 -123.5q-13 -74 28 -126q43 -50 125 -92q163 -56 258 -172q110 -132 78 -312t-186.5 -311.5
t-345.5 -131.5q-192 0 -301 135q-86 103 -81 267l185 63q-12 -157 49 -229q66 -80 176 -80q111 0 208 82.5t118 204.5q22 122 -45 203q-68 81 -170 127zM1160 1798l-355 -239h-189l250 239h294z" />
    <glyph glyph-name="sacute" unicode="&#x15b;" horiz-adv-x="727" 
d="M414 456q-92 56 -123 94q-61 74 -44 170q17 95 101.5 168t192.5 73t162 -67q56 -68 42 -149l-5 -28l-173 -66q5 113 -11 133t-42 20t-53 -23t-34 -61t15 -64q13 -18 68 -57q103 -62 146 -113q67 -84 47 -198q-21 -117 -121 -203t-228 -86t-198.5 86t-47.5 215l188 45
q-21 -116 9.5 -153t75.5 -37t89 37t55 96q10 57 -23 96q-20 23 -88 72zM912 1273l-355 -239h-189l250 239h294z" />
    <glyph glyph-name="Scircumflex" unicode="&#x15c;" horiz-adv-x="1017" 
d="M644 757q-146 51 -223.5 145t-53.5 227q23 130 138 228.5t260 98.5q143 0 227 -101q44 -52 57 -146l-173 -63q-16 81 -36 105q-40 50 -103 50q-62 0 -119 -48.5t-70 -123.5q-13 -74 28 -126q43 -50 125 -92q163 -56 258 -172q110 -132 78 -312t-186.5 -311.5
t-345.5 -131.5q-192 0 -301 135q-86 103 -81 267l185 63q-12 -157 49 -229q66 -80 176 -80q111 0 208 82.5t118 204.5q22 122 -45 203q-68 81 -170 127zM1127 1560h-231l-102 87l-125 -87h-230l387 278z" />
    <glyph glyph-name="scircumflex" unicode="&#x15d;" horiz-adv-x="727" 
d="M414 456q-92 56 -123 94q-61 74 -44 170q17 95 101.5 168t192.5 73t162 -67q56 -68 42 -149l-5 -28l-173 -66q5 113 -11 133t-42 20t-53 -23t-34 -61t15 -64q13 -18 68 -57q103 -62 146 -113q67 -84 47 -198q-21 -117 -121 -203t-228 -86t-198.5 86t-47.5 215l188 45
q-21 -116 9.5 -153t75.5 -37t89 37t55 96q10 57 -23 96q-20 23 -88 72zM880 1035h-231l-101 87l-126 -87h-230l387 278z" />
    <glyph glyph-name="Scedilla" unicode="&#x15e;" horiz-adv-x="1017" 
d="M450 -13q-153 17 -246 132q-86 103 -81 267l185 63q-12 -157 49 -229q66 -80 176 -80q111 0 208 82.5t118 204.5q22 122 -45 203q-68 81 -170 127q-146 51 -223.5 145t-53.5 227q23 130 138 228.5t260 98.5q143 0 227 -101q44 -52 57 -146l-173 -63q-16 81 -36 105
q-40 50 -103 50q-62 0 -119 -48.5t-70 -123.5q-13 -74 28 -126q43 -50 125 -92q163 -56 258 -172q110 -132 78 -312t-186 -311q-138 -118 -306 -131l-6 -10q58 -4 81 -81q10 -34 5 -66q-6 -30 -25 -57q-43 -64 -132 -78q-28 -4 -53 -4q-46 0 -78 15q-12 6 -26 14l70 84
q14 -8 34 -8q25 0 45 12t23 29q3 16 -13 28t-41 12q-11 0 -21 -2z" />
    <glyph glyph-name="scedilla" unicode="&#x15f;" horiz-adv-x="727" 
d="M300 3q-90 15 -144 82q-71 86 -48 215l188 45q-21 -116 9.5 -153t75.5 -37t89 37t55 96q10 57 -23 96q-20 23 -88 72q-92 56 -123 94q-61 74 -44 170q17 95 101.5 168t192.5 73t162 -67q56 -68 42 -149l-5 -28l-173 -66q5 113 -11 133t-42 20t-53 -23t-34 -61t15 -64
q13 -18 68 -57q103 -62 146 -113q67 -84 47 -198q-21 -117 -121 -203q-82 -70 -182 -83l-15 -27q58 -4 81 -81q10 -34 5 -66q-6 -30 -25 -57q-43 -64 -132 -78q-28 -4 -53 -4q-46 0 -78 15q-12 6 -26 14l69 84q15 -8 35 -8q25 0 45 12t23 29q3 16 -13 28t-41 12
q-11 0 -21 -2z" />
    <glyph glyph-name="Scaron" unicode="&#x160;" horiz-adv-x="1017" 
d="M644 757q-146 51 -223.5 145t-53.5 227q23 130 138 228.5t260 98.5q143 0 227 -101q44 -52 57 -146l-173 -63q-16 81 -36 105q-40 50 -103 50q-62 0 -119 -48.5t-70 -123.5q-13 -74 28 -126q43 -50 125 -92q163 -56 258 -172q110 -132 78 -312t-186.5 -311.5
t-345.5 -131.5q-192 0 -301 135q-86 103 -81 267l185 63q-12 -157 49 -229q66 -80 176 -80q111 0 208 82.5t118 204.5q22 122 -45 203q-68 81 -170 127zM769 1514l-289 277h230l94 -86l133 86h231z" />
    <glyph glyph-name="scaron" unicode="&#x161;" horiz-adv-x="727" 
d="M414 456q-92 56 -123 94q-61 74 -44 170q17 95 101.5 168t192.5 73t162 -67q56 -68 42 -149l-5 -28l-173 -66q5 113 -11 133t-42 20t-53 -23t-34 -61t15 -64q13 -18 68 -57q103 -62 146 -113q67 -84 47 -198q-21 -117 -121 -203t-228 -86t-198.5 86t-47.5 215l188 45
q-21 -116 9.5 -153t75.5 -37t89 37t55 96q10 57 -23 96q-20 23 -88 72zM522 989l-289 277h230l95 -86l132 86h231z" />
    <glyph glyph-name="Tcommaaccent" unicode="&#x162;" horiz-adv-x="931" 
d="M782 1282l-226 -1282h-180l226 1282h-344l28 157h867l-28 -157h-343zM390 -18q145 0 182 -34q47 -42 37 -99l-2 -10q-18 -64 -98 -116q-70 -36 -139 -36q-38 0 -121 23l68 132q68 -28 82 -28t26 6q8 5 13 17l1 3q1 4 -1 6t-71 3z" />
    <glyph glyph-name="tcommaaccent" unicode="&#x163;" horiz-adv-x="584" 
d="M363 914l63 355h180l-63 -355h170l-27 -156h-170l-134 -758h-180l134 758h-170l27 156h170zM198 -18q145 0 182 -34q47 -42 37 -99l-2 -10q-18 -64 -98 -116q-70 -36 -139 -36q-38 0 -121 23l68 132q68 -28 82 -28t26 6q8 5 13 17l1 3q1 4 -1 6t-71 3z" />
    <glyph glyph-name="Tcaron" unicode="&#x164;" horiz-adv-x="931" 
d="M782 1282l-226 -1282h-180l226 1282h-344l28 157h867l-28 -157h-343zM726 1514l-289 277h230l95 -86l132 86h231z" />
    <glyph glyph-name="tcaron" unicode="&#x165;" horiz-adv-x="708" 
d="M364 914l62 355h180l-62 -355h170l-28 -156h-170l-134 -758h-180l134 758h-170l28 156h170zM696 1203l-5 23q-29 33 -21 79q8 45 51 80t99 35q55 0 85 -35t22 -80q-4 -23 -17 -46l-131 -196h-159z" />
    <glyph glyph-name="Tbar" unicode="&#x166;" horiz-adv-x="931" 
d="M518 798l85 484h-344l28 157h867l-28 -157h-343l-85 -484h249l-28 -156h-249l-113 -642h-180l113 642h-251l28 156h251z" />
    <glyph glyph-name="tbar" unicode="&#x167;" horiz-adv-x="584" 
d="M337 758h-170l28 156h170l62 355h180l-62 -355h170l-28 -156h-170l-26 -150h170l-28 -157h-170l-80 -451h-180l80 451h-170l28 157h170z" />
    <glyph glyph-name="Utilde" unicode="&#x168;" horiz-adv-x="1214" 
d="M1174 1439h181l-179 -1018q-53 -169 -197 -291q-166 -142 -374 -142q-210 0 -327.5 143.5t-82.5 340.5l170 967h181l-170 -967q-25 -138 52.5 -232.5t204.5 -94.5q126 0 236 94.5t135 232.5zM826 1631q-6 -22 -15 -77l-161 36q14 71 28 98q35 70 103 96q24 10 51 10
q59 0 125 -55q12 -10 20 -16q5 22 15 75l163 -33q-17 -72 -31 -99q-34 -70 -104 -98q-25 -8 -48 -8q-59 0 -127 55q-11 10 -19 16z" />
    <glyph glyph-name="utilde" unicode="&#x169;" 
d="M481 -12q-182 0 -269 106t-63 260l99 561h181l-98 -554q-16 -92 38 -156q50 -61 138 -61q80 0 154 62.5t90 154.5l98 554h181l-99 -561q-30 -154 -156 -262q-122 -104 -294 -104zM605 1106q-6 -22 -16 -77l-160 36q14 71 28 98q35 70 103 96q23 10 50 10q59 0 126 -55
q12 -10 20 -16q5 22 14 75l163 -33q-16 -72 -30 -99q-34 -70 -104 -98q-26 -8 -49 -8q-59 0 -126 55q-11 10 -19 16z" />
    <glyph glyph-name="Umacron" unicode="&#x16a;" horiz-adv-x="1214" 
d="M1174 1439h181l-179 -1018q-53 -169 -197 -291q-166 -142 -374 -142q-210 0 -327.5 143.5t-82.5 340.5l170 967h181l-170 -967q-25 -138 52.5 -232.5t204.5 -94.5q126 0 236 94.5t135 232.5zM604 1699h604l-25 -140h-604z" />
    <glyph glyph-name="umacron" unicode="&#x16b;" 
d="M481 -12q-182 0 -269 106t-63 260l99 561h181l-98 -554q-16 -92 38 -156q50 -61 138 -61q80 0 154 62.5t90 154.5l98 554h181l-99 -561q-30 -154 -156 -262q-122 -104 -294 -104zM383 1174h604l-25 -140h-604z" />
    <glyph glyph-name="Ubreve" unicode="&#x16c;" horiz-adv-x="1214" 
d="M1174 1439h181l-179 -1018q-53 -169 -197 -291q-166 -142 -374 -142q-210 0 -327.5 143.5t-82.5 340.5l170 967h181l-170 -967q-25 -138 52.5 -232.5t204.5 -94.5q126 0 236 94.5t135 232.5zM1181 1800q-49 -101 -99 -144q-87 -75 -195 -75q-110 0 -169 75
q-37 45 -51 144h168q14 -40 24 -52q20 -25 53 -25q31 0 61 26q15 11 41 51h167z" />
    <glyph glyph-name="ubreve" unicode="&#x16d;" 
d="M481 -12q-182 0 -269 106t-63 260l99 561h181l-98 -554q-16 -92 38 -156q50 -61 138 -61q80 0 154 62.5t90 154.5l98 554h181l-99 -561q-30 -154 -156 -262q-122 -104 -294 -104zM960 1275q-49 -101 -100 -144q-86 -75 -194 -75q-110 0 -170 75q-36 45 -50 144h168
q13 -40 23 -52q21 -25 54 -25q31 0 61 26q14 11 41 51h167z" />
    <glyph glyph-name="Uring" unicode="&#x16e;" horiz-adv-x="1214" 
d="M1174 1439h181l-179 -1018q-53 -169 -197 -291q-166 -142 -374 -142q-210 0 -327.5 143.5t-82.5 340.5l170 967h181l-170 -967q-25 -138 52.5 -232.5t204.5 -94.5q126 0 236 94.5t135 232.5zM1024 1707.5q37 -45.5 26 -103.5q-10 -58 -63 -103t-124 -45q-70 0 -107 45
t-27 103q11 58 64 103.5t123 45.5q71 0 108 -45.5zM897 1649q-21 0 -36.5 -13.5t-19.5 -31.5q-3 -17 8.5 -30.5t32.5 -13.5q22 0 37.5 13.5t18.5 30.5q4 18 -7.5 31.5t-33.5 13.5z" />
    <glyph glyph-name="uring" unicode="&#x16f;" 
d="M481 -12q-182 0 -269 106t-63 260l99 561h181l-98 -554q-16 -92 38 -156q50 -61 138 -61q80 0 154 62.5t90 154.5l98 554h181l-99 -561q-30 -154 -156 -262q-122 -104 -294 -104zM801 1182.5q37 -45.5 27 -103.5t-63 -103t-124 -45q-70 0 -107 45t-27 103t63 103.5
t123 45.5q71 0 108 -45.5zM675 1124q-21 0 -37 -13.5t-19 -31.5q-3 -17 8 -30.5t32 -13.5q22 0 38 13.5t19 30.5q3 18 -8 31.5t-33 13.5z" />
    <glyph glyph-name="Uhungarumlaut" unicode="&#x170;" horiz-adv-x="1214" 
d="M1174 1439h181l-179 -1018q-53 -169 -197 -291q-166 -142 -374 -142q-210 0 -327.5 143.5t-82.5 340.5l170 967h181l-170 -967q-25 -138 52.5 -232.5t204.5 -94.5q126 0 236 94.5t135 232.5zM1021 1791l-355 -238h-189l250 238h294zM1325 1791l-354 -238h-190l250 238
h294z" />
    <glyph glyph-name="uhungarumlaut" unicode="&#x171;" 
d="M481 -12q-182 0 -269 106t-63 260l99 561h181l-98 -554q-16 -92 38 -156q50 -61 138 -61q80 0 154 62.5t90 154.5l98 554h181l-99 -561q-30 -154 -156 -262q-122 -104 -294 -104zM800 1266l-355 -238h-189l250 238h294zM1104 1266l-354 -238h-190l250 238h294z" />
    <glyph glyph-name="Uogonek" unicode="&#x172;" horiz-adv-x="1214" 
d="M807 25q-96 -37 -202 -37q-210 0 -327.5 143.5t-82.5 340.5l170 967h181l-170 -967q-25 -138 52.5 -232.5t204.5 -94.5q126 0 236 94.5t135 232.5l170 967h181l-179 -1018q-53 -169 -197 -291q-3 -3 -7 -6q-60 -91 -69 -145q-3 -17 8 -30.5t32 -13.5q10 0 20 3l-6 -104
q-15 -3 -32 -3q-70 0 -107 45t-27 103q4 24 16 46z" />
    <glyph glyph-name="uogonek" unicode="&#x173;" 
d="M640 14q-73 -26 -159 -26q-182 0 -269 106t-63 260l99 561h181l-98 -554q-16 -92 38 -156q50 -61 138 -61q80 0 154 62.5t90 154.5l98 554h181l-99 -561q-24 -128 -116 -224q-50 -73 -69 -138q-3 -17 8.5 -30.5t32.5 -13.5q10 0 19 3l-5 -105q-17 -2 -33 -2
q-70 0 -107 45t-27 103q2 11 6 22z" />
    <glyph glyph-name="Wcircumflex" unicode="&#x174;" horiz-adv-x="1665" 
d="M1084 1079l158 -751l494 1111h183l-640 -1439h-158l-154 758l-423 -758h-158l-132 1439h184l103 -1111l422 751h121zM1452 1560h-231l-101 87l-126 -87h-230l387 278z" />
    <glyph glyph-name="wcircumflex" unicode="&#x175;" horiz-adv-x="1184" 
d="M1346 914l-472 -914h-127l-79 433l-230 -433h-129l-148 914h195l83 -568l229 426h122l78 -426l282 568h196zM1118 1035h-231l-101 87l-126 -87h-230l387 278z" />
    <glyph glyph-name="Ycircumflex" unicode="&#x176;" horiz-adv-x="1233" 
d="M629 582l-343 857h200l268 -666l501 666h200l-645 -857l-103 -582h-181zM1235 1560h-231l-101 87l-126 -87h-230l387 278z" />
    <glyph glyph-name="ycircumflex" unicode="&#x177;" horiz-adv-x="896" 
d="M251 -317h-195l328 512l-208 719h195l149 -505l327 505h195zM974 1035h-231l-101 87l-126 -87h-230l387 278z" />
    <glyph glyph-name="Ydieresis" unicode="&#x178;" horiz-adv-x="1233" 
d="M629 582l-343 857h200l268 -666l501 666h200l-645 -857l-103 -582h-181zM877 1760.5q30 -35.5 23 -79.5q-8 -46 -51 -81.5t-98 -35.5q-57 0 -86.5 35.5t-21.5 81.5q7 44 49.5 79.5t99.5 35.5q55 0 85 -35.5zM1161.5 1760.5q29.5 -35.5 22.5 -79.5q-8 -46 -50.5 -81.5
t-98.5 -35.5t-86 35.5t-22 81.5q7 44 50 79.5t99 35.5t85.5 -35.5z" />
    <glyph glyph-name="Zacute" unicode="&#x179;" horiz-adv-x="1168" 
d="M1049 1282h-615l28 157h906l-966 -1282h780l-28 -157h-1070zM1270 1798l-355 -239h-189l250 239h294z" />
    <glyph glyph-name="zacute" unicode="&#x17a;" horiz-adv-x="850" 
d="M624 746h-402l27 156h693l-562 -745h436l-28 -157h-726zM984 1273l-355 -239h-189l250 239h294z" />
    <glyph glyph-name="Zdotaccent" unicode="&#x17b;" horiz-adv-x="1168" 
d="M1049 1282h-615l28 157h906l-966 -1282h780l-28 -157h-1070zM1015 1770q27 -32 20 -73q-7 -40 -45.5 -72t-89.5 -32t-78.5 32t-20.5 72q7 41 46 73t90 32t78 -32z" />
    <glyph glyph-name="zdotaccent" unicode="&#x17c;" horiz-adv-x="850" 
d="M624 746h-402l27 156h693l-562 -745h436l-28 -157h-726zM728.5 1245q27.5 -32 20.5 -73q-7 -40 -46 -72t-90 -32t-78 32t-20 72q7 41 45.5 73t89.5 32t78.5 -32z" />
    <glyph glyph-name="Zcaron" unicode="&#x17d;" horiz-adv-x="1168" 
d="M1049 1282h-615l28 157h906l-966 -1282h780l-28 -157h-1070zM880 1514l-289 277h230l95 -86l132 86h231z" />
    <glyph glyph-name="zcaron" unicode="&#x17e;" horiz-adv-x="850" 
d="M624 746h-402l27 156h693l-562 -745h436l-28 -157h-726zM593 989l-289 277h230l95 -86l132 86h231z" />
    <glyph glyph-name="longs" unicode="&#x17f;" horiz-adv-x="483" 
d="M291 0h-181l194 1101q26 107 116 186q101 80 215 80q59 0 157 -36l-80 -150q-75 35 -96 35q-36 0 -78 -33q-43 -36 -54 -89z" />
    <glyph glyph-name="florin" unicode="&#x192;" horiz-adv-x="488" 
d="M296 0h-1l-4 -28q-61 -281 -400 -281l27 152q163 0 193 129l138 786h-85l28 156h85l33 187q24 107 115 186q102 80 216 80q59 0 156 -36l-79 -150q-76 35 -96 35q-36 0 -79 -33q-42 -36 -54 -89l-31 -180h170l-28 -156h-170z" />
    <glyph glyph-name="Aringacute" unicode="&#x1fa;" horiz-adv-x="1210" 
d="M874 687l-79 387l-216 -387h295zM822 1563l119 135h291l-244 -173q33 -43 23 -99q-9 -55 -62 -100l-11 -15l269 -1311h-188l-114 531h-411l-306 -531h-189l736 1310l-11 20q-34 41 -25 96q10 56 63 102q35 29 60 35zM858 1470q-17 0 -30 -11.5t-16 -27.5
q-2 -16 6.5 -27.5t25.5 -11.5q16 0 30 11.5t16 27.5q3 16 -6.5 27.5t-25.5 11.5z" />
    <glyph glyph-name="aringacute" unicode="&#x1fb;" horiz-adv-x="1188" 
d="M990 410l26 146q-1 99 -61 171q-83 102 -217 102q-135 0 -251.5 -100t-142.5 -247q-26 -146 55.5 -245t216.5 -99q134 0 253 101q85 72 121 171zM779 1115q-17 0 -30 -11.5t-16 -27.5t6 -27.5t26 -11.5q16 0 29.5 11.5t16.5 27.5t-6.5 27.5t-25.5 11.5zM874 976
q132 -36 186 -169l19 107h181l-161 -914h-181l28 160q-139 -184 -358 -184q-217 0 -341 150.5t-88 355.5q37 207 214 357q125 106 270 137q-33 41 -23 95q10 56 63 102q34 29 59 35l38 65h291l-163 -103q34 -43 24 -99q-9 -52 -58 -95z" />
    <glyph glyph-name="AEacute" unicode="&#x1fc;" horiz-adv-x="1514" 
d="M1543 798l-28 -157h-602l-85 -484h602l-28 -157h-782l92 521h-199l-323 -521h-191l879 1439h778l-28 -157h-602l-85 -484h602zM739 677l56 317l-192 -317h136zM1352 1798l-355 -239h-189l250 239h294z" />
    <glyph glyph-name="aeacute" unicode="&#x1fd;" horiz-adv-x="1908" 
d="M998 653q-16 42 -43 74q-83 102 -217 102q-135 0 -251.5 -100t-142.5 -247q-26 -146 55.5 -245t216.5 -99q134 0 253 101q38 32 69 74q34 46 52 97l26 146q0 51 -18 97zM1772 643q-5 31 -53 88q-79 98 -213 98q-135 0 -254 -102q-19 -16 -30 -29l-9 -55h559zM1146 267
q6 -12 24 -32q79 -97 214 -97q134 0 249 97q21 18 68 68l160 -61q-49 -64 -108 -113q-179 -153 -397 -153q-206 0 -252 52l-5 -28h-181l28 160q-139 -184 -358 -184q-217 0 -341 150.5t-88 355.5q37 207 214 357t394 150q219 0 293 -182l19 107h181q69 75 275 75
q218 0 339 -148q111 -136 80 -356l-769 1zM1531 1273l-356 -239h-189l251 239h294z" />
    <glyph glyph-name="Oslashacute" unicode="&#x1fe;" horiz-adv-x="1693" 
d="M1235 1280q-48 21 -159 21q-230 0 -428 -168.5t-241 -410.5q-43 -244 94 -411q54 -64 66 -73zM712 162q49 -20 159 -20q231 0 428.5 168t240.5 412q43 242 -97 414q-50 60 -63 68zM1476 1353q55 -33 123 -114q177 -216 123 -517q-53 -303 -309 -520.5t-570 -217.5
q-152 0 -225 32l-102 -160l-146 76l102 158q-56 33 -123 114q-177 215 -124 518q54 301 309.5 519t568.5 218q152 0 227 -32l102 158l146 -73zM1498 1798l-355 -239h-189l250 239h294z" />
    <glyph glyph-name="oslashacute" unicode="&#x1ff;" horiz-adv-x="1145" 
d="M810 819q-18 10 -91 10q-135 0 -251.5 -99.5t-142.5 -246.5q-26 -146 54 -244zM945 730l-440 -582q19 -9 92 -9q134 0 251 99t143 245q26 147 -46 247zM262 90q-9 7 -37 39q-121 149 -85 354q37 207 214 357t394 150q123 0 173 -26l136 183l140 -82l-141 -187
q8 -7 36 -40q120 -148 83 -355q-36 -205 -211.5 -355.5t-394.5 -150.5q-124 0 -172 26l-136 -180l-143 73zM1131 1273l-355 -239h-189l250 239h294z" />
    <glyph glyph-name="Scommaaccent" unicode="&#x218;" horiz-adv-x="1017" 
d="M644 757q-146 51 -223.5 145t-53.5 227q23 130 138 228.5t260 98.5q143 0 227 -101q44 -52 57 -146l-173 -63q-16 81 -36 105q-40 50 -103 50q-62 0 -119 -48.5t-70 -123.5q-13 -74 28 -126q43 -50 125 -92q163 -56 258 -172q110 -132 78 -312t-186.5 -311.5
t-345.5 -131.5q-192 0 -301 135q-86 103 -81 267l185 63q-12 -157 49 -229q66 -80 176 -80q111 0 208 82.5t118 204.5q22 122 -45 203q-68 81 -170 127zM338 -214l-4 14q-22 20 -16 47q6 28 39.5 49t76.5 21t66.5 -21t16.5 -49q-3 -13 -13 -27l-102 -119h-123z" />
    <glyph glyph-name="scommaaccent" unicode="&#x219;" horiz-adv-x="727" 
d="M414 456q-92 56 -123 94q-61 74 -44 170q17 95 101.5 168t192.5 73t162 -67q56 -68 42 -149l-5 -28l-173 -66q5 113 -11 133t-42 20t-53 -23t-34 -61t15 -64q13 -18 68 -57q103 -62 146 -113q67 -84 47 -198q-21 -117 -121 -203t-228 -86t-198.5 86t-47.5 215l188 45
q-21 -116 9.5 -153t75.5 -37t89 37t55 96q10 57 -23 96q-20 23 -88 72zM238 -214l-4 14q-22 20 -16 47q6 28 39.5 49t76.5 21t66.5 -21t16.5 -49q-3 -13 -13 -27l-102 -119h-123z" />
    <glyph glyph-name="uni021A" unicode="&#x21a;" horiz-adv-x="931" 
d="M603 1282h-344l28 157h867l-28 -157h-343l-226 -1282h-180zM348 -214l-4 14q-22 20 -16 47q6 28 39.5 49t76.5 21t66.5 -21t16.5 -49q-3 -13 -13 -27l-102 -119h-123z" />
    <glyph glyph-name="uni021B" unicode="&#x21b;" horiz-adv-x="584" 
d="M337 758h-170l28 156h170l62 355h180l-62 -355h170l-28 -156h-170l-134 -758h-180zM178 -214l-4 14q-22 20 -16 47q6 28 39.5 49t76.5 21t66.5 -21t16.5 -49q-3 -13 -13 -27l-102 -119h-123z" />
    <glyph glyph-name="circumflex" unicode="&#x2c6;" horiz-adv-x="878" 
d="M965 1035h-231l-102 87l-125 -87h-230l387 278z" />
    <glyph glyph-name="caron" unicode="&#x2c7;" horiz-adv-x="878" 
d="M607 989l-289 277h230l95 -86l132 86h231z" />
    <glyph glyph-name="uni02C9" unicode="&#x2c9;" horiz-adv-x="754" 
d="M282 1174h604l-25 -140h-604z" />
    <glyph glyph-name="breve" unicode="&#x2d8;" horiz-adv-x="681" 
d="M822 1275q-49 -101 -99 -144q-87 -75 -195 -75q-110 0 -169 75q-36 45 -51 144h168q14 -40 24 -52q20 -25 53 -25q31 0 61 26q15 11 41 51h167z" />
    <glyph glyph-name="dotaccent" unicode="&#x2d9;" horiz-adv-x="384" 
d="M496 1245q27 -32 20 -73q-7 -40 -45.5 -72t-89.5 -32t-78.5 32t-20.5 72q7 41 46 73t90 32t78 -32z" />
    <glyph glyph-name="ring" unicode="&#x2da;" horiz-adv-x="589" 
d="M618 1182.5q37 -45.5 27 -103.5t-63 -103t-124 -45q-70 0 -107 45t-27 103t63 103.5t123 45.5q71 0 108 -45.5zM492 1124q-21 0 -37 -13.5t-19 -31.5q-3 -17 8 -30.5t32 -13.5q22 0 38 13.5t19 30.5q3 18 -8 31.5t-33 13.5z" />
    <glyph glyph-name="ogonek" unicode="&#x2db;" horiz-adv-x="535" 
d="M300 -17q-21 0 -37 -13.5t-19 -31.5q-3 -17 8 -30.5t32 -13.5q10 0 20 3l-6 -105q-15 -2 -32 -2q-70 0 -107 45t-27 103t64 104q50 43 117 45l-5 -104h-8z" />
    <glyph glyph-name="tilde" unicode="&#x2dc;" horiz-adv-x="625" 
d="M439 1106q-6 -22 -15 -77l-161 36q15 71 28 98q36 70 103 96q24 10 51 10q59 0 125 -55q13 -10 20 -16q5 22 15 75l163 -33q-17 -72 -31 -99q-34 -70 -104 -98q-25 -8 -48 -8q-59 0 -127 55q-11 10 -19 16z" />
    <glyph glyph-name="hungarumlaut" unicode="&#x2dd;" horiz-adv-x="854" 
d="M749 1266l-355 -238h-189l250 238h294zM1053 1266l-354 -238h-190l250 238h294z" />
    <glyph glyph-name="tonos" unicode="&#x384;" horiz-adv-x="597" 
d="M831 1439l-355 -238h-189l250 238h294z" />
    <glyph glyph-name="dieresistonos" unicode="&#x385;" horiz-adv-x="795" 
d="M891 1439l-278 -238h-158l173 238h263zM955.5 1356.5q24.5 -28.5 18.5 -62.5q-7 -37 -41.5 -65.5t-79.5 -28.5q-47 0 -71.5 28.5t-17.5 65.5q6 34 40.5 62.5t81.5 28.5q45 0 69.5 -28.5zM471 1356.5q25 -28.5 19 -62.5q-7 -37 -42 -65.5t-80 -28.5q-47 0 -71.5 28.5
t-17.5 65.5q6 34 40.5 62.5t81.5 28.5q45 0 70 -28.5z" />
    <glyph glyph-name="Alphatonos" unicode="&#x386;" horiz-adv-x="1093" 
d="M657 1439l-356 -238h-189l250 238h295zM836 754l-71 382l-206 -382h277zM898 1439l267 -1439h-188l-112 598h-391l-326 -598h-189l782 1439h157z" />
    <glyph glyph-name="anoteleia" unicode="&#x387;" horiz-adv-x="344" 
d="M448 1091q27 -32 20 -72q-7 -41 -45.5 -73t-89.5 -32t-78.5 32t-20.5 73q7 40 46 72t90 32t78 -32z" />
    <glyph glyph-name="Epsilontonos" unicode="&#x388;" horiz-adv-x="1151" 
d="M463 1439l-355 -238h-189l250 238h294zM1312 1439l-28 -157h-602l-85 -484h602l-28 -157h-602l-85 -484h602l-28 -157h-783l254 1439h783z" />
    <glyph glyph-name="Etatonos" unicode="&#x389;" horiz-adv-x="1343" 
d="M466 1439l-355 -238h-189l250 238h294zM572 641l-113 -641h-181l254 1439h181l-113 -641h591l113 641h181l-254 -1439h-181l113 641h-591z" />
    <glyph glyph-name="Iotatonos" unicode="&#x38a;" horiz-adv-x="535" 
d="M453 1439l-355 -238h-189l250 238h294zM693 1439l-254 -1439h-181l254 1439h181z" />
    <glyph glyph-name="Omicrontonos" unicode="&#x38c;" horiz-adv-x="1623" 
d="M539 1439l-355 -238h-189l250 238h294zM1534.5 1241q179.5 -218 126.5 -519q-54 -303 -310 -520.5t-570 -217.5q-313 0 -492 217.5t-125 520.5q53 301 308.5 519t568.5 218q314 0 493.5 -218zM1014 1301q-231 0 -429 -168.5t-240 -410.5q-43 -244 95 -412t369 -168
t429 168t241 412q42 242 -96 410.5t-369 168.5z" />
    <glyph glyph-name="Upsilontonos" unicode="&#x38e;" horiz-adv-x="1322" 
d="M395 1439l-355 -238h-189l250 238h294zM779 582l-343 857h200l267 -666l501 666h201l-645 -857l-103 -582h-181z" />
    <glyph glyph-name="Omegatonos" unicode="&#x38f;" horiz-adv-x="1464" 
d="M520 1439l-355 -238h-189l250 238h294zM977 1459q299 0 439 -207t81 -544q-44 -251 -427 -551h243l-28 -157h-465l26 147q116 48 272.5 187t197.5 374q50 283 -53.5 444t-315.5 161h-4q-213 0 -373 -161t-210 -444q-41 -235 66 -374t205 -187l-26 -147h-465l28 157h244
q-278 300 -234 551q59 337 272.5 544t512.5 207h14z" />
    <glyph glyph-name="iotadieresistonos" unicode="&#x390;" horiz-adv-x="470" 
d="M487 914l-161 -914h-180l161 914h180zM700 1279l-278 -238h-158l173 238h263zM764.5 1196.5q24.5 -28.5 18.5 -62.5q-7 -37 -41.5 -65.5t-79.5 -28.5q-47 0 -71.5 28.5t-17.5 65.5q6 34 40.5 62.5t81.5 28.5q45 0 69.5 -28.5zM280 1196.5q25 -28.5 19 -62.5
q-7 -37 -42 -65.5t-80 -28.5q-47 0 -71.5 28.5t-17.5 65.5q6 34 40.5 62.5t81.5 28.5q45 0 70 -28.5z" />
    <glyph glyph-name="Alpha" unicode="&#x391;" horiz-adv-x="1208" 
d="M876 754l-71 382l-206 -382h277zM938 1439l267 -1439h-188l-112 598h-391l-326 -598h-189l782 1439h157z" />
    <glyph glyph-name="Beta" unicode="&#x392;" horiz-adv-x="1102" 
d="M583 157q125 0 235 93.5t134 232.5q25 139 -52 233t-202 94h-262l-115 -653h262zM519 1283l-55 -316h290q60 6 97 39q52 43 65 115q12 70 -26 116t-96 46h-275zM1055 821q115 -140 80 -338q-34 -196 -205 -341q-138 -118 -321 -142h-497l254 1439h457q141 0 219 -95
t56 -223q-23 -129 -132 -221q31 -8 89 -79z" />
    <glyph glyph-name="Gamma" unicode="&#x393;" horiz-adv-x="832" 
d="M1064 1439l-28 -157h-517l-226 -1282h-181l254 1439h698z" />
    <glyph glyph-name="uni0394" unicode="&#x394;" horiz-adv-x="1195" 
d="M44 1h-74l778 1438h171l276 -1439h-1151v1zM976 157l-193 999l-540 -999h733z" />
    <glyph glyph-name="Epsilon" unicode="&#x395;" horiz-adv-x="985" 
d="M1149 1439l-28 -157h-602l-85 -484h602l-28 -157h-602l-85 -484h602l-28 -157h-783l254 1439h783z" />
    <glyph glyph-name="Zeta" unicode="&#x396;" horiz-adv-x="1168" 
d="M1049 1282h-615l28 157h906l-966 -1282h780l-28 -157h-1070z" />
    <glyph glyph-name="Eta" unicode="&#x397;" horiz-adv-x="1173" 
d="M404 641l-113 -641h-181l254 1439h181l-113 -641h591l113 641h181l-254 -1439h-181l113 641h-591z" />
    <glyph glyph-name="Theta" unicode="&#x398;" horiz-adv-x="1621" 
d="M1560.5 1241q179.5 -218 125.5 -519q-53 -303 -309 -520.5t-570 -217.5q-313 0 -492 217.5t-126 520.5q54 301 309.5 519t568.5 218q314 0 493.5 -218zM1040 1301q-230 0 -428 -168.5t-241 -410.5q-43 -244 95.5 -412t368.5 -168q231 0 428.5 168t240.5 412
q43 242 -95 410.5t-369 168.5zM516 800h872l-28 -157h-872z" />
    <glyph glyph-name="Iota" unicode="&#x399;" horiz-adv-x="425" 
d="M557 1439l-254 -1439h-181l254 1439h181z" />
    <glyph glyph-name="Kappa" unicode="&#x39a;" horiz-adv-x="1102" 
d="M1128 1439l-477 -550l465 -889h-211l-387 741l-118 -135l-107 -606h-181l254 1439h181l-94 -532l465 532h210z" />
    <glyph glyph-name="Lambda" unicode="&#x39b;" horiz-adv-x="1225" 
d="M949 1439l276 -1439h-189l-223 1156l-625 -1155h-188l778 1438h171z" />
    <glyph glyph-name="Mu" unicode="&#x39c;" horiz-adv-x="1496" 
d="M1657 1439l-254 -1439h-181l206 1170l-582 -621l-365 621l-206 -1170h-181l254 1439h193l355 -605l568 605h193z" />
    <glyph glyph-name="Nu" unicode="&#x39d;" horiz-adv-x="1398" 
d="M542 1439l617 -1150l203 1150h181l-254 -1439h-200l-601 1121l-198 -1121h-181l254 1439h179z" />
    <glyph glyph-name="Xi" unicode="&#x39e;" horiz-adv-x="1164" 
d="M286 800h872l-28 -157h-872zM304 1440h1064l-28 -157h-1064zM78 158h1064l-28 -157h-1064z" />
    <glyph glyph-name="Omicron" unicode="&#x39f;" horiz-adv-x="1621" 
d="M1560.5 1241q179.5 -218 125.5 -519q-53 -303 -309 -520.5t-570 -217.5q-313 0 -492 217.5t-126 520.5q54 301 309.5 519t568.5 218q314 0 493.5 -218zM1040 1301q-230 0 -428 -168.5t-241 -410.5q-43 -244 95.5 -412t368.5 -168q231 0 428.5 168t240.5 412
q43 242 -95 410.5t-369 168.5z" />
    <glyph glyph-name="Pi" unicode="&#x3a0;" horiz-adv-x="1141" 
d="M501 1282l-226 -1282h-181l254 1439h953l-254 -1439h-181l226 1282h-591z" />
    <glyph glyph-name="Rho" unicode="&#x3a1;" horiz-adv-x="1032" 
d="M376 471l-83 -471h-181l254 1439h412q176 -24 275 -146q116 -141 82 -337q-35 -197 -203.5 -341t-377.5 -144h-178zM519 1281l-115 -652h178q126 0 236.5 93.5t135.5 233.5q24 139 -53.5 232t-203.5 93h-178z" />
    <glyph glyph-name="Sigma" unicode="&#x3a3;" horiz-adv-x="1125" 
d="M278 1438h1077l-28 -157h-848l364 -562l-562 -562h848l-28 -157h-1077l29 163l568 556l-372 557z" />
    <glyph glyph-name="Tau" unicode="&#x3a4;" horiz-adv-x="971" 
d="M802 1282l-226 -1282h-180l226 1282h-344l28 157h867l-28 -157h-343z" />
    <glyph glyph-name="Upsilon" unicode="&#x3a5;" horiz-adv-x="1169" 
d="M629 582l-343 857h200l268 -666l501 666h200l-645 -857l-103 -582h-181z" />
    <glyph glyph-name="Phi" unicode="&#x3a6;" horiz-adv-x="1625" 
d="M786 365l121 686q-189 -5 -341 -99q-160 -101 -185 -244q-25 -142 99 -242q119 -96 306 -101zM939 204l-35 -200h-181l35 200q-262 7 -424 147q-176 148 -139 358t265 359q211 137 476 144l39 225h181l-39 -225q261 -7 426 -144q174 -149 137 -359t-263 -358
q-214 -140 -478 -147zM1088 1051l-121 -686q189 5 342 101q161 100 186 242q25 143 -100 244q-119 94 -307 99z" />
    <glyph glyph-name="Chi" unicode="&#x3a7;" horiz-adv-x="1137" 
d="M15 0l592 787l-261 652h200l191 -479l361 479h201l-492 -652l316 -787h-201l-246 613l-462 -613h-199z" />
    <glyph glyph-name="Psi" unicode="&#x3a8;" horiz-adv-x="1661" 
d="M971 300l-52 -296h-181l52 296q-262 7 -425 147q-165 149 -133 361l111 629h181l-111 -633q-25 -142 100 -242q118 -96 305 -101l172 976h181l-172 -976q190 5 342 101q161 100 193 286h5l104 589h181l-112 -634q-37 -209 -263 -356q-213 -140 -478 -147z" />
    <glyph glyph-name="uni03A9" unicode="&#x3a9;" horiz-adv-x="1519" 
d="M1024 1459q300 0 440 -207t80 -544q-44 -251 -427 -551h243l-28 -157h-465l26 147q116 48 272.5 187t197.5 374q50 283 -53.5 444t-315.5 161h-4q-213 0 -373 -161t-210 -444q-41 -235 66 -374t205 -187l-26 -147h-465l27 157h244q-277 300 -233 551q60 337 273.5 544
t512.5 207h13z" />
    <glyph glyph-name="Iotadieresis" unicode="&#x3aa;" horiz-adv-x="425" 
d="M557 1439l-254 -1439h-181l254 1439h181zM473 1760.5q30 -35.5 22 -79.5q-8 -46 -50.5 -81.5t-97.5 -35.5q-57 0 -87 35.5t-22 81.5q8 44 50.5 79.5t99.5 35.5q55 0 85 -35.5zM757.5 1760.5q29.5 -35.5 21.5 -79.5q-8 -46 -50 -81.5t-98 -35.5t-86.5 35.5t-22.5 81.5
q8 44 51 79.5t99 35.5t85.5 -35.5z" />
    <glyph glyph-name="Upsilondieresis" unicode="&#x3ab;" horiz-adv-x="1169" 
d="M629 582l-343 857h200l268 -666l501 666h200l-645 -857l-103 -582h-181zM877 1760.5q30 -35.5 23 -79.5q-8 -46 -51 -81.5t-98 -35.5q-57 0 -86.5 35.5t-21.5 81.5q7 44 49.5 79.5t99.5 35.5q55 0 85 -35.5zM1161.5 1760.5q29.5 -35.5 22.5 -79.5q-8 -46 -50.5 -81.5
t-98.5 -35.5t-86 35.5t-22 81.5q7 44 50 79.5t99 35.5t85.5 -35.5z" />
    <glyph glyph-name="alphatonos" unicode="&#x3ac;" horiz-adv-x="1234" 
d="M992 130q-179 -154 -398 -154q-217 0 -341 150.5t-88 355.5q37 207 214 357t394 150q219 0 344 -152l60 77h178l-185 -457l24 -457h-179zM958 731q-80 98 -214 98q-135 0 -251.5 -100t-142.5 -247q-26 -146 55.5 -245t216.5 -99q134 0 248 96q90 76 119 227
q34 189 -31 270zM1198 1279l-355 -238h-189l250 238h294z" />
    <glyph glyph-name="epsilontonos" unicode="&#x3ad;" horiz-adv-x="838" 
d="M247 460q-77 69 -77 156q0 18 3 36q20 111 138 190t264 79q145 0 235 -79q71 -62 71 -177q0 -17 -2 -35h-184v15q0 68 -33 97q-42 37 -112 37q-71 0 -126 -37t-65 -90q-2 -9 -2 -18q0 -40 35 -70q18 -16 31 -22h259l-28 -156h-236q-30 -7 -63 -29q-54 -36 -63 -89
q-2 -10 -2 -20q0 -40 34 -69q42 -37 113 -37q70 0 125.5 36.5t65.5 89.5l8 48h185l-8 -48q-20 -111 -138 -190t-263 -79q-146 0 -236 79q-74 65 -74 151q0 19 4 39q19 109 141 192zM596 1269l166 -238h-188l-272 238h294z" />
    <glyph glyph-name="etatonos" unicode="&#x3ae;" horiz-adv-x="918" 
d="M391 682l-120 -682h-181l161 914h181q35 50 199 50q173 0 260.5 -106t62.5 -259l-162 -917h-180l160 909q17 93 -35.5 154.5t-133.5 61.5q-80 0 -151 -58q-41 -35 -61 -67zM1030 1279l-356 -238h-189l250 238h295z" />
    <glyph glyph-name="iotatonos" unicode="&#x3af;" horiz-adv-x="470" 
d="M486 914l-161 -914h-180l161 914h180zM796 1279l-356 -238h-188l249 238h295z" />
    <glyph glyph-name="upsilondieresistonos" unicode="&#x3b0;" 
d="M481 -12q-182 0 -269 106t-63 260l99 561h181l-98 -554q-16 -92 38 -156q50 -61 138 -61q80 0 154 62.5t90 154.5l98 554h181l-99 -561q-30 -154 -156 -262q-122 -104 -294 -104zM940 1269l-277 -238h-157l171 238h263zM1005 1186.5q25 -28.5 19 -62.5q-7 -37 -42 -65.5
t-80 -28.5q-47 0 -71.5 28.5t-17.5 65.5q6 34 40.5 62.5t81.5 28.5q45 0 70 -28.5zM520.5 1186.5q24.5 -28.5 18.5 -62.5q-7 -37 -41.5 -65.5t-80.5 -28.5q-47 0 -71.5 28.5t-17.5 65.5q6 34 40.5 62.5t81.5 28.5q46 0 70.5 -28.5z" />
    <glyph glyph-name="alpha" unicode="&#x3b1;" horiz-adv-x="1234" 
d="M992 130q-179 -154 -398 -154q-217 0 -341 150.5t-88 355.5q37 207 214 357t394 150q219 0 344 -152l60 77h178l-185 -457l24 -457h-179zM958 731q-80 98 -214 98q-135 0 -251.5 -100t-142.5 -247q-26 -146 55.5 -245t216.5 -99q134 0 248 96q90 76 119 227
q34 189 -31 270z" />
    <glyph glyph-name="beta" unicode="&#x3b2;" horiz-adv-x="986" 
d="M494 142q110 0 205.5 81.5t117.5 203.5q22 123 -44.5 212t-222.5 120l-58 3l27 154q69 1 111 16.5t102 69t73 127.5q13 75 -26.5 122t-101.5 47q-58 0 -111.5 -50t-70.5 -147l-250 -1416h-181l251 1426q27 150 136 248.5t255 98.5q147 0 227 -99t57 -230
q-24 -133 -167 -279q34 -11 108 -107q102 -136 70 -316q-32 -181 -187.5 -313t-348.5 -132q-65 0 -136 22l102 148q36 -10 63 -10z" />
    <glyph glyph-name="gamma" unicode="&#x3b3;" horiz-adv-x="1004" 
d="M415 34l-214 880h198l152 -625l376 625h198l-525 -875l-63 -357h-184z" />
    <glyph glyph-name="delta" unicode="&#x3b4;" horiz-adv-x="1179" 
d="M342 482q-26 -146 55.5 -245t216.5 -99q134 0 251 99t143 245q26 147 -56 247t-216 100q-135 0 -251.5 -100t-142.5 -247zM1127 814q102 -125 65 -332q-36 -205 -211.5 -355.5t-394.5 -150.5q-217 0 -341 150.5t-88 355.5q37 207 211 355q157 133 321 151l-290 446h750
l-27 -156h-387q143 -261 216.5 -300t175.5 -164z" />
    <glyph glyph-name="epsilon" unicode="&#x3b5;" horiz-adv-x="838" 
d="M247 460q-77 69 -77 156q0 18 3 36q20 111 138 190t264 79q145 0 235 -79q71 -62 71 -177q0 -17 -2 -35h-184v15q0 68 -33 97q-42 37 -112 37q-71 0 -126 -37t-65 -90q-2 -9 -2 -18q0 -40 35 -70q18 -16 31 -22h259l-28 -156h-236q-30 -7 -63 -29q-54 -36 -63 -89
q-2 -10 -2 -20q0 -40 34 -69q42 -37 113 -37q70 0 125.5 36.5t65.5 89.5l8 48h185l-8 -48q-20 -111 -138 -190t-263 -79q-146 0 -236 79q-74 65 -74 151q0 19 4 39q19 109 141 192z" />
    <glyph glyph-name="zeta" unicode="&#x3b6;" horiz-adv-x="866" 
d="M1126 1361q-618 -527 -752 -885q-21 -56 -29 -102q-40 -225 235 -234q286 -10 247 -227q-68 -189 -310 -197l28 161q92 0 105 50v4q9 51 -95 51q-457 9 -392 378q7 42 23 88q129 422 634 834h-458l27 157h750z" />
    <glyph glyph-name="eta" unicode="&#x3b7;" horiz-adv-x="918" 
d="M391 682l-120 -682h-181l161 914h181q35 50 199 50q173 0 260.5 -106t62.5 -259l-162 -917h-180l160 909q17 93 -35.5 154.5t-133.5 61.5q-80 0 -151 -58q-41 -35 -61 -67z" />
    <glyph glyph-name="theta" unicode="&#x3b8;" horiz-adv-x="1195" 
d="M1056 708q49 279 -28 424.5t-205 145.5q-129 0 -256.5 -145.5t-176.5 -424.5q-50 -280 26.5 -425t205.5 -145q128 0 256 145t178 425zM1240 708q-59 -332 -241.5 -532t-404.5 -200q-223 0 -335.5 200t-53.5 532q58 331 241 531t406 200q222 0 334 -200t54 -531zM523 787
h426l-27 -157h-426z" />
    <glyph glyph-name="iota" unicode="&#x3b9;" horiz-adv-x="470" 
d="M486 914l-161 -914h-180l161 914h180z" />
    <glyph glyph-name="kappa" unicode="&#x3ba;" horiz-adv-x="843" 
d="M908 914l-292 -298l239 -616h-207l-177 476l-127 -118l-63 -358h-181l161 914h181l-51 -289l299 289h218z" />
    <glyph glyph-name="lambda" unicode="&#x3bb;" horiz-adv-x="966" 
d="M916 0h-195l-149 506l-327 -506h-195l462 720l-160 550h195z" />
    <glyph glyph-name="uni03BC" unicode="&#x3bc;" horiz-adv-x="957" 
d="M680 67q-38 -75 -210 -75q-161 0 -177 19l-58 -329h-181l217 1232h181l-115 -654q7 -25 30 -53q49 -58 130 -58q80 0 153 60q48 41 71 90l108 615h179l-161 -914h-179z" />
    <glyph glyph-name="nu" unicode="&#x3bd;" horiz-adv-x="946" 
d="M402 914l133 -548l330 548h198l-613 -1034l-246 1034h198z" />
    <glyph glyph-name="xi" unicode="&#x3be;" horiz-adv-x="964" 
d="M234.5 128.5q-111.5 116.5 -79.5 298.5q32 180 182 316q107 96 145 107q-96 125 -72 261q75 326 479 327l261 2l-27 -151h-232q-254 0 -284 -172l-1 -7q-13 -73 23.5 -117.5t110.5 -75.5l311 -1l-27 -156l-301 2q-167 -33 -264.5 -122.5t-119.5 -212.5
q-21 -120 48.5 -189t337.5 -100t229 -251l-4 -23q-63 -148 -314 -171l31 175q101 0 108 31l1 4q13 73 -208.5 91t-333 134.5z" />
    <glyph glyph-name="omicron" unicode="&#x3bf;" horiz-adv-x="1179" 
d="M765 989q219 0 341.5 -150t85.5 -357q-36 -205 -211.5 -355.5t-394.5 -150.5q-217 0 -341 150.5t-88 355.5q37 207 214 357t394 150zM484.5 729q-116.5 -100 -142.5 -247q-26 -146 55.5 -245t216.5 -99q134 0 251 99t143 245q26 147 -56 247t-216 100q-135 0 -251.5 -100
z" />
    <glyph glyph-name="pi" unicode="&#x3c0;" horiz-adv-x="1179" 
d="M622 758l-134 -758h-180l134 758h-248l28 156h1059l-28 -156h-247l-134 -758h-180l134 758h-204z" />
    <glyph glyph-name="rho" unicode="&#x3c1;" horiz-adv-x="1176" 
d="M198 599q66 152 211.5 270.5t362.5 118.5q218 0 342 -149.5t87 -356.5q-36 -205 -212.5 -355.5t-394.5 -150.5t-302 132l-75 -426h-181zM372 559l-28 -154q1 -97 63 -171q81 -97 215 -97t251 99.5t143 245.5q26 147 -56 247t-216 100t-254 -102q-83 -71 -118 -168z" />
    <glyph glyph-name="sigma1" unicode="&#x3c2;" horiz-adv-x="980" 
d="M275 133q-132 109 -99 294q31 180 181 315q169 156 477 175l238 -1l-28 -156h-192q-237 -7 -354 -109t-138 -224q-21 -117 68 -183.5t287 -113.5t169 -214l-4 -22q-66 -168 -318 -191l31 174q100 0 111 50l1 4q6 31 -146 62t-284 140z" />
    <glyph glyph-name="sigma" unicode="&#x3c3;" horiz-adv-x="1259" 
d="M352 482q-26 -146 55.5 -245t216.5 -99q134 0 251 99t143 245q26 147 -56 247t-216 100q-135 0 -251.5 -100t-142.5 -247zM1178 758q59 -80 24 -276q-36 -205 -211.5 -355.5t-394.5 -150.5q-217 0 -341 150.5t-88 355.5q37 207 214 357t394 150q163 0 260 -75h315
l-27 -156h-145z" />
    <glyph glyph-name="tau" unicode="&#x3c4;" horiz-adv-x="991" 
d="M720 758l-134 -758h-180l134 758h-344l28 156h867l-28 -156h-343z" />
    <glyph glyph-name="upsilon" unicode="&#x3c5;" 
d="M481 -12q-182 0 -269 106t-63 260l99 561h181l-98 -554q-16 -92 38 -156q50 -61 138 -61q80 0 154 62.5t90 154.5l98 554h181l-99 -561q-30 -154 -156 -262q-122 -104 -294 -104z" />
    <glyph glyph-name="phi" unicode="&#x3c6;" horiz-adv-x="1196" 
d="M516 -12q-149 9 -264 150q-122 147 -86 353q37 207 211 354q58 51 158 105l29 -160q-46 -33 -70 -54q-116 -99 -142 -245q-26 -147 58 -248q77 -95 128 -95l119 677q43 128 178 128q74 0 175 -49q244 -119 192 -413q-36 -205 -209 -353q-157 -134 -296 -147l-53 -304
h-181zM723 174q84 13 148 68q121 102 147 249q32 178 -99 262q-54 34 -78 34q-5 0 -9 -1z" />
    <glyph glyph-name="chi" unicode="&#x3c7;" horiz-adv-x="1095" 
d="M579 175l-384 -488h-200l512 653l-248 574h201l177 -408l320 408h201l-450 -574l282 -653h-200z" />
    <glyph glyph-name="psi" unicode="&#x3c8;" horiz-adv-x="1231" 
d="M707 -11l-52 -293h-187l52 293q-144 10 -258 149q-122 147 -86 353l75 424h186l-75 -424q-26 -147 58 -248q77 -95 128 -95l135 767h187l-135 -767q51 0 162 95q118 101 144 248l75 424h186l-75 -424q-36 -206 -211 -353q-162 -139 -309 -149z" />
    <glyph glyph-name="omega" unicode="&#x3c9;" horiz-adv-x="1415" 
d="M651 189l94 530h180l-94 -530q40 -62 134 -62q99 0 174 85.5t111 293.5q34 189 -41 346l11 62h160q88 -215 54 -408q-44 -251 -167 -390.5t-318 -139.5t-230 82q-64 -82 -259 -82t-270 139.5t-31 390.5q35 196 206 408h161l-10 -58q-135 -144 -172 -350
q-36 -208 7.5 -293.5t142.5 -85.5q94 0 157 62z" />
    <glyph glyph-name="iotadieresis" unicode="&#x3ca;" horiz-adv-x="470" 
d="M486 914l-161 -914h-180l161 914h180zM402.5 1235.5q30.5 -35.5 22.5 -79.5q-8 -46 -51 -81.5t-98 -35.5q-57 0 -86.5 35.5t-21.5 81.5q8 44 50 79.5t99 35.5q55 0 85.5 -35.5zM687 1235.5q30 -35.5 22 -79.5q-8 -46 -50.5 -81.5t-98.5 -35.5t-86 35.5t-22 81.5
q8 44 50.5 79.5t98.5 35.5t86 -35.5z" />
    <glyph glyph-name="upsilondieresis" unicode="&#x3cb;" 
d="M481 -12q-182 0 -269 106t-63 260l99 561h181l-98 -554q-16 -92 38 -156q50 -61 138 -61q80 0 154 62.5t90 154.5l98 554h181l-99 -561q-30 -154 -156 -262q-122 -104 -294 -104zM645 1235.5q30 -35.5 23 -79.5q-9 -46 -51.5 -81.5t-97.5 -35.5q-57 0 -87 35.5t-21 81.5
q7 44 49.5 79.5t99.5 35.5q55 0 85 -35.5zM929.5 1235.5q29.5 -35.5 22.5 -79.5q-9 -46 -51 -81.5t-98 -35.5t-86.5 35.5t-21.5 81.5q7 44 50 79.5t99 35.5t85.5 -35.5z" />
    <glyph glyph-name="omicrontonos" unicode="&#x3cc;" horiz-adv-x="1179" 
d="M765 989q219 0 341.5 -150t85.5 -357q-36 -205 -211.5 -355.5t-394.5 -150.5q-217 0 -341 150.5t-88 355.5q37 207 214 357t394 150zM484.5 729q-116.5 -100 -142.5 -247q-26 -146 55.5 -245t216.5 -99q134 0 251 99t143 245q26 147 -56 247t-216 100q-135 0 -251.5 -100
zM1126 1270l-356 -239h-188l249 239h295z" />
    <glyph glyph-name="upsilontonos" unicode="&#x3cd;" 
d="M481 -12q-182 0 -269 106t-63 260l99 561h181l-98 -554q-16 -92 38 -156q50 -61 138 -61q80 0 154 62.5t90 154.5l98 554h181l-99 -561q-30 -154 -156 -262q-122 -104 -294 -104zM1014 1270l-355 -239h-189l250 239h294z" />
    <glyph glyph-name="omegatonos" unicode="&#x3ce;" horiz-adv-x="1415" 
d="M651 189l94 530h180l-94 -530q40 -62 134 -62q99 0 174 85.5t111 293.5q34 189 -41 346l11 62h160q88 -215 54 -408q-44 -251 -167 -390.5t-318 -139.5t-230 82q-64 -82 -259 -82t-270 139.5t-31 390.5q35 196 206 408h161l-10 -58q-135 -144 -172 -350
q-36 -208 7.5 -293.5t142.5 -85.5q94 0 157 62zM1266 1269l-355 -238h-189l250 238h294z" />
    <glyph glyph-name="afii10023" unicode="&#x401;" horiz-adv-x="1007" 
d="M1149 1439l-28 -157h-602l-85 -484h602l-28 -157h-602l-85 -484h602l-28 -157h-783l254 1439h783zM764 1760.5q30 -35.5 22 -79.5q-8 -46 -50.5 -81.5t-97.5 -35.5q-57 0 -87 35.5t-22 81.5q8 44 50.5 79.5t99.5 35.5q55 0 85 -35.5zM1048.5 1760.5
q29.5 -35.5 21.5 -79.5q-8 -46 -50 -81.5t-98 -35.5t-86.5 35.5t-22.5 81.5q8 44 51 79.5t99 35.5t85.5 -35.5z" />
    <glyph glyph-name="afii10051" unicode="&#x402;" horiz-adv-x="1499" 
d="M675 516l-91 -516h-180l226 1282h-344l28 157h867l-28 -157h-343l-83 -469q127 127 349 127q221 0 345 -130q122 -106 76 -370q-47 -264 -207 -380q-45 -34 -142 -86l-88 121q74 40 104 64q115 87 150 271q30 184 -54 271t-220 87q-135 0 -240 -85q-100 -82 -125 -187z
" />
    <glyph glyph-name="afii10052" unicode="&#x403;" horiz-adv-x="862" 
d="M1064 1439l-28 -157h-517l-226 -1282h-181l254 1439h698zM1113 1798l-355 -239h-189l250 239h294z" />
    <glyph glyph-name="afii10053" unicode="&#x404;" horiz-adv-x="1615" 
d="M1257 800l-28 -157h-834q-21 -178 105 -332q140 -169 370 -169q231 0 431 169q101 87 180 229h189q-106 -209 -260 -340q-254 -216 -568 -216q-313 0 -492 217.5t-126 520.5q54 301 309.5 519t568.5 218q314 0 497 -220q51 -64 107 -191h-205q-33 54 -55 83
q-140 170 -371 170q-230 0 -430 -170q-182 -154 -222 -331h834z" />
    <glyph glyph-name="afii10054" unicode="&#x405;" horiz-adv-x="1017" 
d="M644 757q-146 51 -223.5 145t-53.5 227q23 130 138 228.5t260 98.5q143 0 227 -101q44 -52 57 -146l-173 -63q-16 81 -36 105q-40 50 -103 50q-62 0 -119 -48.5t-70 -123.5q-13 -74 28 -126q43 -50 125 -92q163 -56 258 -172q110 -132 78 -312t-186.5 -311.5
t-345.5 -131.5q-192 0 -301 135q-86 103 -81 267l185 63q-12 -157 49 -229q66 -80 176 -80q111 0 208 82.5t118 204.5q22 122 -45 203q-68 81 -170 127z" />
    <glyph glyph-name="afii10055" unicode="&#x406;" horiz-adv-x="425" 
d="M557 1439l-254 -1439h-181l254 1439h181z" />
    <glyph glyph-name="afii10056" unicode="&#x407;" horiz-adv-x="425" 
d="M557 1439l-254 -1439h-181l254 1439h181zM473 1760.5q30 -35.5 22 -79.5q-8 -46 -50.5 -81.5t-97.5 -35.5q-57 0 -87 35.5t-22 81.5q8 44 50.5 79.5t99.5 35.5q55 0 85 -35.5zM757.5 1760.5q29.5 -35.5 21.5 -79.5q-8 -46 -50 -81.5t-98 -35.5t-86.5 35.5t-22.5 81.5
q8 44 51 79.5t99 35.5t85.5 -35.5z" />
    <glyph glyph-name="afii10057" unicode="&#x408;" horiz-adv-x="400" 
d="M288 14q-21 -117 -119 -197.5t-277 -80.5l26 150q97 0 136 32q42 36 55 106l249 1415h181z" />
    <glyph glyph-name="afii10058" unicode="&#x409;" horiz-adv-x="2016" 
d="M988 0l226 1282h-591l-177 -1002q-20 -116 -118.5 -200.5t-278.5 -84.5l28 157q97 0 135 32q43 36 55 106l203 1149h953l-114 -643h393q167 -3 251.5 -118.5t56.5 -274.5q-30 -168 -155.5 -284t-292.5 -119h-574zM1282 639l-85 -482h385q79 0 154.5 72t93.5 173
q16 94 -34 165.5t-129 71.5h-385z" />
    <glyph glyph-name="afii10059" unicode="&#x40a;" horiz-adv-x="1901" 
d="M872 0l113 641h-591l-113 -641h-181l254 1439h181l-113 -641h591l113 641h181l-114 -643h401q168 -3 252 -118.5t56 -274.5q-30 -168 -154.5 -284t-293.5 -119h-582zM1166 639l-85 -482h394q78 0 153.5 72t93.5 173q16 94 -33.5 165.5t-128.5 71.5h-394z" />
    <glyph glyph-name="afii10060" unicode="&#x40b;" horiz-adv-x="1497" 
d="M667 516l-91 -516h-180l226 1282h-344l28 157h867l-28 -157h-343l-83 -469q127 127 349 127t338 -132q111 -129 64 -392l-73 -416h-187l76 424q33 189 -42 280q-73 89 -197 89h-13q-136 -4 -242 -90q-99 -82 -125 -187z" />
    <glyph glyph-name="afii10061" unicode="&#x40c;" horiz-adv-x="1102" 
d="M1128 1439l-477 -550l465 -889h-211l-387 741l-118 -135l-107 -606h-181l254 1439h181l-94 -532l465 532h210zM1113 1798l-355 -239h-189l250 239h294z" />
    <glyph glyph-name="uni040D" unicode="&#x40d;" horiz-adv-x="1398" 
d="M1543 1439l-254 -1439h-181l198 1121l-997 -1121h-200l254 1439h181l-203 -1150l1023 1150h179zM989 1798l166 -239h-190l-270 239h294z" />
    <glyph glyph-name="afii10062" unicode="&#x40e;" horiz-adv-x="1242" 
d="M443 67q-114 -78 -208 -78q-65 0 -143 55l103 141q72 -44 95 -44q8 0 16 2q34 9 199 209l142 179l-433 908h203l355 -743l564 743h199q-927 -1259 -1092 -1372zM1196 1800q-49 -101 -100 -144q-86 -75 -194 -75q-110 0 -170 75q-36 45 -50 144h168q14 -40 23 -52
q21 -25 54 -25q31 0 61 26q15 11 41 51h167z" />
    <glyph glyph-name="afii10145" unicode="&#x40f;" horiz-adv-x="1193" 
d="M503 1h-413l254 1438h181l-226 -1281h651l226 1281h181l-254 -1439h-420l-56 -318h-180z" />
    <glyph glyph-name="afii10017" unicode="&#x410;" horiz-adv-x="1208" 
d="M876 754l-71 382l-206 -382h277zM938 1439l267 -1439h-188l-112 598h-391l-326 -598h-189l782 1439h157z" />
    <glyph glyph-name="afii10018" unicode="&#x411;" horiz-adv-x="1100" 
d="M245 798l113 641h698l-27 -157h-517l-86 -484h387q168 -3 252 -118.5t56 -274.5q-30 -168 -154.5 -284t-293.5 -119h-387v-2h-181v2h-5l28 157h5l85 482h-5l27 157h5zM399 641l-85 -482h380q78 0 153.5 72t93.5 173q16 94 -34 165.5t-128 71.5h-380z" />
    <glyph glyph-name="afii10019" unicode="&#x412;" horiz-adv-x="1102" 
d="M583 157q125 0 235 93.5t134 232.5q25 139 -52 233t-202 94h-262l-115 -653h262zM519 1283l-55 -316h290q60 6 97 39q52 43 65 115q12 70 -26 116t-96 46h-275zM1055 821q115 -140 80 -338q-34 -196 -205 -341q-138 -118 -321 -142h-497l254 1439h457q141 0 219 -95
t56 -223q-23 -129 -132 -221q31 -8 89 -79z" />
    <glyph glyph-name="afii10020" unicode="&#x413;" horiz-adv-x="862" 
d="M1064 1439l-28 -157h-517l-226 -1282h-181l254 1439h698z" />
    <glyph glyph-name="afii10021" unicode="&#x414;" horiz-adv-x="1231" 
d="M913 164l197 1118h-378q3 -94 -26 -256q-104 -591 -405 -862h612zM1095 164h75l-85 -482h-180l56 318h-761l-56 -318h-180l85 482h33q350 335 443 862q28 157 15 413h779z" />
    <glyph glyph-name="afii10022" unicode="&#x415;" horiz-adv-x="1007" 
d="M1149 1439l-28 -157h-602l-85 -484h602l-28 -157h-602l-85 -484h602l-28 -157h-783l254 1439h783z" />
    <glyph glyph-name="afii10024" unicode="&#x416;" horiz-adv-x="1797" 
d="M1150 908l464 531h210l-477 -550l464 -889h-210l-387 741l-117 -134l-107 -607h-182l107 607l-69 134l-650 -741h-210l778 889l-283 550h210l277 -531l94 531h182z" />
    <glyph glyph-name="afii10025" unicode="&#x417;" horiz-adv-x="996" 
d="M637 646h-373l28 156h373q102 0 172 67t91 186q21 115 -44 177.5t-165 62.5q-177 0 -429 -165l32 185q200 131 404 131q196 0 307 -105t81 -275q-45 -258 -187 -338q116 -65 67 -345q-30 -170 -178.5 -276t-344.5 -106q-209 0 -356 139l43 242q153 -220 342 -220
q102 0 196.5 58t114.5 172q21 119 -26 186.5t-148 67.5z" />
    <glyph glyph-name="afii10026" unicode="&#x418;" horiz-adv-x="1398" 
d="M1543 1439l-254 -1439h-181l198 1121l-997 -1121h-200l254 1439h181l-203 -1150l1023 1150h179z" />
    <glyph glyph-name="afii10027" unicode="&#x419;" horiz-adv-x="1398" 
d="M1543 1439l-254 -1439h-181l198 1121l-997 -1121h-200l254 1439h181l-203 -1150l1023 1150h179zM1273 1800q-48 -101 -99 -144q-86 -75 -194 -75q-110 0 -170 75q-36 45 -51 144h168q14 -40 24 -52q21 -25 54 -25q31 0 60 26q15 11 41 51h167z" />
    <glyph glyph-name="afii10028" unicode="&#x41a;" horiz-adv-x="1102" 
d="M1128 1439l-477 -550l465 -889h-211l-387 741l-118 -135l-107 -606h-181l254 1439h181l-94 -532l465 532h210z" />
    <glyph glyph-name="afii10029" unicode="&#x41b;" horiz-adv-x="1263" 
d="M446 280q-20 -116 -118.5 -200.5t-278.5 -84.5l28 157q97 0 135 32q43 36 55 106l203 1149h953l-254 -1439h-181l226 1282h-591z" />
    <glyph glyph-name="afii10030" unicode="&#x41c;" horiz-adv-x="1496" 
d="M1657 1439l-254 -1439h-181l206 1170l-582 -621l-365 621l-206 -1170h-181l254 1439h193l355 -605l568 605h193z" />
    <glyph glyph-name="afii10031" unicode="&#x41d;" horiz-adv-x="1141" 
d="M388 641l-113 -641h-181l254 1439h181l-113 -641h591l113 641h181l-254 -1439h-181l113 641h-591z" />
    <glyph glyph-name="afii10032" unicode="&#x41e;" horiz-adv-x="1621" 
d="M1560.5 1241q179.5 -218 125.5 -519q-53 -303 -309 -520.5t-570 -217.5q-313 0 -492 217.5t-126 520.5q54 301 309.5 519t568.5 218q314 0 493.5 -218zM1040 1301q-230 0 -428 -168.5t-241 -410.5q-43 -244 95.5 -412t368.5 -168q231 0 428.5 168t240.5 412
q43 242 -95 410.5t-369 168.5z" />
    <glyph glyph-name="afii10033" unicode="&#x41f;" horiz-adv-x="1141" 
d="M501 1282l-226 -1282h-181l254 1439h953l-254 -1439h-181l226 1282h-591z" />
    <glyph glyph-name="afii10034" unicode="&#x420;" horiz-adv-x="1032" 
d="M376 471l-83 -471h-181l254 1439h412q176 -24 275 -146q116 -141 82 -337q-35 -197 -203.5 -341t-377.5 -144h-178zM519 1281l-115 -652h178q126 0 236.5 93.5t135.5 233.5q24 139 -53.5 232t-203.5 93h-178z" />
    <glyph glyph-name="afii10035" unicode="&#x421;" horiz-adv-x="1419" 
d="M1286 317l107 -112q-282 -221 -574 -221q-314 0 -492.5 216.5t-125.5 519.5q53 300 308 518t569 218q292 0 496 -222l-146 -112q-167 175 -378 175q-230 0 -427 -167.5t-240 -409.5q-43 -244 95.5 -411t368.5 -167q211 0 439 175z" />
    <glyph glyph-name="afii10036" unicode="&#x422;" horiz-adv-x="971" 
d="M802 1282l-226 -1282h-180l226 1282h-344l28 157h867l-28 -157h-343z" />
    <glyph glyph-name="afii10037" unicode="&#x423;" horiz-adv-x="1242" 
d="M443 67q-114 -78 -208 -78q-65 0 -143 55l103 141q72 -44 95 -44q8 0 16 2q34 9 199 209l142 179l-433 908h203l355 -743l564 743h199q-927 -1259 -1092 -1372z" />
    <glyph glyph-name="afii10038" unicode="&#x424;" horiz-adv-x="1467" 
d="M716 415l103 585q-156 -4 -287 -85q-139 -86 -160 -207q-22 -122 87 -208q103 -80 257 -85zM868 250l-44 -246h-181l44 246q-230 7 -377 133q-159 135 -125 325q33 191 241 326q191 124 422 131l48 272h181l-48 -272q231 -7 378 -131q158 -135 125 -326
q-34 -189 -240 -325q-191 -126 -424 -133zM1000 1000l-103 -585q156 5 287 85q140 86 162 208q21 121 -89 207q-103 81 -257 85z" />
    <glyph glyph-name="afii10039" unicode="&#x425;" horiz-adv-x="1137" 
d="M15 0l592 787l-261 652h200l191 -479l361 479h201l-492 -652l316 -787h-201l-246 613l-462 -613h-199z" />
    <glyph glyph-name="afii10040" unicode="&#x426;" horiz-adv-x="1205" 
d="M1005 1h-905l254 1438h181l-226 -1281h651l226 1281h181l-225 -1275h72l-85 -482h-180z" />
    <glyph glyph-name="afii10041" unicode="&#x427;" horiz-adv-x="1164" 
d="M1066 925l91 514h180l-254 -1439h-180l110 627q-127 -127 -348 -127q-223 0 -338 133q-112 128 -66 391l74 415h188l-76 -422q-33 -190 41 -281q73 -89 198 -89h13q135 4 241 91q98 81 126 187z" />
    <glyph glyph-name="afii10042" unicode="&#x428;" horiz-adv-x="1661" 
d="M354 1439h181l-226 -1281h459l226 1281h181l-226 -1281h460l226 1281h180l-254 -1438h-1461z" />
    <glyph glyph-name="afii10043" unicode="&#x429;" horiz-adv-x="1660" 
d="M1454 1h-1354l254 1438h181l-226 -1281h459l226 1281h181l-226 -1281h460l226 1281h180l-225 -1275h72l-85 -482h-179z" />
    <glyph glyph-name="afii10044" unicode="&#x42a;" horiz-adv-x="1388" 
d="M571 1282h-325l28 157h506l-114 -643h391q168 -3 252 -118.5t56 -274.5q-30 -168 -155 -284t-293 -119h-572zM639 639l-85 -482h384q79 0 154 72t93 173q16 94 -33.5 165.5t-128.5 71.5h-384z" />
    <glyph glyph-name="afii10045" unicode="&#x42b;" horiz-adv-x="1452" 
d="M1615 1439l-254 -1439h-181l254 1439h181zM93 0l254 1439h181l-114 -643h400q167 -3 251 -118.5t56 -274.5q-30 -168 -154.5 -284t-292.5 -119h-581zM387 639l-85 -482h392q79 0 154.5 72t93.5 173q16 94 -34 165.5t-129 71.5h-392z" />
    <glyph glyph-name="afii10046" unicode="&#x42c;" horiz-adv-x="1100" 
d="M93 0l254 1439h181l-114 -643h400q167 -3 251 -118.5t56 -274.5q-30 -168 -154.5 -284t-292.5 -119h-581zM387 639l-85 -482h392q79 0 154.5 72t93.5 173q16 94 -34 165.5t-129 71.5h-392z" />
    <glyph glyph-name="afii10047" unicode="&#x42d;" horiz-adv-x="1629" 
d="M1496 800q21 177 -105 331q-140 170 -370 170q-231 0 -431 -170q-33 -29 -84 -83h-207q102 127 176 191q260 220 574 220q313 0 492 -218t126 -519q-53 -303 -309 -520.5t-569 -217.5q-314 0 -496 220q-105 127 -136 336h188q28 -142 104 -233q137 -165 368 -165
q230 0 430 169q180 154 221 332h-834l28 157h834z" />
    <glyph glyph-name="afii10048" unicode="&#x42e;" horiz-adv-x="2070" 
d="M1488 1301q-230 0 -427.5 -168.5t-240.5 -410.5q-43 -244 95.5 -412t368.5 -168q231 0 428.5 168t240.5 412q43 242 -95.5 410.5t-369.5 168.5zM627 641h-233l-113 -641h-181l254 1439h181l-113 -641h233q53 239 295 445q253 216 566 216q314 0 493 -218t126 -519
q-53 -303 -309 -520.5t-570 -217.5q-313 0 -494 220q-165 200 -135 437z" />
    <glyph glyph-name="afii10049" unicode="&#x42f;" horiz-adv-x="1043" 
d="M809 1281q-126 0 -236.5 -93t-134.5 -232q-25 -140 52.5 -233.5t203.5 -93.5h179l115 652h-179zM290 0h-210l411 499q-70 18 -150 115q-118 145 -83 342q34 196 199 337q143 122 327 146h412l-254 -1439h-180l83 471l-172 -2z" />
    <glyph glyph-name="afii10065" unicode="&#x430;" horiz-adv-x="1188" 
d="M1099 0h-181l28 160q-139 -184 -358 -184q-217 0 -341 150.5t-88 355.5q37 207 214 357t394 150q219 0 293 -182l19 107h181zM990 410l26 146q-1 99 -61 171q-83 102 -217 102q-135 0 -251.5 -100t-142.5 -247q-26 -146 55.5 -245t216.5 -99q134 0 253 101q85 72 121 171
z" />
    <glyph glyph-name="afii10066" unicode="&#x431;" horiz-adv-x="1242" 
d="M404 482q-26 -146 56 -245t216 -99t251 99t143 245q26 147 -56 247t-216 100t-251 -100t-143 -247zM407 781q203 208 420 208q219 0 342 -150t86 -357q-36 -205 -212 -355.5t-395 -150.5q-217 0 -342 153q-109 131 -95 271h-3q-5 199 19 337q49 280 215 461
q215 235 452 235q50 0 98 -10q108 -23 176 -23q57 0 193 165l-45 -255q-55 -64 -169 -64q-77 0 -194 25q-37 8 -71 8q-161 0 -310 -174q-122 -143 -165 -324z" />
    <glyph glyph-name="afii10067" unicode="&#x432;" horiz-adv-x="836" 
d="M375 540h133v-1q109 5 146.5 37t45.5 74q7 42 -19.5 74t-133.5 37v-2h-133zM346 376l-38 -219h133v-1q108 5 145.5 36.5t45.5 73.5q7 43 -19 74.5t-134 36.5v-1h-133zM262 916h420l-1 -3q83 -4 150 -84.5t50 -178.5l-1 -1q-17 -97 -116 -191q66 -94 49 -191v-1
q-17 -98 -112.5 -178.5t-179.5 -84.5l-1 -3h-420z" />
    <glyph glyph-name="afii10068" unicode="&#x433;" horiz-adv-x="694" 
d="M414 758l-134 -758h-180l161 914h524l-27 -156h-344z" />
    <glyph glyph-name="afii10069" unicode="&#x434;" horiz-adv-x="1019" 
d="M931 164h67l-85 -482h-180l56 318h-559l-56 -318h-180l85 482h95q-7 -7 -7 -8q191 164 251 504q13 70 17 134q2 38 0 120h628zM392 157h358l106 601h-240q-3 -24 -16 -98q-62 -355 -208 -503z" />
    <glyph glyph-name="afii10070" unicode="&#x435;" horiz-adv-x="1108" 
d="M383 643h599q-32 186 -266 186q-235 0 -333 -186zM323 485l-1 -3q-26 -146 55.5 -245t216.5 -99q134 0 253 101q17 14 65 63l160 -60q-49 -64 -108 -113q-179 -153 -398 -153q-217 0 -341 150.5t-88 355.5q37 207 214 357t394 150q219 0 344 -152q107 -132 69 -352h-835z
" />
    <glyph glyph-name="afii10072" unicode="&#x436;" horiz-adv-x="1304" 
d="M853 626l298 288h218l-292 -298l239 -616h-207l-176 476l-127 -117l-63 -359h-182l63 359l-85 117l-344 -476h-207l457 616l-188 298h218l196 -288l51 288h182z" />
    <glyph glyph-name="afii10073" unicode="&#x437;" horiz-adv-x="838" 
d="M816 268q-20 -111 -138 -190t-264 -79q-145 0 -235 79t-70 190l8 48h185l-8 -48q-10 -53 32.5 -89.5t112.5 -36.5q71 0 126 36.5t65 89.5q9 53 -33 89q-25 22 -53 29h-236l28 156h259q15 6 39 22q54 36 63 88q10 53 -32 90t-113 37q-70 0 -126 -37q-47 -32 -73 -112h-184
q38 141 145 212q118 79 263 79q146 0 236 -79t70 -190q-19 -109 -142 -192q94 -83 75 -192z" />
    <glyph glyph-name="afii10074" unicode="&#x438;" horiz-adv-x="974" 
d="M251 914h180l-105 -598l556 598h163l-161 -914h-180l107 606l-536 -575l-5 -31h-180z" />
    <glyph glyph-name="afii10075" unicode="&#x439;" horiz-adv-x="974" 
d="M251 914h180l-105 -598l556 598h163l-161 -914h-180l107 606l-536 -575l-5 -31h-180zM969 1272q-51 -102 -100 -144q-87 -75 -194 -75q-110 0 -171 75q-35 44 -52 144h171q13 -40 23 -52q20 -25 54 -25q31 0 60 26q14 11 41 51h168z" />
    <glyph glyph-name="afii10076" unicode="&#x43a;" horiz-adv-x="843" 
d="M908 914l-292 -298l239 -616h-207l-177 476l-127 -118l-63 -358h-181l161 914h181l-51 -289l299 289h218z" />
    <glyph glyph-name="afii10077" unicode="&#x43b;" horiz-adv-x="1054" 
d="M1125 914l-161 -914h-180l134 758h-451l-93 -526q-38 -215 -325 -237l27 155q105 11 117 80l121 684h811z" />
    <glyph glyph-name="afii10078" unicode="&#x43c;" horiz-adv-x="1050" 
d="M576 281l384 633h171l-161 -914h-180l78 440l-268 -440h-150l-112 440l-78 -440h-180l161 914h171z" />
    <glyph glyph-name="afii10079" unicode="&#x43d;" horiz-adv-x="972" 
d="M892 0h-180l73 413h-452l-73 -413h-180l161 914h180l-60 -344h452l60 344h180z" />
    <glyph glyph-name="afii10080" unicode="&#x43e;" horiz-adv-x="1179" 
d="M765 989q219 0 341.5 -150t85.5 -357q-36 -205 -211.5 -355.5t-394.5 -150.5q-217 0 -341 150.5t-88 355.5q37 207 214 357t394 150zM484.5 729q-116.5 -100 -142.5 -247q-26 -146 55.5 -245t216.5 -99q134 0 251 99t143 245q26 147 -56 247t-216 100q-135 0 -251.5 -100
z" />
    <glyph glyph-name="afii10081" unicode="&#x43f;" horiz-adv-x="992" 
d="M404 758l-134 -758h-180l161 914h812l-161 -914h-180l134 758h-452z" />
    <glyph glyph-name="afii10082" unicode="&#x440;" horiz-adv-x="1176" 
d="M253 914h181l-18 -105q138 179 356 179t342 -149.5t87 -356.5q-36 -205 -212.5 -355.5t-394.5 -150.5t-293 181l-84 -475h-181zM372 559l-28 -154q1 -97 63 -171q81 -97 215 -97t251 99.5t143 245.5q26 147 -56 247t-216 100t-254 -102q-83 -71 -118 -168z" />
    <glyph glyph-name="afii10083" unicode="&#x441;" horiz-adv-x="1074" 
d="M902 292l161 -63q-64 -69 -99 -100q-179 -153 -398 -153q-217 0 -341 150.5t-88 356.5q37 206 214 356t394 150q219 0 340 -148q28 -34 67 -103l-183 -64q-28 45 -39 59q-80 96 -214 96t-250.5 -99.5t-142.5 -246.5q-25 -146 56 -245.5t215 -99.5t253 101q11 9 55 53z
" />
    <glyph glyph-name="afii10084" unicode="&#x442;" horiz-adv-x="1027" 
d="M738 758l-134 -758h-180l134 758h-344l28 156h867l-28 -156h-343z" />
    <glyph glyph-name="afii10085" unicode="&#x443;" horiz-adv-x="896" 
d="M251 -317h-195l328 512l-208 719h195l149 -505l327 505h195z" />
    <glyph glyph-name="afii10086" unicode="&#x444;" horiz-adv-x="1999" 
d="M1191 574l-32 -184q6 -87 63 -156q79 -97 213 -97q135 0 251.5 99.5t142.5 245.5q26 147 -56 247t-216 100t-247 -98q-82 -69 -119 -157zM978 390l32 184q-5 88 -63 157q-79 98 -213 98q-135 0 -251.5 -100t-142.5 -247q-26 -146 55.5 -245.5t216.5 -99.5q134 0 247 97
q83 69 119 156zM1240 850q128 138 345 138q219 0 342.5 -149.5t86.5 -356.5q-36 -205 -212 -355.5t-395 -150.5q-217 0 -297 139l-73 -419h-181l73 419q-128 -139 -345 -139q-220 0 -342.5 150.5t-86.5 355.5q37 207 212.5 356.5t394.5 149.5q216 0 297 -138l74 419h181z
" />
    <glyph glyph-name="afii10087" unicode="&#x445;" horiz-adv-x="800" 
d="M383 481l-193 433h204l120 -269l214 269h204l-346 -433l214 -481h-203l-141 317l-253 -317h-203z" />
    <glyph glyph-name="afii10088" unicode="&#x446;" horiz-adv-x="1021" 
d="M799 0h-699l161 914h180l-133 -757h452l133 757h180l-132 -750h67l-85 -482h-180z" />
    <glyph glyph-name="afii10089" unicode="&#x447;" horiz-adv-x="1125" 
d="M983 731l33 189h180l-162 -920h-180l72 410q-102 -102 -325 -102t-328 134q-102 127 -56 390l16 88h188l-18 -96q-34 -190 36 -286q61 -83 184 -83h13q134 4 230 89q91 81 117 187z" />
    <glyph glyph-name="afii10090" unicode="&#x448;" horiz-adv-x="1257" 
d="M251 914h181l-133 -756h267l133 756h181l-133 -756h268l133 756h180l-161 -913h-1077z" />
    <glyph glyph-name="afii10091" unicode="&#x449;" horiz-adv-x="1299" 
d="M1080 1h-970l161 913h181l-133 -756h267l133 756h181l-133 -756h268l133 756h180l-132 -750h72l-85 -482h-179z" />
    <glyph glyph-name="afii10092" unicode="&#x44a;" horiz-adv-x="1127" 
d="M245 0l134 758h-215l28 156h395l-61 -343h357l-1 -3q82 -4 160 -84q77 -80 56 -198v-1q-21 -118 -126 -198q-106 -80 -189 -84l-1 -3h-537zM453 157h250v-1q112 5 159 38q44 32 55 91q10 60 -23 93q-34 33 -145 38l-1 -2h-250z" />
    <glyph glyph-name="afii10093" unicode="&#x44b;" horiz-adv-x="1340" 
d="M308 157h346v-1q111 5 158 38q45 32 55 91q11 60 -22 93q-35 33 -146 38v-2h-346zM1240 0h-180l161 914h180zM100 0l161 914h180l-60 -343h453l-1 -3q81 -4 159 -84q77 -80 56 -198v-1q-21 -118 -126 -198q-106 -80 -188 -84l-1 -3h-633z" />
    <glyph glyph-name="afii10094" unicode="&#x44c;" horiz-adv-x="972" 
d="M308 157h250v-1q111 5 158 38q45 32 55 91q11 60 -22 93q-35 33 -146 38v-2h-250zM100 0l161 914h180l-60 -343h357l-1 -3q81 -4 159 -84q77 -80 56 -198v-1q-21 -118 -126 -198q-106 -80 -188 -84l-1 -3h-537z" />
    <glyph glyph-name="afii10095" unicode="&#x44d;" horiz-adv-x="1164" 
d="M983 643q-3 27 -53 88q-80 98 -214 98q-135 0 -254 -102q-43 -37 -94 -116h-188q72 146 165 226q180 152 399 152q217 0 340.5 -150t87.5 -357q-36 -205 -212.5 -355.5t-393.5 -150.5q-220 0 -344 153q-25 27 -79 110h232q92 -101 219 -101q134 0 251 99t143 245l2 3
h-527l28 158h492z" />
    <glyph glyph-name="afii10096" unicode="&#x44e;" horiz-adv-x="1569" 
d="M733 482q-26 -146 56 -245t216 -99q135 0 251.5 99t142.5 245q26 147 -55.5 247t-216.5 100q-134 0 -251 -100t-143 -247zM540 413h-187l-73 -413h-180l161 914h180l-60 -344h189q37 138 190 267q178 152 395 152q219 0 342 -150t87 -357q-36 -205 -211.5 -355.5
t-395.5 -150.5q-217 0 -342 153q-113 137 -95 284z" />
    <glyph glyph-name="afii10097" unicode="&#x44f;" horiz-adv-x="876" 
d="M730 758h-154v1q-113 -5 -158 -38q-46 -33 -56 -92t24 -92t144 -38v1h154zM937 914l-161 -914h-180l60 343h-116l-8 -12l-67 -105l-144 -226h-195l227 354q-49 5 -116 76q-77 80 -56 198v1q21 119 126 199t189 83v3h441z" />
    <glyph glyph-name="afii10071" unicode="&#x451;" horiz-adv-x="1108" 
d="M383 643h599q-32 186 -266 186q-235 0 -333 -186zM323 485l-1 -3q-26 -146 55.5 -245t216.5 -99q134 0 253 101q17 14 65 63l160 -60q-49 -64 -108 -113q-179 -153 -398 -153q-217 0 -341 150.5t-88 355.5q37 207 214 357t394 150q219 0 344 -152q107 -132 69 -352h-835z
M729.5 1235.5q30.5 -35.5 22.5 -79.5q-8 -46 -51 -81.5t-98 -35.5q-57 0 -86.5 35.5t-21.5 81.5q8 44 50 79.5t99 35.5q55 0 85.5 -35.5zM1014 1235.5q30 -35.5 22 -79.5q-8 -46 -50.5 -81.5t-98.5 -35.5t-86 35.5t-22 81.5q8 44 50.5 79.5t98.5 35.5t86 -35.5z" />
    <glyph glyph-name="afii10099" unicode="&#x452;" horiz-adv-x="964" 
d="M787 591q17 93 -35.5 154.5t-132.5 61.5q-81 0 -151 -58q-34 -28 -48 -52l-123 -697h-181l192 1090h-96l28 156h96l34 193h181l-34 -193h186l-28 -156h-186l-36 -204q33 78 194 78q172 0 259.5 -106t63.5 -259l-107 -607q-21 -117 -119.5 -201t-278.5 -84l28 157
q98 0 136 32q42 36 54 106z" />
    <glyph glyph-name="afii10100" unicode="&#x453;" horiz-adv-x="727" 
d="M414 758l-134 -758h-180l161 914h524l-27 -156h-344zM898 1270l-355 -239h-189l250 239h294z" />
    <glyph glyph-name="afii10101" unicode="&#x454;" horiz-adv-x="1152" 
d="M903 643l-28 -158h-527l2 -3q-26 -146 55.5 -245t216.5 -99q126 0 253 101h230q-80 -82 -113 -110q-179 -153 -398 -153q-217 0 -341 150.5t-88 355.5q37 207 214 357t394 150q219 0 344 -152q65 -80 86 -226h-188q-23 79 -54 116q-83 102 -217 102q-135 0 -249 -98
q-71 -61 -84 -88h492z" />
    <glyph glyph-name="afii10102" unicode="&#x455;" horiz-adv-x="727" 
d="M414 456q-92 56 -123 94q-61 74 -44 170q17 95 101.5 168t192.5 73t162 -67q56 -68 42 -149l-5 -28l-173 -66q5 113 -11 133t-42 20t-53 -23t-34 -61t15 -64q13 -18 68 -57q103 -62 146 -113q67 -84 47 -198q-21 -117 -121 -203t-228 -86t-198.5 86t-47.5 215l188 45
q-21 -116 9.5 -153t75.5 -37t89 37t55 96q10 57 -23 96q-20 23 -88 72z" />
    <glyph glyph-name="afii10103" unicode="&#x456;" horiz-adv-x="415" 
d="M458 914l-161 -914h-180l161 914h180zM506.5 1174.5q30.5 -35.5 22.5 -79.5q-8 -46 -51 -81.5t-98 -35.5q-57 0 -86.5 35.5t-21.5 81.5q8 44 50 79.5t99 35.5q55 0 85.5 -35.5z" />
    <glyph glyph-name="afii10104" unicode="&#x457;" horiz-adv-x="418" 
d="M460 914l-161 -914h-180l161 914h180zM376.5 1235.5q30.5 -35.5 22.5 -79.5q-8 -46 -51 -81.5t-98 -35.5q-57 0 -86.5 35.5t-21.5 81.5q8 44 50 79.5t99 35.5q55 0 85.5 -35.5zM661 1235.5q30 -35.5 22 -79.5q-8 -46 -50.5 -81.5t-98.5 -35.5t-86 35.5t-22 81.5
q8 44 50.5 79.5t98.5 35.5t86 -35.5z" />
    <glyph glyph-name="afii10105" unicode="&#x458;" horiz-adv-x="379" 
d="M-19 -43q105 12 117 81l155 876h180l-154 -874q-37 -208 -324 -231zM481 1174.5q30 -35.5 22 -79.5q-8 -46 -50.5 -81.5t-98.5 -35.5t-86 35.5t-22 81.5q8 44 50.5 79.5t98.5 35.5t86 -35.5z" />
    <glyph glyph-name="afii10106" unicode="&#x459;" horiz-adv-x="1658" 
d="M994 157h250v-1q111 5 157 38q46 32 56 91q11 60 -23 93q-35 33 -145 38v-2h-250zM786 0l134 758h-451l-93 -526q-38 -215 -325 -237l27 155q105 11 117 80l121 684h811l-60 -343h357l-1 -3q81 -4 159 -84q77 -80 56 -198v-1q-21 -118 -126 -198q-106 -80 -188 -84l-1 -3
h-537z" />
    <glyph glyph-name="afii10107" unicode="&#x45a;" horiz-adv-x="1594" 
d="M930 157h250v-1q111 5 157 38q46 32 56 91q11 60 -23 93q-35 33 -145 38v-2h-250zM722 0l73 413h-452l-73 -413h-180l161 914h180l-60 -344h452l60 344h180l-60 -343h357l-1 -3q81 -4 159 -84q77 -80 56 -198v-1q-21 -118 -126 -198q-106 -80 -188 -84l-1 -3h-537z" />
    <glyph glyph-name="afii10108" unicode="&#x45b;" horiz-adv-x="964" 
d="M336 1246l34 193h181l-34 -193h186l-28 -156h-186l-36 -204q33 78 194 78q172 0 259.5 -106t63.5 -259l-106 -599h-181l104 591q17 93 -35.5 154.5t-132.5 61.5q-81 0 -151 -58q-34 -28 -48 -52l-123 -697h-181l192 1090h-96l28 156h96z" />
    <glyph glyph-name="afii10109" unicode="&#x45c;" horiz-adv-x="843" 
d="M908 914l-292 -298l239 -616h-207l-177 476l-127 -118l-63 -358h-181l161 914h181l-51 -289l299 289h218zM904 1271l-355 -239h-189l250 239h294z" />
    <glyph glyph-name="uni045D" unicode="&#x45d;" horiz-adv-x="974" 
d="M251 914h180l-105 -598l556 598h163l-161 -914h-180l107 606l-536 -575l-5 -31h-180zM706 1273l166 -239h-190l-270 239h294z" />
    <glyph glyph-name="afii10110" unicode="&#x45e;" horiz-adv-x="896" 
d="M555 157l-304 -474h-195l328 512l-208 719h195l149 -505l327 505h195l-486 -757h-1zM930 1272q-51 -102 -100 -144q-86 -75 -194 -75q-110 0 -171 75q-35 44 -52 144h171q13 -40 23 -52q21 -25 54 -25q31 0 60 26q14 11 41 51h168z" />
    <glyph glyph-name="afii10193" unicode="&#x45f;" horiz-adv-x="992" 
d="M406 0h-316l161 914h180l-133 -757h452l133 757h180l-161 -914h-316l-56 -318h-180z" />
    <glyph glyph-name="afii10050" unicode="&#x490;" horiz-adv-x="914" 
d="M1036 1284v-2h-517l-226 -1282h-181l254 1439h572l40 231h180l-68 -386h-54z" />
    <glyph glyph-name="afii10098" unicode="&#x491;" horiz-adv-x="725" 
d="M414 758l-134 -758h-180l161 914h396l41 230h179l-68 -386h-395z" />
    <glyph glyph-name="uni1E02" unicode="&#x1e02;" horiz-adv-x="1102" 
d="M583 157q125 0 235 93.5t134 232.5q25 139 -52 233t-202 94h-262l-115 -653h262zM519 1283l-55 -316h290q60 6 97 39q52 43 65 115q12 70 -26 116t-96 46h-275zM1055 821q115 -140 80 -338q-34 -196 -205 -341q-138 -118 -321 -142h-497l254 1439h457q141 0 219 -95
t56 -223q-23 -129 -132 -221q31 -8 89 -79zM977 1770q27 -32 20 -73q-7 -40 -45.5 -72t-89.5 -32t-78.5 32t-20.5 72q7 41 46 73t90 32t78 -32z" />
    <glyph glyph-name="uni1E03" unicode="&#x1e03;" horiz-adv-x="1197" 
d="M353 1439h181l-111 -630q138 180 356 180t341.5 -150t87.5 -357q-36 -205 -212.5 -355.5t-394.5 -150.5t-293 181l-28 -157h-181zM379 559l-28 -154q1 -96 63 -170q81 -97 215 -97t251 99t143 245q26 147 -56 247t-216 100t-254 -102q-83 -71 -118 -168zM873 1245
q27 -32 20 -73q-7 -40 -45.5 -72t-89.5 -32t-78.5 32t-20.5 72q7 41 46 73t90 32t78 -32z" />
    <glyph glyph-name="uni1E0A" unicode="&#x1e0a;" horiz-adv-x="1252" 
d="M670 1439q359 -2 524 -203q176 -216 123 -516q-53 -303 -310 -522q-231 -196 -591 -198h-304l254 1439h304zM519 1279l-198 -1120h122q268 0 447 148q199 169 242 413q43 242 -96 413q-127 146 -395 146h-122zM1047 1770q27 -32 20 -73q-7 -40 -45.5 -72t-89.5 -32
t-78.5 32t-20.5 72q7 41 46 73t90 32t78 -32z" />
    <glyph glyph-name="uni1E0B" unicode="&#x1e0b;" horiz-adv-x="1188" 
d="M1099 0h-181l28 160q-139 -184 -358 -184q-217 0 -341 150.5t-88 355.5q37 207 214 357t394 150q219 0 293 -182l112 632h181zM990 410l26 146q-1 99 -61 171q-83 102 -217 102q-135 0 -251.5 -100t-142.5 -247q-26 -146 55.5 -245t216.5 -99q134 0 253 101
q85 72 121 171zM731 1245q27 -32 20 -73q-7 -40 -45.5 -72t-89.5 -32t-78.5 32t-20.5 72q7 41 46 73t90 32t78 -32z" />
    <glyph glyph-name="uni1E1E" unicode="&#x1e1e;" horiz-adv-x="862" 
d="M1064 1439l-28 -157h-517l-85 -484h517l-28 -157h-517l-113 -641h-181l254 1439h698zM857 1770q27 -32 20 -73q-7 -40 -45.5 -72t-89.5 -32t-78.5 32t-20.5 72q7 41 46 73t90 32t78 -32z" />
    <glyph glyph-name="uni1E1F" unicode="&#x1e1f;" horiz-adv-x="480" 
d="M421 758l-134 -758h-181l134 758h-84l27 156h84l33 187q26 107 117 186q101 80 215 80q88 0 156 -36l-80 -150q-55 35 -96 35q-36 0 -78 -33q-42 -36 -54 -89l-32 -180h170l-27 -156h-170zM684 1770q27 -32 20 -73q-7 -40 -45.5 -72t-89.5 -32t-78.5 32t-20.5 72
q7 41 46 73t90 32t78 -32z" />
    <glyph glyph-name="uni1E40" unicode="&#x1e40;" horiz-adv-x="1496" 
d="M1657 1439l-254 -1439h-181l206 1170l-582 -621l-365 621l-206 -1170h-181l254 1439h193l355 -605l568 605h193zM1145 1770q27 -32 20 -73q-7 -40 -45.5 -72t-89.5 -32t-78.5 32t-20.5 72q7 41 46 73t90 32t78 -32z" />
    <glyph glyph-name="uni1E41" unicode="&#x1e41;" horiz-adv-x="1214" 
d="M413 753l-133 -753h-181l161 914h113q83 49 193 49q128 0 200 -64q92 64 220 64t200 -88q65 -81 50 -190l-121 -685h-181l128 724q2 83 -104 83q-88 0 -134 -78l-129 -729h-181l128 724h-1q3 83 -103 83q-74 0 -125 -54zM911 1245q27 -32 20 -73q-7 -40 -45.5 -72
t-89.5 -32t-78.5 32t-20.5 72q7 41 46 73t90 32t78 -32z" />
    <glyph glyph-name="uni1E6A" unicode="&#x1e6a;" horiz-adv-x="931" 
d="M782 1282l-226 -1282h-180l226 1282h-344l28 157h867l-28 -157h-343zM862 1770q27 -32 20 -73q-7 -40 -45.5 -72t-89.5 -32t-78.5 32t-20.5 72q7 41 46 73t90 32t78 -32z" />
    <glyph glyph-name="uni1E6B" unicode="&#x1e6b;" horiz-adv-x="584" 
d="M364 914l62 355h180l-62 -355h170l-28 -156h-170l-134 -758h-180l134 758h-170l28 156h170zM697 1645q27 -32 20 -73q-7 -40 -45.5 -72t-89.5 -32t-78.5 32t-20.5 72q7 41 46 73t90 32t78 -32z" />
    <glyph glyph-name="Wgrave" unicode="&#x1e80;" horiz-adv-x="1665" 
d="M1084 1079l158 -751l494 1111h183l-640 -1439h-158l-154 758l-423 -758h-158l-132 1439h184l103 -1111l422 751h121zM1109 1798l166 -239h-190l-270 239h294z" />
    <glyph glyph-name="wgrave" unicode="&#x1e81;" horiz-adv-x="1184" 
d="M1346 914l-472 -914h-127l-79 433l-230 -433h-129l-148 914h195l83 -568l229 426h122l78 -426l282 568h196zM776 1273l166 -239h-190l-270 239h294z" />
    <glyph glyph-name="Wacute" unicode="&#x1e82;" horiz-adv-x="1665" 
d="M1084 1079l158 -751l494 1111h183l-640 -1439h-158l-154 758l-423 -758h-158l-132 1439h184l103 -1111l422 751h121zM1484 1798l-355 -239h-189l250 239h294z" />
    <glyph glyph-name="wacute" unicode="&#x1e83;" horiz-adv-x="1184" 
d="M1346 914l-472 -914h-127l-79 433l-230 -433h-129l-148 914h195l83 -568l229 426h122l78 -426l282 568h196zM1151 1273l-355 -239h-189l250 239h294z" />
    <glyph glyph-name="Wdieresis" unicode="&#x1e84;" horiz-adv-x="1665" 
d="M1084 1079l158 -751l494 1111h183l-640 -1439h-158l-154 758l-423 -758h-158l-132 1439h184l103 -1111l422 751h121zM1093 1760.5q30 -35.5 23 -79.5q-8 -46 -51 -81.5t-98 -35.5q-57 0 -86.5 35.5t-21.5 81.5q7 44 49.5 79.5t99.5 35.5q55 0 85 -35.5zM1377.5 1760.5
q29.5 -35.5 22.5 -79.5q-8 -46 -50.5 -81.5t-98.5 -35.5t-86 35.5t-22 81.5q7 44 50 79.5t99 35.5t85.5 -35.5z" />
    <glyph glyph-name="wdieresis" unicode="&#x1e85;" horiz-adv-x="1184" 
d="M1346 914l-472 -914h-127l-79 433l-230 -433h-129l-148 914h195l83 -568l229 426h122l78 -426l282 568h196zM760 1235.5q30 -35.5 23 -79.5q-8 -46 -51 -81.5t-98 -35.5q-57 0 -86.5 35.5t-21.5 81.5q7 44 49.5 79.5t99.5 35.5q55 0 85 -35.5zM1044.5 1235.5
q29.5 -35.5 22.5 -79.5q-8 -46 -50.5 -81.5t-98.5 -35.5t-86 35.5t-22 81.5q7 44 50 79.5t99 35.5t85.5 -35.5z" />
    <glyph glyph-name="Ygrave" unicode="&#x1ef2;" horiz-adv-x="1233" 
d="M629 582l-343 857h200l268 -666l501 666h200l-645 -857l-103 -582h-181zM893 1798l166 -239h-190l-270 239h294z" />
    <glyph glyph-name="ygrave" unicode="&#x1ef3;" horiz-adv-x="896" 
d="M251 -317h-195l328 512l-208 719h195l149 -505l327 505h195zM632 1273l166 -239h-190l-270 239h294z" />
    <glyph glyph-name="endash" unicode="&#x2013;" horiz-adv-x="758" 
d="M110 621h758l-28 -157h-758z" />
    <glyph glyph-name="emdash" unicode="&#x2014;" horiz-adv-x="1308" 
d="M110 621h1308l-28 -157h-1308z" />
    <glyph glyph-name="afii00208" unicode="&#x2015;" horiz-adv-x="3101" 
d="M110 621h1910l-28 -157h-1910z" />
    <glyph glyph-name="underscoredbl" unicode="&#x2017;" horiz-adv-x="863" 
d="M-68 -135h953l-28 -156h-953zM-35 54h953l-28 -156h-953z" />
    <glyph glyph-name="quoteleft" unicode="&#x2018;" horiz-adv-x="361" 
d="M491 1301l3 -20q31 -37 23 -83q-8 -45 -51 -80.5t-98 -35.5q-57 0 -86.5 35.5t-21.5 80.5q4 24 16 46l132 195h159z" />
    <glyph glyph-name="quoteright" unicode="&#x2019;" horiz-adv-x="361" 
d="M317 1231l-6 23q-28 33 -20 79q8 45 50.5 80t98.5 35q55 0 85.5 -35t22.5 -80q-5 -24 -16 -46l-133 -196h-159z" />
    <glyph glyph-name="quotesinglbase" unicode="&#x201a;" horiz-adv-x="361" 
d="M101 1l-6 24q-29 32 -21 77t51 80.5t99 35.5t85.5 -35.5t21.5 -80.5q-4 -22 -15 -44l-133 -196h-159z" />
    <glyph glyph-name="quotereversed" unicode="&#x201b;" horiz-adv-x="361" 
d="M506 1091h-159l-64 196q-4 22 0 46q8 45 51 80t98 35q56 0 86 -35t22 -80q-8 -46 -48 -79l-14 -23z" />
    <glyph glyph-name="quotedblleft" unicode="&#x201c;" horiz-adv-x="732" 
d="M491 1301l3 -20q31 -37 23 -83q-8 -45 -51 -80.5t-98 -35.5q-57 0 -86.5 35.5t-21.5 80.5q4 24 16 46l132 195h159zM862 1301l3 -20q31 -37 23 -83q-8 -45 -51 -80.5t-98 -35.5q-57 0 -86.5 35.5t-21.5 80.5q4 24 16 46l132 195h159z" />
    <glyph glyph-name="quotedblright" unicode="&#x201d;" horiz-adv-x="732" 
d="M317 1231l-6 23q-28 33 -20 79q8 45 50.5 80t98.5 35q55 0 85.5 -35t22.5 -80q-5 -24 -16 -46l-133 -196h-159zM688 1231l-6 23q-28 33 -20 79q8 45 50.5 80t98.5 35q55 0 85.5 -35t22.5 -80q-5 -24 -16 -46l-133 -196h-159z" />
    <glyph glyph-name="quotedblbase" unicode="&#x201e;" horiz-adv-x="732" 
d="M93 -39l-6 23q-28 33 -20 79q8 45 50.5 80t98.5 35q55 0 85.5 -35t22.5 -80q-5 -24 -16 -46l-133 -196h-159zM464 -39l-6 23q-28 33 -20 79q8 45 50.5 80t98.5 35q55 0 85.5 -35t22.5 -80q-5 -24 -16 -46l-133 -196h-159z" />
    <glyph glyph-name="dagger" unicode="&#x2020;" horiz-adv-x="773" 
d="M529 1254l32 185h153l-32 -185h212l-23 -129h-212l-205 -1160h-153l205 1160h-212l23 129h212z" />
    <glyph glyph-name="daggerdbl" unicode="&#x2021;" horiz-adv-x="773" 
d="M512 1125h-212l23 129h212l33 185h153l-33 -185h212l-23 -129h-212l-58 -333h212l-23 -129h-212l-123 -698h-153l123 698h-212l23 129h212z" />
    <glyph glyph-name="bullet" unicode="&#x2022;" horiz-adv-x="763" 
d="M651 789.5q43 -50.5 31 -117.5q-12 -68 -73 -118.5t-137 -50.5q-79 0 -122 50.5t-31 118.5q12 67 73 117.5t140 50.5q76 0 119 -50.5z" />
    <glyph glyph-name="ellipsis" unicode="&#x2026;" horiz-adv-x="2048" 
d="M307.5 184.5q30.5 -35.5 22.5 -80.5t-51 -80.5t-98 -35.5q-57 0 -86.5 35.5t-21.5 80.5t50 80.5t99 35.5q55 0 85.5 -35.5zM990.5 184.5q30.5 -35.5 22.5 -80.5t-51 -80.5t-98 -35.5q-57 0 -86.5 35.5t-21.5 80.5t50 80.5t99 35.5q55 0 85.5 -35.5zM1673.5 184.5
q30.5 -35.5 22.5 -80.5t-51 -80.5t-98 -35.5q-57 0 -86.5 35.5t-21.5 80.5t50 80.5t99 35.5q55 0 85.5 -35.5z" />
    <glyph glyph-name="perthousand" unicode="&#x2030;" horiz-adv-x="1706" 
d="M1259 1165l-1038 -1185l-124 98l1038 1185zM675 1041q58 -71 42 -166q-17 -93 -100 -164.5t-190 -71.5t-165 71.5t-41 164.5q16 95 99 166t190 71t165 -71zM483 958q-26 0 -52 -22.5t-32 -60.5q-7 -38 11 -60t44 -22q25 0 51.5 22.5t33.5 59.5q6 38 -12.5 60.5
t-43.5 22.5zM1093.5 531.5q58.5 -70.5 41.5 -165.5t-100 -165.5t-189 -70.5q-107 0 -165 70.5t-41 165.5t99.5 165.5t189.5 70.5q106 0 164.5 -70.5zM902 449q-26 0 -52 -22.5t-32 -60.5q-7 -38 11 -60t44 -22q25 0 52 22t34 60q6 38 -13 60.5t-44 22.5zM1663.5 531.5
q58.5 -70.5 41.5 -165.5t-100 -165.5t-189 -70.5q-107 0 -165 70.5t-41 165.5t99.5 165.5t189.5 70.5q106 0 164.5 -70.5zM1472 449q-26 0 -52 -22.5t-32 -60.5q-7 -38 11 -60t44 -22q25 0 52 22t34 60q6 38 -13 60.5t-44 22.5z" />
    <glyph glyph-name="minute" unicode="&#x2032;" horiz-adv-x="427" 
d="M273 850l104 589h181l-104 -589h-181z" />
    <glyph glyph-name="second" unicode="&#x2033;" horiz-adv-x="670" 
d="M273 850l104 589h181l-104 -589h-181zM517 850l104 589h180l-104 -589h-180z" />
    <glyph glyph-name="guilsinglleft" unicode="&#x2039;" horiz-adv-x="695" 
d="M179 449l590 532l-43 -245l-319 -287l217 -287l-43 -246z" />
    <glyph glyph-name="guilsinglright" unicode="&#x203a;" horiz-adv-x="695" 
d="M85 -84l43 246l318 287l-216 287l43 245l402 -532z" />
    <glyph glyph-name="exclamdbl" unicode="&#x203c;" horiz-adv-x="734" 
d="M307.5 184.5q30.5 -35.5 22.5 -80.5t-51 -80.5t-98 -35.5q-57 0 -86.5 35.5t-21.5 80.5t50 80.5t99 35.5q55 0 85.5 -35.5zM525 1439l-194 -1104h-181l194 1104h181zM674.5 184.5q30.5 -35.5 22.5 -80.5t-51 -80.5t-98 -35.5q-57 0 -86.5 35.5t-21.5 80.5t50 80.5
t99 35.5q55 0 85.5 -35.5zM892 1439l-194 -1104h-181l194 1104h181z" />
    <glyph glyph-name="uni203E" unicode="&#x203e;" horiz-adv-x="863" 
d="M243 1631h953l-28 -156h-953z" />
    <glyph glyph-name="fraction" unicode="&#x2044;" horiz-adv-x="297" 
d="M1102 1439l-1286 -1439h-216l1284 1439h218z" />
    <glyph glyph-name="fraction" unicode="&#x2215;" horiz-adv-x="297" 
d="M1102 1439l-1286 -1439h-216l1284 1439h218z" />
    <glyph glyph-name="uni2070" unicode="&#x2070;" horiz-adv-x="829" 
d="M754 1002q25 146 -16 214.5t-97 68.5q-57 0 -121.5 -68.5t-89.5 -214.5q-26 -147 14 -216t97 -69q56 0 121.5 69t91.5 216zM940 1002q-34 -190 -152 -311t-272 -121q-155 0 -231 121t-42 311q33 190 152 311t274 121q154 0 229 -121t42 -311z" />
    <glyph glyph-name="uni2074" unicode="&#x2074;" horiz-adv-x="865" 
d="M966 1653l-126 -716h78l-26 -145h-78l-34 -193h-185l34 193h-376zM676 1056l-98 -119h77z" />
    <glyph glyph-name="uni2075" unicode="&#x2075;" horiz-adv-x="843" 
d="M567 1187q37 6 61 6q9 0 17 -1q295 -32 269 -304q-25 -128 -134 -217t-290 -89q-174 10 -276 142l136 116q100 -100 195 -100q149 8 183 148q18 127 -96 163q-35 7 -73 7q-58 0 -151 -28l-81 76l157 318h382l-25 -145h-233z" />
    <glyph glyph-name="uni2076" unicode="&#x2076;" horiz-adv-x="834" 
d="M453 822q-9 -50 19.5 -80t70.5 -30q41 0 79.5 30t47.5 80t-19 80.5t-69 30.5q-42 0 -81 -30.5t-48 -80.5zM638 1082q95 0 166 -78t53 -182q-18 -103 -117 -181.5t-224 -78.5q-126 0 -197 78.5t-53 181.5q28 131 125.5 267.5t277.5 334.5h223q-254 -245 -350 -360
q22 18 96 18z" />
    <glyph glyph-name="uni2077" unicode="&#x2077;" horiz-adv-x="834" 
d="M797 1086q-123 -131 -209 -255q-84 -122 -116 -258h-186q39 174 137 312q97 135 211 259q106 117 113 135h-415l26 145h619q-37 -186 -180 -338z" />
    <glyph glyph-name="uni2078" unicode="&#x2078;" horiz-adv-x="831" 
d="M542 719q70 0 114 35t55 93q10 57 -24 99q-32 38 -96 50q-69 -12 -115 -50q-47 -42 -57 -99q-11 -58 21 -93t102 -35zM516 571q-154 0 -229 82.5t-55 193.5q18 107 183 252q-50 47 -35 133q15 82 94.5 146t194.5 64q114 0 172.5 -64t43.5 -146q-15 -86 -81 -133
q112 -145 94 -252q-20 -111 -124 -193.5t-258 -82.5zM644 1295q-29 0 -50.5 -16t-27.5 -47q-5 -31 13.5 -52.5t38.5 -28.5q21 6 47.5 28t31.5 53q6 31 -8.5 47t-44.5 16z" />
    <glyph glyph-name="uni2079" unicode="&#x2079;" horiz-adv-x="834" 
d="M730 1165q9 49 -19 79.5t-70 30.5q-41 0 -80 -30.5t-48 -79.5q-9 -51 19.5 -81.5t69.5 -30.5q42 0 80.5 30.5t47.5 81.5zM545 905q-96 0 -166.5 77.5t-52.5 182.5q18 102 116.5 180.5t224.5 78.5q125 0 196.5 -78.5t53.5 -181.5q-28 -130 -125.5 -266.5t-277.5 -335.5
h-223q253 245 351 361q-23 -18 -97 -18z" />
    <glyph glyph-name="uni207A" unicode="&#x207a;" horiz-adv-x="831" 
d="M323 927h-236v145h236v216h185v-216h236v-145h-236v-218h-185v218z" />
    <glyph glyph-name="uni207B" unicode="&#x207b;" horiz-adv-x="831" 
d="M97 930v145h657v-145h-657z" />
    <glyph glyph-name="uni207C" unicode="&#x207c;" horiz-adv-x="831" 
d="M87 1165h657v-145h-657v145zM89 985h653v-145h-653v145z" />
    <glyph glyph-name="uni207F" unicode="&#x207f;" horiz-adv-x="664" 
d="M455 1235l-76 -433h-188l107 607h188q12 30 94 30q127 0 193.5 -73t50.5 -175l-69 -389h-189l68 384q7 44 -18.5 72t-62.5 28q-38 0 -70 -25q-21 -17 -28 -26z" />
    <glyph glyph-name="uni2080" unicode="&#x2080;" horiz-adv-x="829" 
d="M635 325q25 146 -15.5 215t-96.5 69q-57 0 -122 -69t-90 -215q-26 -147 14.5 -215.5t97.5 -68.5q56 0 121 68.5t91 215.5zM821 325q-34 -191 -152 -312t-272 -121q-155 0 -231 121t-42 312q33 189 152 310.5t274 121.5q154 0 229 -121.5t42 -310.5z" />
    <glyph glyph-name="uni2081" unicode="&#x2081;" horiz-adv-x="836" 
d="M334 39l81 463l-18 -11l-121 91l378 226l-135 -769h177l-26 -146h-542l26 146h180z" />
    <glyph glyph-name="uni2082" unicode="&#x2082;" horiz-adv-x="879" 
d="M114 -107q510 495 531 615q14 95 -66 96q-54 -3 -105 -75l-157 70q122 146 287 153q273 -6 232 -240q-29 -164 -357 -473h274l-26 -146h-613z" />
    <glyph glyph-name="uni2083" unicode="&#x2083;" horiz-adv-x="836" 
d="M440 319l-99 2l26 143q101 1 118 7t44 28.5t32 52.5q6 31 -9.5 47t-35.5 16t-37 -13q-14 -11 -58 -83l-154 61q42 82 88 117q83 66 187 66q105 0 163 -64t43 -147q-23 -132 -32 -135h-8q-21 0 -23 -11q-2 -15 26 -49q69 -83 50 -190q-19 -110 -123 -193t-237 -83t-210 86
q-59 64 -58 185l192 62q-6 -121 22 -153q31 -31 80 -31t93 34.5t54 92.5q10 57 -23 97.5t-111 54.5z" />
    <glyph glyph-name="uni2084" unicode="&#x2084;" horiz-adv-x="865" 
d="M841 945l-127 -717h78l-25 -144h-78l-34 -194h-185l34 194h-376zM551 348l-99 -120h77z" />
    <glyph glyph-name="uni2085" unicode="&#x2085;" horiz-adv-x="843" 
d="M457 535q-20 -10 -21 -16q-2 -15 87 -15q295 -32 269 -304q-25 -129 -134 -218t-290 -89q-174 10 -276 143l136 116q100 -100 195 -100q149 8 183 148q18 127 -96 163q-35 7 -73 7q-58 0 -151 -28l-81 76l157 318h382l-25 -146h-233z" />
    <glyph glyph-name="uni2086" unicode="&#x2086;" horiz-adv-x="834" 
d="M335 152q-9 -50 19.5 -80t70.5 -30q41 0 79.5 30t47.5 80t-19 80.5t-69 30.5q-42 0 -81 -30.5t-48 -80.5zM520 412q95 0 166 -78t53 -182q-18 -103 -117 -181.5t-224 -78.5q-126 0 -197 78.5t-53 181.5q28 131 125.5 267.5t277.5 334.5h223q-254 -245 -350 -360
q22 18 96 18z" />
    <glyph glyph-name="uni2087" unicode="&#x2087;" horiz-adv-x="834" 
d="M687 416.5q-133 -141.5 -218 -264.5t-117 -259h-186q39 174 136.5 310.5t207.5 257.5t117 138h-415l26 145h619q-37 -186 -170 -327.5z" />
    <glyph glyph-name="uni2088" unicode="&#x2088;" horiz-adv-x="831" 
d="M422 40q70 0 114 34.5t54 92.5q10 57 -23 99q-32 38 -96 50q-69 -12 -115 -50q-48 -42 -58 -99q-10 -58 22 -92.5t102 -34.5zM396 -109q-154 0 -229 83t-56 193q19 107 184 253q-50 47 -35 132q15 82 94.5 146.5t194.5 64.5q114 0 172.5 -64t43.5 -147q-15 -85 -81 -132
q112 -146 93 -253q-19 -110 -123 -193t-258 -83zM523 615q-29 0 -50 -16t-27 -47q-5 -30 13.5 -52t38.5 -29q21 7 47.5 29t31.5 52q6 31 -9 47t-45 16z" />
    <glyph glyph-name="uni2089" unicode="&#x2089;" horiz-adv-x="834" 
d="M612 495q9 49 -19 79.5t-70 30.5q-41 0 -80 -30.5t-48 -79.5q-9 -51 19.5 -81.5t69.5 -30.5q42 0 80.5 30.5t47.5 81.5zM427 235q-96 0 -166.5 77.5t-52.5 182.5q18 102 116.5 180.5t224.5 78.5q125 0 196.5 -78.5t53.5 -181.5q-28 -130 -125.5 -266.5t-277.5 -335.5
h-223q253 245 351 361q-23 -18 -97 -18z" />
    <glyph glyph-name="uni208A" unicode="&#x208a;" horiz-adv-x="831" 
d="M364 232h-236l26 145h236l38 216h185l-38 -216h236l-26 -145h-236l-38 -218h-185z" />
    <glyph glyph-name="uni208B" unicode="&#x208b;" horiz-adv-x="831" 
d="M87 54v145h657v-145h-657z" />
    <glyph glyph-name="uni208C" unicode="&#x208c;" horiz-adv-x="831" 
d="M87 366h657v-146h-657v146zM89 186h653v-146h-653v146z" />
    <glyph glyph-name="franc" unicode="&#x20a3;" horiz-adv-x="966" 
d="M272 478l169 961h699l-28 -157h-518l-85 -484h518l-28 -157h-518l-28 -163h244l-28 -157h-244l-57 -321h-181l57 321h-137l28 157h137z" />
    <glyph glyph-name="lira" unicode="&#x20a4;" horiz-adv-x="976" 
d="M455 1059l-1 -6q-17 -92 30 -203q52 -127 59 -222h175l-23 -127h-147l-11 -66h147l-23 -127h-168q-37 -85 -104 -151h545l-28 -157h-794l23 128q149 125 174 180h-175l23 127h200q0 2 10 66h-199l23 127h165q-3 29 -56 157q-55 133 -32 266l2 10q28 140 133 245
q134 121 328 129q153 0 258 -102l-99 -161q-89 105 -185 105h-7q-99 -3 -162 -65t-81 -153z" />
    <glyph glyph-name="peseta" unicode="&#x20a7;" horiz-adv-x="1793" 
d="M501 1281l-115 -652h160q113 0 214 93.5t126 233.5q24 139 -44 232t-181 93h-160zM976 758q-46 -77 -116 -143q-154 -144 -342 -144h-160l-83 -471h-163l254 1439h371q158 -24 245 -146q101 -141 67 -337q-4 -21 -10 -42h42l63 355h180l-63 -355h170l-2 -15q79 62 178 62
q107 0 163 -67q56 -68 41 -149l-5 -28l-173 -66q4 113 -11.5 133t-41.5 20t-53 -23t-34 -61t15 -64q13 -18 68 -57q103 -62 145 -113q68 -84 48 -198q-21 -117 -121.5 -203t-228.5 -86t-198 86t-47 215l187 45q-21 -116 9.5 -153t75.5 -37t89 37t55 96q10 57 -23 96
q-19 23 -87 72q-92 56 -123 94q-61 74 -44 170q3 19 10 38h-89l-134 -758h-180l134 758h-78z" />
    <glyph glyph-name="Euro" unicode="&#x20ac;" horiz-adv-x="1118" 
d="M1221 1127q-153 154 -299 154q-177 -8 -285 -137q-102 -123 -151 -304h518l-60 -157h-494q-5 -29 -5 -35h505l-59 -157h-451q5 -104 51 -202q65 -138 281 -143q160 5 376 164l-39 -222q-177 -99 -370 -99q-308 0 -423 206q-75 134 -72 296h-167l67 157h110q1 14 5 35
h-129l67 157h94q54 235 200 397q176 196 460 201q208 0 316 -112z" />
    <glyph glyph-name="afii61248" unicode="&#x2105;" horiz-adv-x="1734" 
d="M856 928l163 -64q-239 -212 -416 -212q-175 0 -273 118.5t-70 278.5q29 161 168.5 279.5t314.5 118.5q177 0 341 -212l-185 -65q-95 121 -183 121t-168.5 -68t-99.5 -174q-18 -104 38.5 -172t144.5 -68t225 119zM1383 770q176 0 273 -118.5t69 -279.5
q-28 -159 -167 -278.5t-315 -119.5t-273.5 119.5t-69.5 278.5q28 161 168 279.5t315 118.5zM1186.5 545q-80.5 -69 -98.5 -173q-19 -105 37 -173t145 -68t169 68t99 173q18 104 -38 173t-144 69q-89 0 -169.5 -69zM1760 1439l-1286 -1439h-216l1284 1439h218z" />
    <glyph glyph-name="afii61352" unicode="&#x2116;" horiz-adv-x="1601" 
d="M836 495l167 944h181l-281 -1590l-456 1091l-166 -940h-181l279 1584zM1432 1054q124 0 192 -83.5t48 -196.5q-19 -111 -117 -194.5t-222 -83.5q-123 0 -191.5 83.5t-49.5 194.5q21 114 119.5 197t220.5 83zM1313.5 874.5q-45.5 -38.5 -56.5 -100.5q-10 -60 21.5 -98.5
t79.5 -38.5q49 0 94.5 38.5t55.5 98.5q11 62 -20.5 100.5t-80.5 38.5q-48 0 -93.5 -38.5zM1601 476l-27 -155h-541l27 155h541z" />
    <glyph glyph-name="trademark" unicode="&#x2122;" horiz-adv-x="1315" 
d="M541 1292h-104v-513h-175v513h-212v147h640l188 -289l187 289h150v-660h-175v315l-162 -250l-163 251v-316h-174v513z" />
    <glyph glyph-name="Omega" unicode="&#x2126;" horiz-adv-x="1519" 
d="M1024 1459q300 0 440 -207t80 -544q-44 -251 -427 -551h243l-28 -157h-465l26 147q116 48 272.5 187t197.5 374q50 283 -53.5 444t-315.5 161h-4q-213 0 -373 -161t-210 -444q-41 -235 66 -374t205 -187l-26 -147h-465l27 157h244q-277 300 -233 551q60 337 273.5 544
t512.5 207h13z" />
    <glyph glyph-name="estimated" unicode="&#x212e;" horiz-adv-x="1575" 
d="M1104 1045q-127 115 -300 115q-185 0 -316 -129v-294h616v308zM693 681l-1 1l-7 -1h-348q10 -169 132 -291q132 -133 319 -133q186 0 319 133q24 23 43 49l51 -27q-24 -33 -54 -62q-149 -149 -359 -149t-359 148.5t-149 359.5q0 210 149 358.5t359 148.5t359 -148.5
t149 -358.5q0 -14 -1 -28h-602z" />
    <glyph glyph-name="oneeighth" unicode="&#x215b;" horiz-adv-x="1964" 
d="M449 692l81 463l-18 -10l-121 91l378 226l-135 -770h177l-26 -145h-542l26 145h180zM1937 1439l-1285 -1439h-216l1283 1439h218zM1568 118q70 0 114.5 35t54.5 93q10 57 -24 99q-32 38 -96 50q-69 -12 -115 -50q-47 -42 -57 -99q-10 -58 21.5 -93t101.5 -35zM1542 -30
q-154 0 -229 82.5t-55 193.5q19 107 183 252q-49 47 -34 133q14 82 94 146t195 64q114 0 172 -64t44 -146q-15 -86 -82 -133q113 -145 94 -252q-20 -111 -124 -193.5t-258 -82.5zM1670 694q-29 0 -50.5 -16t-26.5 -47q-6 -31 13 -52.5t39 -28.5q21 6 47 28t32 53
q5 31 -9.5 47t-44.5 16z" />
    <glyph glyph-name="threeeighths" unicode="&#x215c;" horiz-adv-x="1964" 
d="M559 993h-99l26 144q101 1 118 7t44 28t32 53q6 31 -9.5 47t-35.5 16t-37 -13q-14 -11 -58 -83l-154 60q42 83 88 118q83 65 187 65q105 0 163 -64t43 -146q-21 -122 -91 -130l54 -65q69 -83 50 -190q-19 -110 -123 -193t-237 -83t-210 86q-59 64 -58 185l192 62
q-6 -121 22 -153q31 -31 80 -31t93 34.5t54 92.5q10 57 -23 97.5t-111 55.5zM1938 1439l-1286 -1439h-216l1284 1439h218zM1569 118q70 0 114 35t54 93q11 57 -23 99q-32 38 -96 50q-69 -12 -115 -50q-47 -42 -58 -99q-10 -58 22 -93t102 -35zM1543 -30q-154 0 -229 82.5
t-56 193.5q19 107 184 252q-50 47 -35 133q15 82 94.5 146t194.5 64q114 0 172.5 -64t43.5 -146q-15 -86 -81 -133q112 -145 93 -252q-19 -111 -123 -193.5t-258 -82.5zM1670 694q-29 0 -50 -16t-27 -47q-5 -31 13.5 -52.5t38.5 -28.5q21 6 47.5 28t31.5 53q6 31 -9 47
t-45 16z" />
    <glyph glyph-name="fiveeighths" unicode="&#x215d;" horiz-adv-x="1971" 
d="M567 1187q37 6 61 6q9 0 17 -1q295 -32 269 -304q-25 -128 -134 -217t-290 -89q-174 10 -276 142l136 116q100 -100 195 -100q149 8 183 148q18 127 -96 163q-35 7 -73 7q-58 0 -151 -28l-81 76l157 318h382l-25 -145h-233zM1945 1439l-1286 -1439h-216l1284 1439h218z
M1576 118q70 0 114 35t55 93q10 57 -24 99q-32 38 -96 50q-69 -12 -115 -50q-47 -42 -57 -99q-11 -58 21 -93t102 -35zM1550 -30q-154 0 -229 82.5t-55 193.5q19 107 183 252q-50 47 -34 133q14 82 94 146t195 64q114 0 172 -64t44 -146q-16 -86 -82 -133q113 -145 94 -252
q-20 -111 -124 -193.5t-258 -82.5zM1678 694q-29 0 -50.5 -16t-26.5 -47q-6 -31 13 -52.5t38 -28.5q21 6 47.5 28t32.5 53q5 31 -9.5 47t-44.5 16z" />
    <glyph glyph-name="seveneighths" unicode="&#x215e;" horiz-adv-x="1962" 
d="M797 1086q-123 -131 -209 -255q-84 -122 -116 -258h-186q39 174 137 312q97 135 211 259q106 117 113 135h-415l26 145h619q-37 -186 -180 -338zM1936 1439l-1286 -1439h-216l1284 1439h218zM1567 118q70 0 114 35t54 93q10 57 -23 99q-33 38 -96 50q-70 -12 -115 -50
q-48 -42 -58 -99q-10 -58 22 -93t102 -35zM1541 -30q-154 0 -229 82.5t-56 193.5q19 107 184 252q-50 47 -35 133q15 82 94.5 146t194.5 64q114 0 172.5 -64t43.5 -146q-15 -86 -81 -133q112 -145 93 -252q-19 -111 -123 -193.5t-258 -82.5zM1668 694q-29 0 -50 -16t-27 -47
q-5 -31 13.5 -52.5t38.5 -28.5q21 6 47.5 28t31.5 53q6 31 -9 47t-45 16z" />
    <glyph glyph-name="arrowleft" unicode="&#x2190;" horiz-adv-x="1660" 
d="M535 976l-33 -186h1197l-28 -157h-1197l-33 -187l-215 266z" />
    <glyph glyph-name="arrowup" unicode="&#x2191;" horiz-adv-x="1104" 
d="M1016 1202h-162l-211 -1199h-181l211 1199h-161l295 249z" />
    <glyph glyph-name="arrowright" unicode="&#x2192;" horiz-adv-x="1660" 
d="M1685 712l-309 -266l33 187h-1197l28 157h1197l32 186z" />
    <glyph glyph-name="arrowdown" unicode="&#x2193;" horiz-adv-x="1104" 
d="M547 -22l-207 250h161l211 1199h181l-211 -1199h162z" />
    <glyph glyph-name="arrowboth" unicode="&#x2194;" horiz-adv-x="1673" 
d="M1450 790l33 186l215 -264l-309 -266l33 187h-948l-33 -187l-215 266l309 264l-33 -186h948z" />
    <glyph glyph-name="arrowupdn" unicode="&#x2195;" horiz-adv-x="1798" 
d="M1030 228h161l-295 -250l-209 250h162l172 974h-162l297 249l207 -249h-161z" />
    <glyph glyph-name="arrowupdnbse" unicode="&#x21a8;" horiz-adv-x="1798" 
d="M1031 228h161l-295 -250l-209 250h162l172 974h-162l297 249l207 -249h-161zM986 1609h397l-28 -156h-397zM697 -30h397l-28 -157h-397z" />
    <glyph glyph-name="partialdiff" unicode="&#x2202;" horiz-adv-x="948" 
d="M816 642q-369 -45 -520 -307q-16 -39 -22 -71q-19 -110 129 -112q238 25 413 490zM858 795q12 50 25 119q60 340 -75 366q-29 5 -58 5q-136 0 -323 -216l-55 171q187 187 396 187q67 0 138 -18q230 -62 157 -473q-20 -115 -64 -260q-219 -658 -620 -667q-327 0 -283 250
q8 46 31 102q182 368 731 434z" />
    <glyph glyph-name="Delta" unicode="&#x2206;" horiz-adv-x="1195" 
d="M44 1h-74l778 1438h171l276 -1439h-1151v1zM976 157l-193 999l-540 -999h733z" />
    <glyph glyph-name="product" unicode="&#x220f;" horiz-adv-x="1237" 
d="M501 1282l-282 -1599h-181l310 1756h1049l-310 -1756h-181l282 1599h-687z" />
    <glyph glyph-name="summation" unicode="&#x2211;" horiz-adv-x="1136" 
d="M1300 1439l-28 -157h-734l210 -721l-464 -721h734l-28 -157h-996l557 878l-247 878h996z" />
    <glyph glyph-name="minus" unicode="&#x2212;" horiz-adv-x="1138" 
d="M85 609v156h968v-156h-968z" />
    <glyph glyph-name="radical" unicode="&#x221a;" horiz-adv-x="1442" 
d="M856 383l671 1175h189l-945 -1683l-444 721l-89 -37l-70 112l367 189z" />
    <glyph glyph-name="infinity" unicode="&#x221e;" horiz-adv-x="1137" 
d="M911 705q0 70 -34.5 108t-92.5 38q-57 0 -99 -41q-38 -39 -50 -105q12 -67 50 -106q42 -41 99 -41q58 0 92.5 38.5t34.5 108.5zM1059 705q0 -154 -82.5 -243.5t-192.5 -89.5q-108 0 -253 139q-47 -59 -133 -59q-82 0 -146 69t-64 184q0 114 64 183.5t146 69.5
q86 0 133 -59q145 138 253 138q110 0 192.5 -89.5t82.5 -242.5zM336 705q0 -30 16 -48t46 -18q31 0 53 22.5t28 43.5q-6 20 -28 42.5t-53 22.5t-46.5 -17.5t-15.5 -47.5z" />
    <glyph glyph-name="orthogonal" unicode="&#x221f;" horiz-adv-x="1705" 
d="M376 1439h181l-226 -1282h1280l-28 -157h-1461z" />
    <glyph glyph-name="intersection" unicode="&#x2229;" horiz-adv-x="1214" 
d="M1090 956q24 138 -53 232t-203 94q-127 0 -237.5 -94t-134.5 -232l-171 -968h-181l171 968q34 197 202.5 340t378.5 143q208 0 324 -141q100 -122 94 -291l-180 -1019h-181z" />
    <glyph glyph-name="integral" unicode="&#x222b;" horiz-adv-x="585" 
d="M378 -28q-61 -281 -400 -281l27 152q163 0 193 129l226 1286q72 280 400 280l-23 -140q-159 -5 -197 -141z" />
    <glyph glyph-name="approxequal" unicode="&#x2248;" horiz-adv-x="1142" 
d="M600 925q146 -86 202 -86q3 0 4 1q41 12 60 58q10 27 10 104l184 -29q-6 -79 -24 -126q-47 -113 -163 -151q-31 -10 -66 -10q-106 0 -267 92q-147 84 -202 84h-7q-38 -12 -56 -58q-12 -28 -12 -104l-182 30q4 78 22 125q47 112 164 151q30 10 66 10q106 0 267 -91z
M600 601q146 -85 202 -85h4q41 12 60 58q10 27 10 105l184 -30q-6 -79 -24 -126q-47 -112 -163 -151q-31 -9 -66 -9q-106 0 -267 91q-147 85 -202 85q-6 0 -7 -1q-38 -11 -56 -58q-12 -27 -12 -104l-182 30q4 79 22 125q47 112 164 152q30 10 66 10q106 0 267 -92z" />
    <glyph glyph-name="notequal" unicode="&#x2260;" horiz-adv-x="1138" 
d="M515 745h-430v157h572l149 165h213l-149 -165h183v-157h-325l-105 -115h426v-157h-568l-149 -165h-212l149 165h-180v157h322z" />
    <glyph glyph-name="equivalence" unicode="&#x2261;" horiz-adv-x="1138" 
d="M85 609v156h968v-156h-968zM85 897v157h968v-157h-968zM85 320v157h968v-157h-968z" />
    <glyph glyph-name="lessequal" unicode="&#x2264;" horiz-adv-x="1180" 
d="M445 782l646 -299v-182l-1006 481l1006 481v-182zM127 0v157h968v-157h-968z" />
    <glyph glyph-name="greaterequal" unicode="&#x2265;" horiz-adv-x="1180" 
d="M89 1081v182l1006 -481l-1006 -481v182l646 299zM85 0v157h968v-157h-968z" />
    <glyph glyph-name="house" unicode="&#x2302;" horiz-adv-x="1204" 
d="M1104 0h-1004l162 918l568 430l436 -430zM429 846l-121 -689h644l120 685l-281 282z" />
    <glyph glyph-name="revlogicalnot" unicode="&#x2310;" horiz-adv-x="1142" 
d="M135 758h872v-157h-691v-326h-181v483z" />
    <glyph glyph-name="integraltp" unicode="&#x2320;" horiz-adv-x="653" 
d="M326 -308h-180l276 1566q71 280 399 280l-22 -140q-159 -5 -197 -141z" />
    <glyph glyph-name="integralbt" unicode="&#x2321;" horiz-adv-x="652" 
d="M543 1538h180l-275 -1565q-73 -281 -402 -281l25 140q159 5 197 141z" />
    <glyph glyph-name="triagup" unicode="&#x25b2;" horiz-adv-x="1836" 
d="M435 268l483 965l483 -965h-966z" />
    <glyph glyph-name="triagrt" unicode="&#x25ba;" horiz-adv-x="1836" 
d="M436 1233l964 -482l-964 -483v965z" />
    <glyph glyph-name="triagdn" unicode="&#x25bc;" horiz-adv-x="1836" 
d="M1401 1233l-483 -965l-483 965h966z" />
    <glyph glyph-name="triaglf" unicode="&#x25c4;" horiz-adv-x="1836" 
d="M1400 268l-964 482l964 483v-965z" />
    <glyph glyph-name="lozenge" unicode="&#x25ca;" horiz-adv-x="1836" 
d="M1371 709l-452 -708l-454 709l454 708zM919 1249l-346 -540l346 -539l344 540z" />
    <glyph glyph-name="circle" unicode="&#x25cb;" horiz-adv-x="1836" 
d="M1390 756q0 -195 -138.5 -333.5t-333.5 -138.5q-196 0 -334 138.5t-138 333.5q0 196 138 334t334 138q195 0 333.5 -138t138.5 -334zM918 1135q-157 0 -267 -111t-110 -268q0 -156 110 -266t267 -110q156 0 267 110t111 266q0 157 -111 268t-267 111z" />
    <glyph glyph-name="H18533" unicode="&#x25cf;" horiz-adv-x="1836" 
d="M1390 756q0 -195 -138.5 -333.5t-333.5 -138.5q-196 0 -334 138.5t-138 333.5q0 196 138 334t334 138q195 0 333.5 -138t138.5 -334z" />
    <glyph glyph-name="invbullet" unicode="&#x25d8;" horiz-adv-x="1836" 
d="M1429 1247v-972h-1023v972h1023zM917 1019q-106 0 -181.5 -75.5t-75.5 -182.5t75.5 -182.5t181.5 -75.5q107 0 182.5 75.5t75.5 182.5t-75.5 182.5t-182.5 75.5z" />
    <glyph glyph-name="invcircle" unicode="&#x25d9;" horiz-adv-x="1836" 
d="M1429 1247v-972h-1023v972h1023zM917 1197q-180 0 -307.5 -127.5t-127.5 -308.5q0 -180 127.5 -308t307.5 -128q181 0 308.5 128t127.5 308q0 181 -127.5 308.5t-308.5 127.5zM1256 761q0 -140 -99 -239t-240 -99t-239 99t-98 239t98 239t239 99t240 -99t99 -239z" />
    <glyph glyph-name="openbullet" unicode="&#x25e6;" horiz-adv-x="1836" 
d="M1227 761q0 -128 -90.5 -218.5t-219.5 -90.5q-128 0 -218.5 90.5t-90.5 218.5t90.5 219t218.5 91q129 0 219.5 -91t90.5 -219zM917 980q-90 0 -154 -64t-64 -155q0 -90 64 -154t154 -64q91 0 155 64t64 154q0 91 -64 155t-155 64z" />
    <glyph glyph-name="smileface" unicode="&#x263a;" horiz-adv-x="1836" 
d="M1041 778v222h70v-222h-70zM881 383q-344 0 -361 344h34q7 -220 327 -220t344 220h33q-33 -344 -377 -344zM670 778v222h70v-222h-70zM1317 1236q372 -35 408 -295q0 -145 -161 -281q150 -120 150 -233t-110.5 -185.5t-264.5 -84.5q-12 -59 -63 -104q-72 -62 -172 -62
q-96 0 -198 92q-151 -135 -316 -135q-164 0 -280.5 102t-116.5 247q0 107 65 194q-42 13 -75 44q-72 62 -72 148q0 87 72 149q48 42 109 55q-75 102 -75 231q0 181 146 309t352 128q185 0 341 -114q40 20 68 20q78 0 133.5 -56t59.5 -169zM705 1494q-170 0 -290 -104
t-120 -252q0 -202 84 -266q-74 -9 -144.5 -64t-70.5 -133t72 -132q65 -53 117 -55q-81 -49 -81 -214q0 -110 89 -186.5t214 -76.5q272 0 356 146q4 -111 184 -111q139 0 193 176q290 5 345 188q0 174 -171 239q168 99 168 301q-21 221 -412 242q2 25 4 51q-4 59 -45 100
q-37 36 -89 42q-12 1 -24 1q-37 0 -66 -14q-107 122 -313 122z" />
    <glyph glyph-name="invsmileface" unicode="&#x263b;" horiz-adv-x="1836" 
d="M1111 778v222h-70v-222h70zM1258 727h-33q-24 -220 -344 -220t-327 220h-34q17 -344 361 -344t377 344zM740 778v222h-70v-222h70zM1317 1236q372 -35 408 -295q0 -145 -161 -281q150 -120 150 -233t-110.5 -185.5t-264.5 -84.5q-12 -59 -63 -104q-72 -62 -172 -62
q-96 0 -198 92q-151 -135 -316 -135q-164 0 -280.5 102t-116.5 247q0 107 65 194q-42 13 -75 44q-72 62 -72 148q0 87 72 149q48 42 109 55q-75 102 -75 231q0 181 146 309t352 128q185 0 341 -114q40 20 68 20q78 0 133.5 -56t59.5 -169z" />
    <glyph glyph-name="sun" unicode="&#x263c;" horiz-adv-x="1878" 
d="M939 1085q-166 0 -288.5 -122.5t-122.5 -301.5t122.5 -301.5t288.5 -122.5q167 0 289.5 122.5t122.5 301.5t-122.5 301.5t-289.5 122.5zM1409 311l145 -146l-118 -120l-148 148q-107 -94 -258 -104v-208h-181v208q-150 10 -258 104l-148 -148l-118 120l146 146
q-106 120 -116 272h-207v156h207q10 151 116 272l-146 146l118 120l148 -148q106 94 258 104v208h181v-208q151 -10 259 -103l147 147l118 -120l-145 -146q106 -120 115 -272h206v-156h-206q-9 -152 -115 -272z" />
    <glyph glyph-name="female" unicode="&#x2640;" horiz-adv-x="1909" 
d="M1169 1222q-101 0 -191 -76.5t-110 -190.5t43 -190t164 -76q102 0 192 76t110 190t-43 190.5t-165 76.5zM960 546q-104 9 -195 120q-100 120 -70 289t175 292.5t325 123.5q181 0 283 -123.5t72 -292.5t-177 -293q-124 -107 -232 -116l-17 -98h297l-28 -157h-297l-51 -291
h-181l51 291h-298l28 157h298z" />
    <glyph glyph-name="male" unicode="&#x2642;" horiz-adv-x="1902" 
d="M910 673q-101 0 -191 -76.5t-110 -190.5t43 -190t164 -76q102 0 192 76t110 190t-43 190.5t-165 76.5zM1264 632q52 -84 27 -226q-30 -169 -177 -293q-127 -108 -323 -115q-194 7 -285 119q-100 120 -70 289t175 292.5t325 123.5q165 0 232 -69l235 201l-144 8l-134 161
l578 -26l-75 -584l-154 186l15 125z" />
    <glyph glyph-name="spade" unicode="&#x2660;" horiz-adv-x="1836" 
d="M908 649q-19 -47 -57 -86q-77 -80 -186 -80t-186 80.5t-77 194.5q0 184 229 300t291 259q53 -143 282 -259t229 -300q0 -114 -77.5 -194.5t-186.5 -80.5t-185 80q-36 38 -56 82v-24q21 -272 344 -301h-708q322 29 344 301v28z" />
    <glyph glyph-name="club" unicode="&#x2663;" horiz-adv-x="1836" 
d="M928 643v-22q22 -272 344 -301h-708q323 29 344 301v22q-28 -61 -120 -103q-68 -31 -141 -31q-52 0 -108 16q-133 38 -158 181q-5 26 -5 49q0 106 92 167q48 31 113 31q86 0 201 -56q-91 46 -126 171q-10 37 -10 71q0 79 58 137q83 83 201 83q117 0 200 -83
q61 -61 61 -145q0 -30 -8 -63q-30 -125 -136 -174q134 60 229 60q68 0 116 -31q93 -61 93 -168q0 -24 -5 -49q-25 -143 -158 -181q-56 -16 -108 -16q-73 0 -140 31q-93 42 -121 103z" />
    <glyph glyph-name="heart" unicode="&#x2665;" horiz-adv-x="1836" 
d="M402 942q0 114 77 194.5t186 80.5t186 -81q48 -50 66 -112q19 62 66 112q77 81 186 81t186.5 -80.5t77.5 -194.5q0 -184 -229.5 -350.5t-282.5 -308.5q-61 142 -290 308.5t-229 350.5z" />
    <glyph glyph-name="diamond" unicode="&#x2666;" horiz-adv-x="1836" 
d="M1367 850h1v-1h-1q-314 -290 -448 -580q-135 290 -450 580h-1v1h1q315 290 450 580q134 -290 448 -580z" />
    <glyph glyph-name="musicalnote" unicode="&#x266a;" horiz-adv-x="1836" 
d="M862 1248q90 -50 179 -50t178 50l-79 -90q-49 -35 -99 -35t-100 35v-740q1 -7 1 -15q0 -52 -47.5 -88.5t-115.5 -36.5q-67 0 -115 36.5t-48 88.5t48 88t115 36q46 0 83 -17v738z" />
    <glyph glyph-name="musicalnotedbl" unicode="&#x266b;" horiz-adv-x="1836" 
d="M672 1248l737 130v-863q0 -65 -46 -100q-48 -37 -116 -37q-67 0 -115 36.5t-48 88.5t48 88t115 36q46 0 83 -17v678l-579 -100v-773q0 -65 -46 -100q-48 -37 -116 -37q-67 0 -115 36.5t-48 88.5t48 88t115 36q46 0 83 -17v738z" />
    <glyph glyph-name="uni3000" unicode="&#x3000;" horiz-adv-x="1800" 
 />
    <glyph glyph-name="uni3001" unicode="&#x3001;" horiz-adv-x="1910" 
d="M1154 -197l-161 -53q-87 216 -238 390l150 72q149 -171 249 -409z" />
    <glyph glyph-name="uni3002" unicode="&#x3002;" horiz-adv-x="1867" 
d="M1061.5 282.5q52.5 -53.5 52.5 -126.5q0 -75 -52.5 -128t-127.5 -53t-128 53t-53 128q0 73 53 126.5t128 53.5t127.5 -53.5zM934 188q-14 0 -23.5 -9.5t-9.5 -22.5q0 -14 10 -24t23 -10t22.5 10t9.5 24q0 13 -9.5 22.5t-22.5 9.5z" />
    <glyph glyph-name="uni3003" unicode="&#x3003;" horiz-adv-x="1875" 
d="M632 719l-136 87l366 537l136 -88zM1011 719l-136 87l366 537l136 -88z" />
    <glyph glyph-name="uni3005" unicode="&#x3005;" horiz-adv-x="1853" 
d="M761 996q-51 -135 -251 -486l-138 71q258 451 280 633l158 -40l2 -15h669q-116 -257 -202 -372q-118 -160 -216 -228q137 -115 251 -333l-98 -154q-144 288 -333 435q-46 35 -131 92l100 120q69 -48 81 -57q121 79 301 334h-473z" />
    <glyph glyph-name="uni3006" unicode="&#x3006;" horiz-adv-x="1834" 
d="M1046 583q-263 -354 -590 -482l-26 170q266 97 493 410q-126 94 -307 159l32 158q221 -84 357 -186q134 225 137 628l155 -118q-10 -349 -167 -607q158 -130 274 -352l-98 -156q-133 269 -260 376z" />
    <glyph glyph-name="uni3041" unicode="&#x3041;" horiz-adv-x="1829" 
d="M826 665l-1 60l157 10l2 -60q115 0 208 -51q122 -70 152 -211q10 -49 10 -94q0 -82 -32 -157q-54 -127 -217 -168l-51 145q103 24 129 87q18 45 18 93q0 29 -6 61q-17 72 -80 111q-51 31 -131 31l-1 2q-5 -248 -80 -369q8 -13 54 -79l-120 -107l-38 51q-42 -35 -102 -35
q-39 0 -85 15q-117 37 -126 228q-1 12 -1 25q0 176 128 316q-4 37 -4 158v52l-91 1v152q105 -2 106 -2q8 31 49 194l145 -56q-34 -132 -39 -137q178 3 362 52l-9 -156q-163 -45 -380 -47q-5 -27 -5 -52q0 -39 11 -74q9 5 68 11zM719 171q-65 130 -75 195q-33 -39 -33 -100
q0 -10 1 -20q6 -75 51 -91q15 -6 26 -6q23 0 30 22zM777 488q17 -118 35 -156q31 78 31 149q0 12 -1 24q-40 -2 -65 -17z" />
    <glyph glyph-name="uni3042" unicode="&#x3042;" horiz-adv-x="1810" 
d="M812 832l-2 89l160 11l3 -88l-4 -1q174 0 291 -63q156 -86 193 -263q12 -61 12 -120q0 -104 -41 -199q-68 -155 -249 -201l-54 156q128 29 166 120q25 61 25 124q0 39 -9 81q-24 101 -115 155q-75 44 -215 45q-8 -334 -109 -492q14 -24 68 -102l-126 -110l-50 73
q-49 -54 -156 -54q-29 0 -59 7q-173 43 -193 279q-3 27 -3 54q0 189 123 325q37 41 60 58q-7 63 -7 156q0 73 2 101q-12 0 -122 1v163q115 -2 140 -2q12 95 60 283l149 -57q-43 -161 -53 -225q269 4 485 61l-11 -167q-198 -53 -493 -57q-3 -37 -3 -111v-61q44 22 137 31z
M671 204q-89 174 -113 315q-64 -65 -64 -169q0 -15 2 -31q10 -126 84 -144q11 -3 21 -3q44 0 70 32zM696 624q25 -163 72 -259q32 61 40 293q-63 -6 -112 -34z" />
    <glyph glyph-name="uni3043" unicode="&#x3043;" horiz-adv-x="1828" 
d="M1238 235q-53 451 -193 638l97 135q191 -273 245 -723zM718 239q12 21 47 176l152 -31q-45 -189 -191 -435q-285 412 -285 770q0 88 23 227l151 -33q-20 -120 -20 -198q0 -277 123 -476z" />
    <glyph glyph-name="uni3044" unicode="&#x3044;" horiz-adv-x="1808" 
d="M1359 315q-69 564 -252 803l103 137q229 -321 299 -891zM644 251q40 66 82 250l155 -32q-56 -229 -228 -513q-354 500 -354 961q0 114 27 272l154 -32q-25 -144 -25 -245q0 -363 189 -661z" />
    <glyph glyph-name="uni3045" unicode="&#x3045;" horiz-adv-x="1851" 
d="M1284 702q19 -66 19 -131q0 -128 -76 -254q-113 -189 -487 -349l-69 138q337 157 421 294q55 88 55 171q0 42 -13 83q-37 108 -156 109h-1q-139 0 -356 -163l-72 137q235 179 437 179h8q226 -5 290 -214zM1091 963l-420 87l29 149l420 -88z" />
    <glyph glyph-name="uni3046" unicode="&#x3046;" horiz-adv-x="1837" 
d="M1370 892q25 -84 25 -166q0 -164 -100 -326q-148 -239 -614 -434l-74 148q438 200 554 382q75 118 75 229q0 56 -19 111q-52 154 -231 154h-1q-196 0 -465 -197l-78 143q295 220 554 220h12q281 -6 362 -264zM1116 1290l-513 104l33 160l513 -104z" />
    <glyph glyph-name="uni3047" unicode="&#x3047;" horiz-adv-x="1859" 
d="M1167 963l-422 87l31 149l420 -88zM964 399l108 -176q46 -75 101 -75q36 0 81 27q6 3 60 42l80 -131q-50 -34 -65 -44q-91 -45 -165 -45q-139 0 -220 136q-73 122 -110 124l-260 -287l-110 110l636 701l-455 -30l-11 150l746 51l-16 -114z" />
    <glyph glyph-name="uni3048" unicode="&#x3048;" horiz-adv-x="1842" 
d="M1216 1290l-513 104l32 160l514 -104zM926 489q21 -2 162 -223q68 -107 157 -107q56 0 123 38l57 38l87 -136q-56 -36 -75 -48q-112 -55 -205 -55q-168 0 -270 166q-104 169 -173 169q-10 0 -12 -1l-332 -356l-116 113l866 930l-630 -40l-13 162l943 62l-19 -124z" />
    <glyph glyph-name="uni3049" unicode="&#x3049;" horiz-adv-x="1854" 
d="M1540 741l-96 -120l-391 352l97 119zM771 468v-468h-114l-24 17l-173 114l-96 64q59 60 79 79q101 102 169 171v318l-50 1q-40 0 -133 1v151q95 -2 133 -2h50v192h159v-183q63 4 212 44l-10 -155q-123 -34 -202 -40v-162q78 76 289 77h1q217 0 302 -151q49 -89 49 -185
q0 -56 -16 -113q-47 -159 -248 -254l-48 145q128 62 153 163q9 34 9 64q0 64 -37 119q-44 63 -171 73h-25q-118 0 -258 -80zM612 154v157l-108 -91z" />
    <glyph glyph-name="uni304A" unicode="&#x304a;" horiz-adv-x="1833" 
d="M1637 878l-104 -124l-488 429l104 124zM681 542v-542h-117l-25 18l-231 148l-113 73q67 65 93 91q135 132 231 227v435q-20 -1 -91 -1q-53 0 -154 2v162q101 -1 154 -1h91v249h162v-240q114 8 281 52l-10 -166q-146 -40 -271 -48v-286q192 142 439 143h1q245 0 352 -184
q64 -113 64 -235q0 -70 -21 -143q-61 -201 -290 -307l-55 155q167 78 203 216q12 45 12 86q0 86 -52 160q-66 92 -249 105h-24q-174 0 -380 -169zM519 173v232l-147 -129z" />
    <glyph glyph-name="uni304B" unicode="&#x304b;" horiz-adv-x="1811" 
d="M1603 878l-104 -124l-488 429l104 124zM664 1108q90 0 193 -18q279 -52 332 -337q18 -101 18 -194q0 -155 -51 -290q-86 -226 -268 -272l-55 156q127 29 184 188q35 96 35 207q0 85 -20 179q-42 197 -258 214q-55 5 -123 5h-28l-240 -967l-158 38l230 921
q-56 -2 -248 -24l10 170q188 19 279 21l84 340l153 -59z" />
    <glyph glyph-name="uni304C" unicode="&#x304c;" horiz-adv-x="1812" 
d="M1513 878l-104 -124l-488 429l104 124zM1586 1046l-118 -96l-194 243l89 130zM1751 1194l-118 -96l-194 244l90 129zM667 1108q90 0 193 -18q279 -52 332 -337q18 -101 18 -194q0 -155 -51 -290q-86 -226 -268 -272l-55 156q127 29 184 188q35 96 35 207q0 85 -20 179
q-42 197 -258 214q-55 5 -123 5h-28l-240 -967l-158 38l230 921q-56 -2 -248 -24l10 170q188 19 279 21l84 340l153 -59z" />
    <glyph glyph-name="uni304D" unicode="&#x304d;" horiz-adv-x="1826" 
d="M1123 1020q125 12 273 51l-11 -167q-116 -31 -205 -40l97 -263l-99 -88q-57 61 -90 82q-65 41 -148 49q-24 1 -48 1q-106 0 -176 -45q-79 -51 -89 -160q-1 -15 -1 -28q0 -91 60 -148q72 -70 210 -81q25 -2 49 -2q112 0 253 69l54 -168q-164 -68 -305 -68q-32 0 -66 3
q-204 18 -314 135q-98 104 -98 257q0 22 2 44q16 183 149 280q109 79 271 79q30 0 63 -2q77 -7 84 -7h1l-18 45q-164 -14 -499 -19v162q310 6 438 15l-36 93q-163 -14 -495 -19v162q307 6 434 15l-39 102l144 79l62 -167q125 12 273 51l-11 -167q-116 -31 -205 -40z" />
    <glyph glyph-name="uni304E" unicode="&#x304e;" horiz-adv-x="1829" 
d="M1097 864l97 -263l-99 -88q-57 61 -90 82q-65 41 -148 49q-24 1 -48 1q-106 0 -176 -45q-79 -51 -89 -160q-1 -15 -1 -28q0 -91 60 -148q72 -70 210 -81q25 -2 49 -2q112 0 253 69l54 -168q-164 -68 -305 -68q-32 0 -66 3q-204 18 -314 135q-98 104 -98 257q0 22 2 44
q16 183 149 280q109 79 271 79q30 0 63 -2q77 -7 84 -7h1l-18 45q-164 -14 -499 -19v162q310 6 438 15l-36 93q-163 -14 -495 -19v162q307 6 434 15l-39 102l144 79l62 -167q39 4 132 17l61 -151q-114 -20 -136 -22l36 -95q79 8 188 30l79 -145q-138 -34 -210 -41z
M1486 1046l-118 -96l-194 243l89 130zM1651 1194l-118 -96l-194 244l90 129z" />
    <glyph glyph-name="uni304F" unicode="&#x304f;" horiz-adv-x="1872" 
d="M823 701l425 -601l-114 -122l-511 723l511 722l114 -122z" />
    <glyph glyph-name="uni3050" unicode="&#x3050;" horiz-adv-x="1859" 
d="M693 701l425 -601l-114 -122l-511 723l511 722l114 -122zM1286 846l-118 -96l-194 243l89 130zM1451 994l-118 -96l-194 244l90 129z" />
    <glyph glyph-name="uni3051" unicode="&#x3051;" horiz-adv-x="1810" 
d="M1305 777q1 -24 1 -87q0 -183 -25 -346q-34 -227 -150 -361t-300 -134h-62l-6 181q73 -8 93 -8q104 0 167 85q82 110 106 284q15 122 15 266q0 71 -1 102q-131 -13 -521 -18v162q383 5 516 19q-6 145 -19 429l165 11q14 -282 16 -422q62 8 196 43l-11 -167
q-107 -29 -180 -39zM314 649q0 245 112 676l148 -57q-107 -328 -107 -694q0 -61 3 -124l44 159l129 -113q-80 -166 -97 -434l-114 -99q-118 382 -118 686z" />
    <glyph glyph-name="uni3052" unicode="&#x3052;" horiz-adv-x="1813" 
d="M1305 777q1 -24 1 -87q0 -183 -25 -346q-34 -227 -150 -361t-300 -134h-62l-6 181q73 -8 93 -8q104 0 167 85q82 110 106 284q15 122 15 266q0 71 -1 102q-131 -13 -521 -18v162q383 5 516 19q-6 145 -19 429l165 11q14 -282 16 -422q62 8 126 23l89 -147
q-137 -29 -210 -39zM1686 946l-118 -96l-194 243l89 130zM1851 1094l-118 -96l-194 244l90 129zM314 649q0 245 112 676l148 -57q-107 -328 -107 -694q0 -61 3 -124l44 159l129 -113q-80 -166 -97 -434l-114 -99q-118 382 -118 686z" />
    <glyph glyph-name="uni3053" unicode="&#x3053;" horiz-adv-x="1815" 
d="M373 319q-39 83 -39 174q0 127 102 321l119 -121q-68 -120 -68 -198q0 -59 31 -112q68 -125 235 -139q36 -3 83 -3q196 0 620 57l24 -164q-397 -53 -614 -53q-88 0 -154 8q-246 29 -339 230zM755 916l-88 160l77 31h-359v162h770v-146q-226 -110 -400 -207z" />
    <glyph glyph-name="uni3054" unicode="&#x3054;" horiz-adv-x="1822" 
d="M338 319q-39 83 -39 174q0 127 102 321l119 -121q-68 -120 -68 -198q0 -59 31 -112q68 -125 235 -139q36 -3 83 -3q196 0 620 57l24 -164q-397 -53 -614 -53q-88 0 -154 8q-246 29 -339 230zM720 916l-88 160l77 31h-359v162h770v-146q-226 -110 -400 -207zM1486 946
l-118 -96l-194 243l89 130zM1651 1094l-118 -96l-194 244l90 129z" />
    <glyph glyph-name="uni3055" unicode="&#x3055;" horiz-adv-x="1831" 
d="M1083 1112q132 12 283 52l-11 -167q-119 -32 -214 -42l131 -354l-99 -88q-57 61 -90 82q-65 41 -148 49q-24 1 -48 1q-106 0 -176 -45q-79 -51 -89 -160q-1 -15 -1 -28q0 -91 60 -148q72 -70 210 -81q25 -2 49 -2q112 0 253 69l54 -168q-164 -68 -305 -68q-32 0 -66 3
q-204 18 -314 135q-98 104 -98 257q0 22 2 44q16 183 149 280q109 79 271 79q30 0 63 -2q77 -7 84 -7h1l-53 137q-162 -13 -489 -18v162q302 6 428 14l-101 261l144 79z" />
    <glyph glyph-name="uni3056" unicode="&#x3056;" horiz-adv-x="1832" 
d="M1045 955l131 -354l-99 -88q-57 61 -90 82q-65 41 -148 49q-24 1 -48 1q-106 0 -176 -45q-79 -51 -89 -160q-1 -15 -1 -28q0 -91 60 -148q72 -70 210 -81q25 -2 49 -2q112 0 253 69l54 -168q-164 -68 -305 -68q-32 0 -66 3q-204 18 -314 135q-98 104 -98 257q0 22 2 44
q16 183 149 280q109 79 271 79q30 0 63 -2q77 -7 84 -7h1l-53 137q-162 -13 -489 -18v162q302 6 428 14l-101 261l144 79l120 -326q45 4 143 19l49 -155q-112 -19 -134 -21zM1486 946l-118 -96l-194 243l89 130zM1651 1094l-118 -96l-194 244l90 129z" />
    <glyph glyph-name="uni3057" unicode="&#x3057;" horiz-adv-x="1833" 
d="M893 3h-14q-322 0 -404 268q-56 182 -56 399q0 82 9 170q28 312 96 565l178 -11q-92 -272 -114 -594q-6 -78 -6 -147q0 -214 52 -345q54 -139 232 -139q16 0 35 2q216 15 384 319l129 -96q-194 -385 -521 -391z" />
    <glyph glyph-name="uni3058" unicode="&#x3058;" horiz-adv-x="1833" 
d="M893 3h-14q-322 0 -404 268q-56 182 -56 399q0 82 9 170q28 312 96 565l178 -11q-92 -272 -114 -594q-6 -78 -6 -147q0 -214 52 -345q54 -139 232 -139q16 0 35 2q216 15 384 319l129 -96q-194 -385 -521 -391zM1286 946l-118 -96l-194 243l89 130zM1451 1094l-118 -96
l-194 244l90 129z" />
    <glyph glyph-name="uni3059" unicode="&#x3059;" horiz-adv-x="1828" 
d="M839 514v19q-11 27 -31 47q-21 20 -50 20q-28 0 -47.5 -19.5t-19.5 -55.5q0 -37 19.5 -57t47.5 -20q29 0 50 20q20 19 31 46zM830 1113q-2 68 -11 238l165 11q8 -171 10 -241h44q245 0 555 -60l-71 -144q-254 46 -469 46q-49 0 -53 -1q5 -165 5 -322q0 -265 -29.5 -419
t-146.5 -263t-298 -109h-62l-6 181q73 -8 92 -8q108 0 193 86.5t107 227.5q-55 -34 -116 -34q-88 0 -140 53q-66 65 -66 169t86 170q53 40 130 40q76 0 111 -45l-24 265q-236 -19 -548 -125l-53 152q333 114 595 132z" />
    <glyph glyph-name="uni305A" unicode="&#x305a;" horiz-adv-x="1827" 
d="M1586 946l-118 -96l-194 243l89 130zM1751 1094l-118 -96l-194 244l90 129zM839 514v19q-11 27 -31 47q-21 20 -50 20q-28 0 -47.5 -19.5t-19.5 -55.5q0 -37 19.5 -57t47.5 -20q29 0 50 20q20 19 31 46zM1053 963q-49 0 -53 -1q5 -165 5 -322q0 -265 -29.5 -419
t-146.5 -263t-298 -109h-62l-6 181q73 -8 92 -8q108 0 193 86.5t107 227.5q-25 -34 -116 -34q-88 0 -140 53q-66 65 -66 169t86 170q53 40 130 40q76 0 101 -45l-14 265q-236 -19 -548 -125l-53 152q333 114 595 132q-2 68 -11 238l165 11q8 -171 10 -241h44q80 0 168 -6
l96 -166q-131 14 -249 14z" />
    <glyph glyph-name="uni305B" unicode="&#x305b;" horiz-adv-x="1828" 
d="M519 809q-96 -27 -231 -73l-53 152q150 51 284 87v399h161v-365q120 19 397 19q-5 119 -35 298l150 74q40 -225 44 -379q129 -9 357 -53l-71 -143q-183 32 -283 38q0 -267 -53 -553l-138 -4q34 236 34 564q-266 0 -402 -23v-558q13 -108 123 -112l599 -1v-165h-600
q-261 0 -283 276v522z" />
    <glyph glyph-name="uni305C" unicode="&#x305c;" horiz-adv-x="1824" 
d="M1586 946l-118 -96l-194 243l89 130zM1751 1094l-118 -96l-194 244l90 129zM1239 863q0 -267 -53 -553l-138 -4q34 236 34 564q-266 0 -402 -23v-558q13 -108 123 -112l599 -1v-165h-600q-261 0 -283 276v522q-96 -27 -231 -73l-53 152q150 51 284 87v399h161v-365
q120 19 397 19q-5 119 -35 298l150 74q40 -225 44 -379q28 -2 60 -6l114 -172q-104 16 -171 20z" />
    <glyph glyph-name="uni305D" unicode="&#x305d;" horiz-adv-x="1817" 
d="M1010 1155l-532 -39l-12 162l849 63l-19 -125l-366 -375l578 122l32 -160l-402 -85q-149 -67 -206 -160q-39 -62 -39 -131q0 -32 9 -66q26 -105 117 -150q66 -32 178 -32q57 0 167 13l26 -162q-127 -19 -199 -19q-163 0 -269 65q-159 95 -187 258q-7 41 -7 80
q0 115 71 224l-492 -96l-32 160l368 78z" />
    <glyph glyph-name="uni305E" unicode="&#x305e;" horiz-adv-x="1818" 
d="M1586 946l-118 -96l-194 243l89 130zM1751 1094l-118 -96l-194 244l90 129zM1138 718q-149 -67 -206 -160q-39 -62 -39 -131q0 -32 9 -66q26 -105 117 -150q66 -32 178 -32q57 0 167 13l26 -162q-127 -19 -199 -19q-163 0 -269 65q-159 95 -187 258q-7 41 -7 80
q0 115 71 224l-492 -96l-32 160l368 78l367 375l-532 -39l-12 162l849 63l-19 -125l-366 -375l390 82l106 -144z" />
    <glyph glyph-name="uni305F" unicode="&#x305f;" horiz-adv-x="1803" 
d="M1069 20q-247 29 -340 230q-2 5 -22 44l132 96q28 -63 35 -76q69 -125 236 -139q45 -3 98 -3q123 0 337 25l12 -165q-193 -21 -317 -21q-93 0 -171 9zM642 940l-239 -961l-158 38l228 919h-57q-59 0 -167 1v163q114 -2 178 -2h87l87 347l152 -59l-70 -282q165 7 347 56
l-11 -167q-166 -45 -377 -53zM855 681v164q186 35 315 35q130 0 270 -37l10 -167q-158 42 -278 42q-122 0 -317 -37z" />
    <glyph glyph-name="uni3060" unicode="&#x3060;" horiz-adv-x="1803" 
d="M1069 20q-247 29 -340 230q-2 5 -22 44l132 96q28 -63 35 -76q69 -125 236 -139q45 -3 98 -3q123 0 337 25l12 -165q-193 -21 -317 -21q-93 0 -171 9zM642 940l-239 -961l-158 38l228 919h-57q-59 0 -167 1v163q114 -2 178 -2h87l87 347l152 -59l-70 -282q165 7 347 56
l-11 -167q-166 -45 -377 -53zM855 681v164q186 35 315 35q130 0 270 -37l10 -167q-158 42 -278 42q-122 0 -317 -37zM1586 946l-118 -96l-194 243l89 130zM1751 1094l-118 -96l-194 244l90 129z" />
    <glyph glyph-name="uni3061" unicode="&#x3061;" horiz-adv-x="1827" 
d="M867 1106q214 2 458 33l-10 -164q-237 -30 -489 -32l-35 -142q2 1 89 9q32 2 63 2q161 0 270 -79q134 -97 151 -281q1 -22 1 -43q0 -153 -98 -257q-111 -117 -314 -135q-34 -3 -67 -3q-141 0 -304 68l54 168q141 -69 253 -69q24 0 49 2q138 11 211 81q59 57 59 148
q0 14 -1 29q-10 108 -89 159q-70 45 -177 45q-23 0 -47 -1q-83 -8 -148 -49q-33 -21 -108 -101l-54 132l78 317q-46 0 -201 4v163q166 -6 240 -6l83 341l153 -59z" />
    <glyph glyph-name="uni3062" unicode="&#x3062;" horiz-adv-x="1840" 
d="M790 943l-35 -142q2 1 89 9q32 2 63 2q161 0 270 -79q134 -97 151 -281q1 -22 1 -43q0 -153 -98 -257q-111 -117 -314 -135q-34 -3 -67 -3q-141 0 -304 68l54 168q141 -69 253 -69q24 0 49 2q138 11 211 81q59 57 59 148q0 14 -1 29q-10 108 -89 159q-70 45 -177 45
q-23 0 -47 -1q-83 -8 -148 -49q-33 -21 -108 -101l-54 132l78 317q-46 0 -201 4v163q166 -6 240 -6l83 341l153 -59l-70 -280q110 1 274 12l90 -154q-232 -20 -405 -21zM1486 946l-118 -96l-194 243l89 130zM1651 1094l-118 -96l-194 244l90 129z" />
    <glyph glyph-name="uni3063" unicode="&#x3063;" horiz-adv-x="1827" 
d="M1422 530q2 -26 2 -50q0 -191 -134 -314q-145 -135 -518 -194l-39 154q319 41 437 136q99 81 99 214q0 15 -1 30q-10 140 -153 152q-23 1 -47 1q-147 0 -299 -73q-126 -60 -219 -60q-65 0 -148 45l52 164q60 -53 86 -53q65 0 193 56q169 74 331 74q53 0 105 -7
q231 -36 253 -275z" />
    <glyph glyph-name="uni3064" unicode="&#x3064;" horiz-adv-x="1801" 
d="M1568 835q21 -77 21 -151q0 -201 -155 -375q-210 -234 -676 -306l-41 167q405 51 585 236q128 132 128 278q0 52 -16 108q-59 202 -274 219q-34 3 -67 3q-203 0 -409 -96q-167 -77 -286 -77q-76 0 -167 47l55 171q62 -55 95 -55q87 0 269 78q227 97 438 97q67 0 133 -10
q286 -43 367 -334z" />
    </font>
</defs>
</svg>
